<?xml version="1.0" encoding="UTF-8" standalone="no"?><svg xmlns="http://www.w3.org/2000/svg" xmlns:xlink="http://www.w3.org/1999/xlink" contentScriptType="application/ecmascript" contentStyleType="text/css" height="949px" preserveAspectRatio="none" style="width:517px;height:949px;" version="1.1" viewBox="0 0 517 949" width="517px" zoomAndPan="magnify"><defs><filter height="300%" id="f1lxl9zr9rmno5" width="300%" x="-1" y="-1"><feGaussianBlur result="blurOut" stdDeviation="2.0"/><feColorMatrix in="blurOut" result="blurOut2" type="matrix" values="0 0 0 0 0 0 0 0 0 0 0 0 0 0 0 0 0 0 .4 0"/><feOffset dx="4.0" dy="4.0" in="blurOut2" result="blurOut3"/><feBlend in="SourceGraphic" in2="blurOut3" mode="normal"/></filter></defs><g><polygon fill="#FFFFFF" filter="url(#f1lxl9zr9rmno5)" points="16,6,169,6,176,29.6094,500,29.6094,500,942,16,942,16,6" style="stroke:#000000;stroke-width:1.5;"/><line style="stroke:#000000;stroke-width:1.5;" x1="16" x2="176" y1="29.6094" y2="29.6094"/><text fill="#000000" font-family="sans-serif" font-size="14" font-weight="bold" lengthAdjust="spacingAndGlyphs" textLength="147" x="20" y="22.5332">sap.capire.bookshop</text><rect codeLine="2" fill="#FEFECE" filter="url(#f1lxl9zr9rmno5)" height="200.1953" id="Authors" style="stroke:#A80036;stroke-width:1.5;" width="137" x="124.5" y="42"/><ellipse cx="167.85" cy="58" fill="#ADD1B2" rx="11" ry="11" style="stroke:#A80036;stroke-width:1.0;"/><path d="M166.7094,58.7969 L166.7094,61.2969 L171.0375,61.2969 L171.0375,60.375 Q171.0375,59.7656 171.2719,59.5 Q171.5219,59.2344 171.8969,59.2344 Q172.2719,59.2344 172.5063,59.5 Q172.7406,59.7656 172.7406,60.375 L172.7406,63 L164.7406,63 Q164.1156,63 163.85,62.7656 Q163.6,62.5313 163.6,62.1406 Q163.6,61.7656 163.8656,61.5313 Q164.1313,61.2969 164.7406,61.2969 L165.0063,61.2969 L165.0063,54.6406 L164.7406,54.6406 Q164.1156,54.6406 163.85,54.4063 Q163.6,54.1719 163.6,53.7813 Q163.6,53.4063 163.85,53.1719 Q164.1156,52.9375 164.7406,52.9375 L172.3656,52.9375 L172.3656,55.5313 Q172.3656,56.1406 172.1313,56.4063 Q171.9125,56.6563 171.5219,56.6563 Q171.1469,56.6563 170.9125,56.4063 Q170.6781,56.1406 170.6781,55.5313 L170.6781,54.6406 L166.7094,54.6406 L166.7094,57.0938 L168.1938,57.0938 Q168.1938,56.4375 168.3188,56.25 Q168.5844,55.8438 169.0531,55.8438 Q169.4281,55.8438 169.6625,56.1094 Q169.8969,56.3594 169.8969,56.9688 L169.8969,58.9375 Q169.8969,59.4844 169.7719,59.6719 Q169.5063,60.0625 169.0531,60.0625 Q168.5844,60.0625 168.3188,59.6563 Q168.1938,59.4688 168.1938,58.7969 L166.7094,58.7969 Z " fill="#000000"/><text fill="#000000" font-family="sans-serif" font-size="12" lengthAdjust="spacingAndGlyphs" textLength="42" x="188.15" y="62.9102">Authors</text><line style="stroke:#A80036;stroke-width:1.5;" x1="125.5" x2="260.5" y1="74" y2="74"/><text fill="#000000" font-family="sans-serif" font-size="11" lengthAdjust="spacingAndGlyphs" textLength="108" x="144.5" y="89.4189">createdAt:  Timestamp</text><text fill="#000000" font-family="sans-serif" font-size="11" lengthAdjust="spacingAndGlyphs" textLength="82" x="144.5" y="103.2549">createdBy:  User</text><text fill="#000000" font-family="sans-serif" font-size="11" lengthAdjust="spacingAndGlyphs" textLength="111" x="144.5" y="117.0908">modifiedAt:  Timestamp</text><text fill="#000000" font-family="sans-serif" font-size="11" lengthAdjust="spacingAndGlyphs" textLength="85" x="144.5" y="130.9268">modifiedBy:  User</text><ellipse cx="135.5" cy="140.3438" fill="none" rx="3" ry="3" style="stroke:#038048;stroke-width:1.0;"/><text fill="#000000" font-family="sans-serif" font-size="11" lengthAdjust="spacingAndGlyphs" textLength="51" x="144.5" y="144.7627">ID:  Integer</text><text fill="#000000" font-family="sans-serif" font-size="11" lengthAdjust="spacingAndGlyphs" textLength="87" x="144.5" y="158.5986">name:  String[111]</text><text fill="#000000" font-family="sans-serif" font-size="11" lengthAdjust="spacingAndGlyphs" textLength="86" x="144.5" y="172.4346">dateOfBirth:  Date</text><text fill="#000000" font-family="sans-serif" font-size="11" lengthAdjust="spacingAndGlyphs" textLength="92" x="144.5" y="186.2705">dateOfDeath:  Date</text><text fill="#000000" font-family="sans-serif" font-size="11" lengthAdjust="spacingAndGlyphs" textLength="97" x="144.5" y="200.1064">placeOfBirth:  String</text><text fill="#000000" font-family="sans-serif" font-size="11" lengthAdjust="spacingAndGlyphs" textLength="103" x="144.5" y="213.9424">placeOfDeath:  String</text><text fill="#000000" font-family="sans-serif" font-size="11" lengthAdjust="spacingAndGlyphs" textLength="95" x="144.5" y="227.7783">books:  Association</text><line style="stroke:#A80036;stroke-width:1.5;" x1="125.5" x2="260.5" y1="234.1953" y2="234.1953"/><rect codeLine="15" fill="#FEFECE" filter="url(#f1lxl9zr9rmno5)" height="255.5391" id="Books" style="stroke:#A80036;stroke-width:1.5;" width="166" x="110" y="302"/><ellipse cx="171.25" cy="318" fill="#ADD1B2" rx="11" ry="11" style="stroke:#A80036;stroke-width:1.0;"/><path d="M170.1094,318.7969 L170.1094,321.2969 L174.4375,321.2969 L174.4375,320.375 Q174.4375,319.7656 174.6719,319.5 Q174.9219,319.2344 175.2969,319.2344 Q175.6719,319.2344 175.9063,319.5 Q176.1406,319.7656 176.1406,320.375 L176.1406,323 L168.1406,323 Q167.5156,323 167.25,322.7656 Q167,322.5313 167,322.1406 Q167,321.7656 167.2656,321.5313 Q167.5313,321.2969 168.1406,321.2969 L168.4063,321.2969 L168.4063,314.6406 L168.1406,314.6406 Q167.5156,314.6406 167.25,314.4063 Q167,314.1719 167,313.7813 Q167,313.4063 167.25,313.1719 Q167.5156,312.9375 168.1406,312.9375 L175.7656,312.9375 L175.7656,315.5313 Q175.7656,316.1406 175.5313,316.4063 Q175.3125,316.6563 174.9219,316.6563 Q174.5469,316.6563 174.3125,316.4063 Q174.0781,316.1406 174.0781,315.5313 L174.0781,314.6406 L170.1094,314.6406 L170.1094,317.0938 L171.5938,317.0938 Q171.5938,316.4375 171.7188,316.25 Q171.9844,315.8438 172.4531,315.8438 Q172.8281,315.8438 173.0625,316.1094 Q173.2969,316.3594 173.2969,316.9688 L173.2969,318.9375 Q173.2969,319.4844 173.1719,319.6719 Q172.9063,320.0625 172.4531,320.0625 Q171.9844,320.0625 171.7188,319.6563 Q171.5938,319.4688 171.5938,318.7969 L170.1094,318.7969 Z " fill="#000000"/><text fill="#000000" font-family="sans-serif" font-size="12" lengthAdjust="spacingAndGlyphs" textLength="35" x="191.75" y="322.9102">Books</text><line style="stroke:#A80036;stroke-width:1.5;" x1="111" x2="275" y1="334" y2="334"/><text fill="#000000" font-family="sans-serif" font-size="11" lengthAdjust="spacingAndGlyphs" textLength="108" x="130" y="349.4189">createdAt:  Timestamp</text><text fill="#000000" font-family="sans-serif" font-size="11" lengthAdjust="spacingAndGlyphs" textLength="82" x="130" y="363.2549">createdBy:  User</text><text fill="#000000" font-family="sans-serif" font-size="11" lengthAdjust="spacingAndGlyphs" textLength="111" x="130" y="377.0908">modifiedAt:  Timestamp</text><text fill="#000000" font-family="sans-serif" font-size="11" lengthAdjust="spacingAndGlyphs" textLength="85" x="130" y="390.9268">modifiedBy:  User</text><ellipse cx="121" cy="400.3438" fill="none" rx="3" ry="3" style="stroke:#038048;stroke-width:1.0;"/><text fill="#000000" font-family="sans-serif" font-size="11" lengthAdjust="spacingAndGlyphs" textLength="51" x="130" y="404.7627">ID:  Integer</text><polygon fill="none" points="121,410.1797,117,416.1797,125,416.1797" style="stroke:#1963A0;stroke-width:1.0;"/><text fill="#000000" font-family="sans-serif" font-size="11" lengthAdjust="spacingAndGlyphs" textLength="122" x="130" y="418.5986">title: localized  String[111]</text><polygon fill="none" points="121,424.0156,117,430.0156,125,430.0156" style="stroke:#1963A0;stroke-width:1.0;"/><text fill="#000000" font-family="sans-serif" font-size="11" lengthAdjust="spacingAndGlyphs" textLength="140" x="130" y="432.4346">descr: localized  String[1111]</text><text fill="#000000" font-family="sans-serif" font-size="11" lengthAdjust="spacingAndGlyphs" textLength="97" x="130" y="446.2705">author:  Association</text><text fill="#000000" font-family="sans-serif" font-size="11" lengthAdjust="spacingAndGlyphs" textLength="94" x="130" y="460.1064">genre:  Association</text><text fill="#000000" font-family="sans-serif" font-size="11" lengthAdjust="spacingAndGlyphs" textLength="68" x="130" y="473.9424">stock:  Integer</text><text fill="#000000" font-family="sans-serif" font-size="11" lengthAdjust="spacingAndGlyphs" textLength="70" x="130" y="487.7783">price:  Decimal</text><text fill="#000000" font-family="sans-serif" font-size="11" lengthAdjust="spacingAndGlyphs" textLength="98" x="130" y="501.6143">currency:  Currency</text><text fill="#000000" font-family="sans-serif" font-size="11" lengthAdjust="spacingAndGlyphs" textLength="96" x="130" y="515.4502">image:  LargeBinary</text><text fill="#000000" font-family="sans-serif" font-size="11" lengthAdjust="spacingAndGlyphs" textLength="91" x="130" y="529.2861">texts:  Composition</text><text fill="#000000" font-family="sans-serif" font-size="11" lengthAdjust="spacingAndGlyphs" textLength="108" x="130" y="543.1221">localized:  Association</text><line style="stroke:#A80036;stroke-width:1.5;" x1="111" x2="275" y1="549.5391" y2="549.5391"/><rect codeLine="32" fill="#FEFECE" filter="url(#f1lxl9zr9rmno5)" height="103.3438" id="Books_texts" style="stroke:#A80036;stroke-width:1.5;" width="121" x="32.5" y="639"/><ellipse cx="57.4" cy="655" fill="#ADD1B2" rx="11" ry="11" style="stroke:#A80036;stroke-width:1.0;"/><path d="M56.2594,655.7969 L56.2594,658.2969 L60.5875,658.2969 L60.5875,657.375 Q60.5875,656.7656 60.8219,656.5 Q61.0719,656.2344 61.4469,656.2344 Q61.8219,656.2344 62.0563,656.5 Q62.2906,656.7656 62.2906,657.375 L62.2906,660 L54.2906,660 Q53.6656,660 53.4,659.7656 Q53.15,659.5313 53.15,659.1406 Q53.15,658.7656 53.4156,658.5313 Q53.6813,658.2969 54.2906,658.2969 L54.5563,658.2969 L54.5563,651.6406 L54.2906,651.6406 Q53.6656,651.6406 53.4,651.4063 Q53.15,651.1719 53.15,650.7813 Q53.15,650.4063 53.4,650.1719 Q53.6656,649.9375 54.2906,649.9375 L61.9156,649.9375 L61.9156,652.5313 Q61.9156,653.1406 61.6813,653.4063 Q61.4625,653.6563 61.0719,653.6563 Q60.6969,653.6563 60.4625,653.4063 Q60.2281,653.1406 60.2281,652.5313 L60.2281,651.6406 L56.2594,651.6406 L56.2594,654.0938 L57.7438,654.0938 Q57.7438,653.4375 57.8688,653.25 Q58.1344,652.8438 58.6031,652.8438 Q58.9781,652.8438 59.2125,653.1094 Q59.4469,653.3594 59.4469,653.9688 L59.4469,655.9375 Q59.4469,656.4844 59.3219,656.6719 Q59.0563,657.0625 58.6031,657.0625 Q58.1344,657.0625 57.8688,656.6563 Q57.7438,656.4688 57.7438,655.7969 L56.2594,655.7969 Z " fill="#000000"/><text fill="#000000" font-family="sans-serif" font-size="12" lengthAdjust="spacingAndGlyphs" textLength="67" x="73.6" y="659.9102">Books_texts</text><line style="stroke:#A80036;stroke-width:1.5;" x1="33.5" x2="152.5" y1="671" y2="671"/><ellipse cx="43.5" cy="682" fill="none" rx="3" ry="3" style="stroke:#038048;stroke-width:1.0;"/><text fill="#000000" font-family="sans-serif" font-size="11" lengthAdjust="spacingAndGlyphs" textLength="83" x="52.5" y="686.4189">locale:  String[14]</text><ellipse cx="43.5" cy="695.8359" fill="none" rx="3" ry="3" style="stroke:#038048;stroke-width:1.0;"/><text fill="#000000" font-family="sans-serif" font-size="11" lengthAdjust="spacingAndGlyphs" textLength="51" x="52.5" y="700.2549">ID:  Integer</text><text fill="#000000" font-family="sans-serif" font-size="11" lengthAdjust="spacingAndGlyphs" textLength="77" x="52.5" y="714.0908">title:  String[111]</text><text fill="#000000" font-family="sans-serif" font-size="11" lengthAdjust="spacingAndGlyphs" textLength="95" x="52.5" y="727.9268">descr:  String[1111]</text><line style="stroke:#A80036;stroke-width:1.5;" x1="33.5" x2="152.5" y1="734.3438" y2="734.3438"/><rect codeLine="38" fill="#FEFECE" filter="url(#f1lxl9zr9rmno5)" height="144.8516" id="Genres" style="stroke:#A80036;stroke-width:1.5;" width="166" x="189" y="618"/><ellipse cx="247.25" cy="634" fill="#ADD1B2" rx="11" ry="11" style="stroke:#A80036;stroke-width:1.0;"/><path d="M246.1094,634.7969 L246.1094,637.2969 L250.4375,637.2969 L250.4375,636.375 Q250.4375,635.7656 250.6719,635.5 Q250.9219,635.2344 251.2969,635.2344 Q251.6719,635.2344 251.9063,635.5 Q252.1406,635.7656 252.1406,636.375 L252.1406,639 L244.1406,639 Q243.5156,639 243.25,638.7656 Q243,638.5313 243,638.1406 Q243,637.7656 243.2656,637.5313 Q243.5313,637.2969 244.1406,637.2969 L244.4063,637.2969 L244.4063,630.6406 L244.1406,630.6406 Q243.5156,630.6406 243.25,630.4063 Q243,630.1719 243,629.7813 Q243,629.4063 243.25,629.1719 Q243.5156,628.9375 244.1406,628.9375 L251.7656,628.9375 L251.7656,631.5313 Q251.7656,632.1406 251.5313,632.4063 Q251.3125,632.6563 250.9219,632.6563 Q250.5469,632.6563 250.3125,632.4063 Q250.0781,632.1406 250.0781,631.5313 L250.0781,630.6406 L246.1094,630.6406 L246.1094,633.0938 L247.5938,633.0938 Q247.5938,632.4375 247.7188,632.25 Q247.9844,631.8438 248.4531,631.8438 Q248.8281,631.8438 249.0625,632.1094 Q249.2969,632.3594 249.2969,632.9688 L249.2969,634.9375 Q249.2969,635.4844 249.1719,635.6719 Q248.9063,636.0625 248.4531,636.0625 Q247.9844,636.0625 247.7188,635.6563 Q247.5938,635.4688 247.5938,634.7969 L246.1094,634.7969 Z " fill="#000000"/><text fill="#000000" font-family="sans-serif" font-size="12" lengthAdjust="spacingAndGlyphs" textLength="41" x="267.75" y="638.9102">Genres</text><line style="stroke:#A80036;stroke-width:1.5;" x1="190" x2="354" y1="650" y2="650"/><polygon fill="none" points="200,657,196,663,204,663" style="stroke:#1963A0;stroke-width:1.0;"/><text fill="#000000" font-family="sans-serif" font-size="11" lengthAdjust="spacingAndGlyphs" textLength="132" x="209" y="665.4189">name: localized  String[255]</text><polygon fill="none" points="200,670.8359,196,676.8359,204,676.8359" style="stroke:#1963A0;stroke-width:1.0;"/><text fill="#000000" font-family="sans-serif" font-size="11" lengthAdjust="spacingAndGlyphs" textLength="140" x="209" y="679.2549">descr: localized  String[1000]</text><ellipse cx="200" cy="688.6719" fill="none" rx="3" ry="3" style="stroke:#038048;stroke-width:1.0;"/><text fill="#000000" font-family="sans-serif" font-size="11" lengthAdjust="spacingAndGlyphs" textLength="51" x="209" y="693.0908">ID:  Integer</text><text fill="#000000" font-family="sans-serif" font-size="11" lengthAdjust="spacingAndGlyphs" textLength="97" x="209" y="706.9268">parent:  Association</text><text fill="#000000" font-family="sans-serif" font-size="11" lengthAdjust="spacingAndGlyphs" textLength="105" x="209" y="720.7627">children:  Composition</text><text fill="#000000" font-family="sans-serif" font-size="11" lengthAdjust="spacingAndGlyphs" textLength="91" x="209" y="734.5986">texts:  Composition</text><text fill="#000000" font-family="sans-serif" font-size="11" lengthAdjust="spacingAndGlyphs" textLength="108" x="209" y="748.4346">localized:  Association</text><line style="stroke:#A80036;stroke-width:1.5;" x1="190" x2="354" y1="754.8516" y2="754.8516"/><rect codeLine="47" fill="#FEFECE" filter="url(#f1lxl9zr9rmno5)" height="103.3438" id="Genres_texts" style="stroke:#A80036;stroke-width:1.5;" width="121" x="211.5" y="823"/><ellipse cx="233.7" cy="839" fill="#ADD1B2" rx="11" ry="11" style="stroke:#A80036;stroke-width:1.0;"/><path d="M232.5594,839.7969 L232.5594,842.2969 L236.8875,842.2969 L236.8875,841.375 Q236.8875,840.7656 237.1219,840.5 Q237.3719,840.2344 237.7469,840.2344 Q238.1219,840.2344 238.3563,840.5 Q238.5906,840.7656 238.5906,841.375 L238.5906,844 L230.5906,844 Q229.9656,844 229.7,843.7656 Q229.45,843.5313 229.45,843.1406 Q229.45,842.7656 229.7156,842.5313 Q229.9813,842.2969 230.5906,842.2969 L230.8563,842.2969 L230.8563,835.6406 L230.5906,835.6406 Q229.9656,835.6406 229.7,835.4063 Q229.45,835.1719 229.45,834.7813 Q229.45,834.4063 229.7,834.1719 Q229.9656,833.9375 230.5906,833.9375 L238.2156,833.9375 L238.2156,836.5313 Q238.2156,837.1406 237.9813,837.4063 Q237.7625,837.6563 237.3719,837.6563 Q236.9969,837.6563 236.7625,837.4063 Q236.5281,837.1406 236.5281,836.5313 L236.5281,835.6406 L232.5594,835.6406 L232.5594,838.0938 L234.0438,838.0938 Q234.0438,837.4375 234.1688,837.25 Q234.4344,836.8438 234.9031,836.8438 Q235.2781,836.8438 235.5125,837.1094 Q235.7469,837.3594 235.7469,837.9688 L235.7469,839.9375 Q235.7469,840.4844 235.6219,840.6719 Q235.3563,841.0625 234.9031,841.0625 Q234.4344,841.0625 234.1688,840.6563 Q234.0438,840.4688 234.0438,839.7969 L232.5594,839.7969 Z " fill="#000000"/><text fill="#000000" font-family="sans-serif" font-size="12" lengthAdjust="spacingAndGlyphs" textLength="73" x="249.3" y="843.9102">Genres_texts</text><line style="stroke:#A80036;stroke-width:1.5;" x1="212.5" x2="331.5" y1="855" y2="855"/><ellipse cx="222.5" cy="866" fill="none" rx="3" ry="3" style="stroke:#038048;stroke-width:1.0;"/><text fill="#000000" font-family="sans-serif" font-size="11" lengthAdjust="spacingAndGlyphs" textLength="83" x="231.5" y="870.4189">locale:  String[14]</text><text fill="#000000" font-family="sans-serif" font-size="11" lengthAdjust="spacingAndGlyphs" textLength="87" x="231.5" y="884.2549">name:  String[255]</text><text fill="#000000" font-family="sans-serif" font-size="11" lengthAdjust="spacingAndGlyphs" textLength="95" x="231.5" y="898.0908">descr:  String[1000]</text><ellipse cx="222.5" cy="907.5078" fill="none" rx="3" ry="3" style="stroke:#038048;stroke-width:1.0;"/><text fill="#000000" font-family="sans-serif" font-size="11" lengthAdjust="spacingAndGlyphs" textLength="51" x="231.5" y="911.9268">ID:  Integer</text><line style="stroke:#A80036;stroke-width:1.5;" x1="212.5" x2="331.5" y1="918.3438" y2="918.3438"/><rect fill="#FEFECE" filter="url(#f1lxl9zr9rmno5)" height="48" id="Currencies" style="stroke:#A80036;stroke-width:1.5;" width="93" x="390.5" y="666.5"/><ellipse cx="405.5" cy="682.5" fill="#ADD1B2" rx="11" ry="11" style="stroke:#A80036;stroke-width:1.0;"/><path d="M408.2656,678.375 Q408.4219,678.1563 408.6094,678.0469 Q408.7969,677.9375 409.0156,677.9375 Q409.3906,677.9375 409.625,678.2031 Q409.8594,678.4531 409.8594,679.0625 L409.8594,680.5156 Q409.8594,681.125 409.625,681.3906 Q409.3906,681.6563 409.0156,681.6563 Q408.6719,681.6563 408.4688,681.4531 Q408.2656,681.2656 408.1563,680.75 Q408.1094,680.3906 407.9219,680.2031 Q407.5938,679.8281 406.9844,679.6094 Q406.375,679.3906 405.75,679.3906 Q404.9844,679.3906 404.3438,679.7188 Q403.7188,680.0469 403.2188,680.7969 Q402.7344,681.5469 402.7344,682.5781 L402.7344,683.6719 Q402.7344,684.9063 403.625,685.7344 Q404.5156,686.5469 406.1094,686.5469 Q407.0469,686.5469 407.7031,686.2969 Q408.0938,686.1406 408.5156,685.7031 Q408.7813,685.4375 408.9219,685.3594 Q409.0781,685.2813 409.2813,685.2813 Q409.6094,685.2813 409.8594,685.5469 Q410.125,685.7969 410.125,686.1406 Q410.125,686.4844 409.7813,686.8906 Q409.2813,687.4688 408.4844,687.7969 Q407.4063,688.25 406.1094,688.25 Q404.5938,688.25 403.3906,687.625 Q402.4063,687.125 401.7188,686.0625 Q401.0313,684.9844 401.0313,683.7031 L401.0313,682.5469 Q401.0313,681.2188 401.6406,680.0781 Q402.2656,678.9219 403.3594,678.3125 Q404.4531,677.6875 405.6875,677.6875 Q406.4219,677.6875 407.0625,677.8594 Q407.7188,678.0156 408.2656,678.375 Z " fill="#000000"/><text fill="#000000" font-family="sans-serif" font-size="12" lengthAdjust="spacingAndGlyphs" textLength="61" x="419.5" y="687.4102">Currencies</text><line style="stroke:#A80036;stroke-width:1.5;" x1="391.5" x2="482.5" y1="698.5" y2="698.5"/><line style="stroke:#A80036;stroke-width:1.5;" x1="391.5" x2="482.5" y1="706.5" y2="706.5"/><path codeLine="53" d="M180.51,255.49 C180.25,270.75 180.18,286.5 180.32,301.99 " fill="none" id="Authors-backto-Books" style="stroke:#A80036;stroke-width:1.0;"/><polygon fill="#FFFFFF" points="180.8,242.23,176.6756,248.1452,180.5495,254.2274,184.6739,248.3122,180.8,242.23" style="stroke:#A80036;stroke-width:1.0;"/><path codeLine="54" d="M206.5,288.8 C206.52,273.07 206.33,257.29 205.92,242.23 " fill="none" id="Books-backto-Authors" style="stroke:#A80036;stroke-width:1.0;"/><polygon fill="#FFFFFF" points="206.42,301.99,210.4529,296.0121,206.4859,289.9902,202.453,295.9681,206.42,301.99" style="stroke:#A80036;stroke-width:1.0;"/><path codeLine="55" d="M235.86,571.25 C240.76,587.29 245.6,603.1 250.05,617.69 " fill="none" id="Books-backto-Genres" style="stroke:#A80036;stroke-width:1.0;"/><polygon fill="#FFFFFF" points="231.92,558.36,229.8491,565.2673,235.4286,569.8356,237.4995,562.9283,231.92,558.36" style="stroke:#A80036;stroke-width:1.0;"/><path codeLine="56" d="M285.21,525.46 C313.59,554.89 344.78,587.6 373,618 C387.85,634 404.26,652.34 416.74,666.45 " fill="none" id="Books-backto-Currencies" style="stroke:#A80036;stroke-width:1.0;"/><polygon fill="#FFFFFF" points="276.1,516.03,277.3876,523.1252,284.4323,524.6655,283.1447,517.5703,276.1,516.03" style="stroke:#A80036;stroke-width:1.0;"/><path codeLine="57" d="M126.23,570.73 C116.99,595.08 108.54,618.93 102.24,638.79 " fill="none" id="Books-backto-Books_texts" style="stroke:#A80036;stroke-width:1.0;"/><polygon fill="#FFFFFF" points="130.98,558.36,125.095,562.5274,126.6784,569.5625,132.5634,565.3951,130.98,558.36" style="stroke:#A80036;stroke-width:1.0;"/><path codeLine="58" d="M152.41,570.73 C142.8,595.08 132.75,618.93 123.6,638.79 " fill="none" id="Books-backto-Books_texts-1" style="stroke:#A80036;stroke-width:1.0;"/><polygon fill="#FFFFFF" points="157.23,558.36,151.3264,562.5009,152.8781,569.5431,158.7817,565.4022,157.23,558.36" style="stroke:#A80036;stroke-width:1.0;"/><path codeLine="59" d="M259.28,776.44 C259.14,792.35 259.53,808.51 260.44,822.96 " fill="none" id="Genres-backto-Genres_texts" style="stroke:#A80036;stroke-width:1.0;"/><polygon fill="#FFFFFF" points="259.51,763.17,255.4051,769.0988,259.299,775.1681,263.4039,769.2394,259.51,763.17" style="stroke:#A80036;stroke-width:1.0;"/><path codeLine="60" d="M285.47,776.44 C285.61,792.35 285.2,808.51 284.24,822.96 " fill="none" id="Genres-backto-Genres_texts-1" style="stroke:#A80036;stroke-width:1.0;"/><polygon fill="#FFFFFF" points="285.23,763.17,281.3428,769.2437,285.4541,775.1679,289.3414,769.0942,285.23,763.17" style="stroke:#A80036;stroke-width:1.0;"/></g></svg>