<?xml version="1.0" encoding="UTF-8" standalone="no"?><svg xmlns="http://www.w3.org/2000/svg" xmlns:xlink="http://www.w3.org/1999/xlink" contentScriptType="application/ecmascript" contentStyleType="text/css" height="963px" preserveAspectRatio="none" style="width:679px;height:963px;" version="1.1" viewBox="0 0 679 963" width="679px" zoomAndPan="magnify"><defs><filter height="300%" id="fcu7tj27mdkks" width="300%" x="-1" y="-1"><feGaussianBlur result="blurOut" stdDeviation="2.0"/><feColorMatrix in="blurOut" result="blurOut2" type="matrix" values="0 0 0 0 0 0 0 0 0 0 0 0 0 0 0 0 0 0 .4 0"/><feOffset dx="4.0" dy="4.0" in="blurOut2" result="blurOut3"/><feBlend in="SourceGraphic" in2="blurOut3" mode="normal"/></filter></defs><g><polygon fill="#FFFFFF" filter="url(#fcu7tj27mdkks)" points="16,6,90,6,97,29.6094,662,29.6094,662,956,16,956,16,6" style="stroke:#000000;stroke-width:1.5;"/><line style="stroke:#000000;stroke-width:1.5;" x1="16" x2="97" y1="29.6094" y2="29.6094"/><text fill="#000000" font-family="sans-serif" font-size="14" font-weight="bold" lengthAdjust="spacing" textLength="68" x="20" y="22.5332">cap.demo</text><rect codeLine="2" fill="#FEFECE" filter="url(#fcu7tj27mdkks)" height="200.1953" id="Authors" style="stroke:#A80036;stroke-width:1.5;" width="137" x="306.5" y="49"/><ellipse cx="349.85" cy="65" fill="#ADD1B2" rx="11" ry="11" style="stroke:#A80036;stroke-width:1.0;"/><path d="M348.7094,65.7969 L348.7094,68.2969 L353.0375,68.2969 L353.0375,67.375 Q353.0375,66.7656 353.2797,66.5 Q353.5219,66.2344 353.8969,66.2344 Q354.2719,66.2344 354.5063,66.5 Q354.7406,66.7656 354.7406,67.375 L354.7406,70 L346.7406,70 Q346.1156,70 345.8578,69.7656 Q345.6,69.5313 345.6,69.1406 Q345.6,68.7656 345.8656,68.5313 Q346.1313,68.2969 346.7406,68.2969 L347.0063,68.2969 L347.0063,61.6406 L346.7406,61.6406 Q346.1156,61.6406 345.8578,61.4063 Q345.6,61.1719 345.6,60.7813 Q345.6,60.4063 345.8578,60.1719 Q346.1156,59.9375 346.7406,59.9375 L354.3656,59.9375 L354.3656,62.5313 Q354.3656,63.1406 354.1391,63.3984 Q353.9125,63.6563 353.5219,63.6563 Q353.1469,63.6563 352.9125,63.3984 Q352.6781,63.1406 352.6781,62.5313 L352.6781,61.6406 L348.7094,61.6406 L348.7094,64.0938 L350.1938,64.0938 Q350.1938,63.4375 350.3188,63.25 Q350.5844,62.8438 351.0531,62.8438 Q351.4281,62.8438 351.6625,63.1016 Q351.8969,63.3594 351.8969,63.9688 L351.8969,65.9375 Q351.8969,66.4844 351.7719,66.6719 Q351.5063,67.0625 351.0531,67.0625 Q350.5844,67.0625 350.3188,66.6563 Q350.1938,66.4688 350.1938,65.7969 L348.7094,65.7969 Z " fill="#000000"/><text fill="#000000" font-family="sans-serif" font-size="12" lengthAdjust="spacing" textLength="42" x="370.15" y="69.9102">Authors</text><line style="stroke:#A80036;stroke-width:1.5;" x1="307.5" x2="442.5" y1="81" y2="81"/><text fill="#000000" font-family="sans-serif" font-size="11" lengthAdjust="spacing" textLength="108" x="326.5" y="96.4189">createdAt:  Timestamp</text><text fill="#000000" font-family="sans-serif" font-size="11" lengthAdjust="spacing" textLength="82" x="326.5" y="110.2549">createdBy:  User</text><text fill="#000000" font-family="sans-serif" font-size="11" lengthAdjust="spacing" textLength="111" x="326.5" y="124.0908">modifiedAt:  Timestamp</text><text fill="#000000" font-family="sans-serif" font-size="11" lengthAdjust="spacing" textLength="85" x="326.5" y="137.9268">modifiedBy:  User</text><ellipse cx="317.5" cy="147.3438" fill="none" rx="3" ry="3" style="stroke:#038048;stroke-width:1.0;"/><text fill="#000000" font-family="sans-serif" font-size="11" lengthAdjust="spacing" textLength="51" x="326.5" y="151.7627">ID:  Integer</text><text fill="#000000" font-family="sans-serif" font-size="11" lengthAdjust="spacing" textLength="87" x="326.5" y="165.5986">name:  String[111]</text><text fill="#000000" font-family="sans-serif" font-size="11" lengthAdjust="spacing" textLength="86" x="326.5" y="179.4346">dateOfBirth:  Date</text><text fill="#000000" font-family="sans-serif" font-size="11" lengthAdjust="spacing" textLength="92" x="326.5" y="193.2705">dateOfDeath:  Date</text><text fill="#000000" font-family="sans-serif" font-size="11" lengthAdjust="spacing" textLength="97" x="326.5" y="207.1064">placeOfBirth:  String</text><text fill="#000000" font-family="sans-serif" font-size="11" lengthAdjust="spacing" textLength="103" x="326.5" y="220.9424">placeOfDeath:  String</text><text fill="#000000" font-family="sans-serif" font-size="11" lengthAdjust="spacing" textLength="95" x="326.5" y="234.7783">books:  Association</text><line style="stroke:#A80036;stroke-width:1.5;" x1="307.5" x2="442.5" y1="241.1953" y2="241.1953"/><rect codeLine="15" fill="#FEFECE" filter="url(#fcu7tj27mdkks)" height="255.5391" id="Books" style="stroke:#A80036;stroke-width:1.5;" width="166" x="292" y="316"/><ellipse cx="353.25" cy="332" fill="#ADD1B2" rx="11" ry="11" style="stroke:#A80036;stroke-width:1.0;"/><path d="M352.1094,332.7969 L352.1094,335.2969 L356.4375,335.2969 L356.4375,334.375 Q356.4375,333.7656 356.6797,333.5 Q356.9219,333.2344 357.2969,333.2344 Q357.6719,333.2344 357.9063,333.5 Q358.1406,333.7656 358.1406,334.375 L358.1406,337 L350.1406,337 Q349.5156,337 349.2578,336.7656 Q349,336.5313 349,336.1406 Q349,335.7656 349.2656,335.5313 Q349.5313,335.2969 350.1406,335.2969 L350.4063,335.2969 L350.4063,328.6406 L350.1406,328.6406 Q349.5156,328.6406 349.2578,328.4063 Q349,328.1719 349,327.7813 Q349,327.4063 349.2578,327.1719 Q349.5156,326.9375 350.1406,326.9375 L357.7656,326.9375 L357.7656,329.5313 Q357.7656,330.1406 357.5391,330.3984 Q357.3125,330.6563 356.9219,330.6563 Q356.5469,330.6563 356.3125,330.3984 Q356.0781,330.1406 356.0781,329.5313 L356.0781,328.6406 L352.1094,328.6406 L352.1094,331.0938 L353.5938,331.0938 Q353.5938,330.4375 353.7188,330.25 Q353.9844,329.8438 354.4531,329.8438 Q354.8281,329.8438 355.0625,330.1016 Q355.2969,330.3594 355.2969,330.9688 L355.2969,332.9375 Q355.2969,333.4844 355.1719,333.6719 Q354.9063,334.0625 354.4531,334.0625 Q353.9844,334.0625 353.7188,333.6563 Q353.5938,333.4688 353.5938,332.7969 L352.1094,332.7969 Z " fill="#000000"/><text fill="#000000" font-family="sans-serif" font-size="12" lengthAdjust="spacing" textLength="35" x="373.75" y="336.9102">Books</text><line style="stroke:#A80036;stroke-width:1.5;" x1="293" x2="457" y1="348" y2="348"/><text fill="#000000" font-family="sans-serif" font-size="11" lengthAdjust="spacing" textLength="108" x="312" y="363.4189">createdAt:  Timestamp</text><text fill="#000000" font-family="sans-serif" font-size="11" lengthAdjust="spacing" textLength="82" x="312" y="377.2549">createdBy:  User</text><text fill="#000000" font-family="sans-serif" font-size="11" lengthAdjust="spacing" textLength="111" x="312" y="391.0908">modifiedAt:  Timestamp</text><text fill="#000000" font-family="sans-serif" font-size="11" lengthAdjust="spacing" textLength="85" x="312" y="404.9268">modifiedBy:  User</text><ellipse cx="303" cy="414.3438" fill="none" rx="3" ry="3" style="stroke:#038048;stroke-width:1.0;"/><text fill="#000000" font-family="sans-serif" font-size="11" lengthAdjust="spacing" textLength="51" x="312" y="418.7627">ID:  Integer</text><polygon fill="none" points="303,424.1797,299,430.1797,307,430.1797" style="stroke:#1963A0;stroke-width:1.0;"/><text fill="#000000" font-family="sans-serif" font-size="11" lengthAdjust="spacing" textLength="122" x="312" y="432.5986">title: localized  String[111]</text><polygon fill="none" points="303,438.0156,299,444.0156,307,444.0156" style="stroke:#1963A0;stroke-width:1.0;"/><text fill="#000000" font-family="sans-serif" font-size="11" lengthAdjust="spacing" textLength="140" x="312" y="446.4346">descr: localized  String[1111]</text><text fill="#000000" font-family="sans-serif" font-size="11" lengthAdjust="spacing" textLength="97" x="312" y="460.2705">author:  Association</text><text fill="#000000" font-family="sans-serif" font-size="11" lengthAdjust="spacing" textLength="94" x="312" y="474.1064">genre:  Association</text><text fill="#000000" font-family="sans-serif" font-size="11" lengthAdjust="spacing" textLength="68" x="312" y="487.9424">stock:  Integer</text><text fill="#000000" font-family="sans-serif" font-size="11" lengthAdjust="spacing" textLength="70" x="312" y="501.7783">price:  Decimal</text><text fill="#000000" font-family="sans-serif" font-size="11" lengthAdjust="spacing" textLength="98" x="312" y="515.6143">currency:  Currency</text><text fill="#000000" font-family="sans-serif" font-size="11" lengthAdjust="spacing" textLength="96" x="312" y="529.4502">image:  LargeBinary</text><text fill="#000000" font-family="sans-serif" font-size="11" lengthAdjust="spacing" textLength="91" x="312" y="543.2861">texts:  Composition</text><text fill="#000000" font-family="sans-serif" font-size="11" lengthAdjust="spacing" textLength="108" x="312" y="557.1221">localized:  Association</text><line style="stroke:#A80036;stroke-width:1.5;" x1="293" x2="457" y1="563.5391" y2="563.5391"/><rect codeLine="32" fill="#FEFECE" filter="url(#fcu7tj27mdkks)" height="103.3438" id="Books_texts" style="stroke:#A80036;stroke-width:1.5;" width="121" x="194.5" y="653"/><ellipse cx="219.4" cy="669" fill="#ADD1B2" rx="11" ry="11" style="stroke:#A80036;stroke-width:1.0;"/><path d="M218.2594,669.7969 L218.2594,672.2969 L222.5875,672.2969 L222.5875,671.375 Q222.5875,670.7656 222.8297,670.5 Q223.0719,670.2344 223.4469,670.2344 Q223.8219,670.2344 224.0563,670.5 Q224.2906,670.7656 224.2906,671.375 L224.2906,674 L216.2906,674 Q215.6656,674 215.4078,673.7656 Q215.15,673.5313 215.15,673.1406 Q215.15,672.7656 215.4156,672.5313 Q215.6813,672.2969 216.2906,672.2969 L216.5563,672.2969 L216.5563,665.6406 L216.2906,665.6406 Q215.6656,665.6406 215.4078,665.4063 Q215.15,665.1719 215.15,664.7813 Q215.15,664.4063 215.4078,664.1719 Q215.6656,663.9375 216.2906,663.9375 L223.9156,663.9375 L223.9156,666.5313 Q223.9156,667.1406 223.6891,667.3984 Q223.4625,667.6563 223.0719,667.6563 Q222.6969,667.6563 222.4625,667.3984 Q222.2281,667.1406 222.2281,666.5313 L222.2281,665.6406 L218.2594,665.6406 L218.2594,668.0938 L219.7438,668.0938 Q219.7438,667.4375 219.8688,667.25 Q220.1344,666.8438 220.6031,666.8438 Q220.9781,666.8438 221.2125,667.1016 Q221.4469,667.3594 221.4469,667.9688 L221.4469,669.9375 Q221.4469,670.4844 221.3219,670.6719 Q221.0563,671.0625 220.6031,671.0625 Q220.1344,671.0625 219.8688,670.6563 Q219.7438,670.4688 219.7438,669.7969 L218.2594,669.7969 Z " fill="#000000"/><text fill="#000000" font-family="sans-serif" font-size="12" lengthAdjust="spacing" textLength="67" x="235.6" y="673.9102">Books_texts</text><line style="stroke:#A80036;stroke-width:1.5;" x1="195.5" x2="314.5" y1="685" y2="685"/><ellipse cx="205.5" cy="696" fill="none" rx="3" ry="3" style="stroke:#038048;stroke-width:1.0;"/><text fill="#000000" font-family="sans-serif" font-size="11" lengthAdjust="spacing" textLength="83" x="214.5" y="700.4189">locale:  String[14]</text><ellipse cx="205.5" cy="709.8359" fill="none" rx="3" ry="3" style="stroke:#038048;stroke-width:1.0;"/><text fill="#000000" font-family="sans-serif" font-size="11" lengthAdjust="spacing" textLength="51" x="214.5" y="714.2549">ID:  Integer</text><text fill="#000000" font-family="sans-serif" font-size="11" lengthAdjust="spacing" textLength="77" x="214.5" y="728.0908">title:  String[111]</text><text fill="#000000" font-family="sans-serif" font-size="11" lengthAdjust="spacing" textLength="95" x="214.5" y="741.9268">descr:  String[1111]</text><line style="stroke:#A80036;stroke-width:1.5;" x1="195.5" x2="314.5" y1="748.3438" y2="748.3438"/><rect codeLine="38" fill="#FEFECE" filter="url(#fcu7tj27mdkks)" height="214.0313" id="Files" style="stroke:#A80036;stroke-width:1.5;" width="137" x="46.5" y="42"/><ellipse cx="97.25" cy="58" fill="#ADD1B2" rx="11" ry="11" style="stroke:#A80036;stroke-width:1.0;"/><path d="M96.1094,58.7969 L96.1094,61.2969 L100.4375,61.2969 L100.4375,60.375 Q100.4375,59.7656 100.6797,59.5 Q100.9219,59.2344 101.2969,59.2344 Q101.6719,59.2344 101.9063,59.5 Q102.1406,59.7656 102.1406,60.375 L102.1406,63 L94.1406,63 Q93.5156,63 93.2578,62.7656 Q93,62.5313 93,62.1406 Q93,61.7656 93.2656,61.5313 Q93.5313,61.2969 94.1406,61.2969 L94.4063,61.2969 L94.4063,54.6406 L94.1406,54.6406 Q93.5156,54.6406 93.2578,54.4063 Q93,54.1719 93,53.7813 Q93,53.4063 93.2578,53.1719 Q93.5156,52.9375 94.1406,52.9375 L101.7656,52.9375 L101.7656,55.5313 Q101.7656,56.1406 101.5391,56.3984 Q101.3125,56.6563 100.9219,56.6563 Q100.5469,56.6563 100.3125,56.3984 Q100.0781,56.1406 100.0781,55.5313 L100.0781,54.6406 L96.1094,54.6406 L96.1094,57.0938 L97.5938,57.0938 Q97.5938,56.4375 97.7188,56.25 Q97.9844,55.8438 98.4531,55.8438 Q98.8281,55.8438 99.0625,56.1016 Q99.2969,56.3594 99.2969,56.9688 L99.2969,58.9375 Q99.2969,59.4844 99.1719,59.6719 Q98.9063,60.0625 98.4531,60.0625 Q97.9844,60.0625 97.7188,59.6563 Q97.5938,59.4688 97.5938,58.7969 L96.1094,58.7969 Z " fill="#000000"/><text fill="#000000" font-family="sans-serif" font-size="12" lengthAdjust="spacing" textLength="27" x="117.75" y="62.9102">Files</text><line style="stroke:#A80036;stroke-width:1.5;" x1="47.5" x2="182.5" y1="74" y2="74"/><ellipse cx="57.5" cy="85" fill="none" rx="3" ry="3" style="stroke:#038048;stroke-width:1.0;"/><text fill="#000000" font-family="sans-serif" font-size="11" lengthAdjust="spacing" textLength="41" x="66.5" y="89.4189">ID:  UUID</text><text fill="#000000" font-family="sans-serif" font-size="11" lengthAdjust="spacing" textLength="108" x="66.5" y="103.2549">createdAt:  Timestamp</text><text fill="#000000" font-family="sans-serif" font-size="11" lengthAdjust="spacing" textLength="82" x="66.5" y="117.0908">createdBy:  User</text><text fill="#000000" font-family="sans-serif" font-size="11" lengthAdjust="spacing" textLength="111" x="66.5" y="130.9268">modifiedAt:  Timestamp</text><text fill="#000000" font-family="sans-serif" font-size="11" lengthAdjust="spacing" textLength="85" x="66.5" y="144.7627">modifiedBy:  User</text><text fill="#000000" font-family="sans-serif" font-size="11" lengthAdjust="spacing" textLength="71" x="66.5" y="158.5986">title:  String[40]</text><text fill="#000000" font-family="sans-serif" font-size="11" lengthAdjust="spacing" textLength="65" x="66.5" y="172.4346">descr:  String</text><text fill="#000000" font-family="sans-serif" font-size="11" lengthAdjust="spacing" textLength="87" x="66.5" y="186.2705">type:  Association</text><text fill="#000000" font-family="sans-serif" font-size="11" lengthAdjust="spacing" textLength="73" x="66.5" y="200.1064">content:  String</text><text fill="#000000" font-family="sans-serif" font-size="11" lengthAdjust="spacing" textLength="78" x="66.5" y="213.9424">imageUrl:  String</text><text fill="#000000" font-family="sans-serif" font-size="11" lengthAdjust="spacing" textLength="106" x="66.5" y="227.7783">imageUri:  LargeString</text><text fill="#000000" font-family="sans-serif" font-size="11" lengthAdjust="spacing" textLength="89" x="66.5" y="241.6143">imageType:  String</text><line style="stroke:#A80036;stroke-width:1.5;" x1="47.5" x2="182.5" y1="248.0313" y2="248.0313"/><rect codeLine="52" fill="#FEFECE" filter="url(#fcu7tj27mdkks)" height="144.8516" id="Genres" style="stroke:#A80036;stroke-width:1.5;" width="166" x="351" y="632"/><ellipse cx="409.25" cy="648" fill="#ADD1B2" rx="11" ry="11" style="stroke:#A80036;stroke-width:1.0;"/><path d="M408.1094,648.7969 L408.1094,651.2969 L412.4375,651.2969 L412.4375,650.375 Q412.4375,649.7656 412.6797,649.5 Q412.9219,649.2344 413.2969,649.2344 Q413.6719,649.2344 413.9063,649.5 Q414.1406,649.7656 414.1406,650.375 L414.1406,653 L406.1406,653 Q405.5156,653 405.2578,652.7656 Q405,652.5313 405,652.1406 Q405,651.7656 405.2656,651.5313 Q405.5313,651.2969 406.1406,651.2969 L406.4063,651.2969 L406.4063,644.6406 L406.1406,644.6406 Q405.5156,644.6406 405.2578,644.4063 Q405,644.1719 405,643.7813 Q405,643.4063 405.2578,643.1719 Q405.5156,642.9375 406.1406,642.9375 L413.7656,642.9375 L413.7656,645.5313 Q413.7656,646.1406 413.5391,646.3984 Q413.3125,646.6563 412.9219,646.6563 Q412.5469,646.6563 412.3125,646.3984 Q412.0781,646.1406 412.0781,645.5313 L412.0781,644.6406 L408.1094,644.6406 L408.1094,647.0938 L409.5938,647.0938 Q409.5938,646.4375 409.7188,646.25 Q409.9844,645.8438 410.4531,645.8438 Q410.8281,645.8438 411.0625,646.1016 Q411.2969,646.3594 411.2969,646.9688 L411.2969,648.9375 Q411.2969,649.4844 411.1719,649.6719 Q410.9063,650.0625 410.4531,650.0625 Q409.9844,650.0625 409.7188,649.6563 Q409.5938,649.4688 409.5938,648.7969 L408.1094,648.7969 Z " fill="#000000"/><text fill="#000000" font-family="sans-serif" font-size="12" lengthAdjust="spacing" textLength="41" x="429.75" y="652.9102">Genres</text><line style="stroke:#A80036;stroke-width:1.5;" x1="352" x2="516" y1="664" y2="664"/><polygon fill="none" points="362,671,358,677,366,677" style="stroke:#1963A0;stroke-width:1.0;"/><text fill="#000000" font-family="sans-serif" font-size="11" lengthAdjust="spacing" textLength="132" x="371" y="679.4189">name: localized  String[255]</text><polygon fill="none" points="362,684.8359,358,690.8359,366,690.8359" style="stroke:#1963A0;stroke-width:1.0;"/><text fill="#000000" font-family="sans-serif" font-size="11" lengthAdjust="spacing" textLength="140" x="371" y="693.2549">descr: localized  String[1000]</text><ellipse cx="362" cy="702.6719" fill="none" rx="3" ry="3" style="stroke:#038048;stroke-width:1.0;"/><text fill="#000000" font-family="sans-serif" font-size="11" lengthAdjust="spacing" textLength="51" x="371" y="707.0908">ID:  Integer</text><text fill="#000000" font-family="sans-serif" font-size="11" lengthAdjust="spacing" textLength="97" x="371" y="720.9268">parent:  Association</text><text fill="#000000" font-family="sans-serif" font-size="11" lengthAdjust="spacing" textLength="105" x="371" y="734.7627">children:  Composition</text><text fill="#000000" font-family="sans-serif" font-size="11" lengthAdjust="spacing" textLength="91" x="371" y="748.5986">texts:  Composition</text><text fill="#000000" font-family="sans-serif" font-size="11" lengthAdjust="spacing" textLength="108" x="371" y="762.4346">localized:  Association</text><line style="stroke:#A80036;stroke-width:1.5;" x1="352" x2="516" y1="768.8516" y2="768.8516"/><rect codeLine="61" fill="#FEFECE" filter="url(#fcu7tj27mdkks)" height="103.3438" id="Genres_texts" style="stroke:#A80036;stroke-width:1.5;" width="121" x="373.5" y="837"/><ellipse cx="395.7" cy="853" fill="#ADD1B2" rx="11" ry="11" style="stroke:#A80036;stroke-width:1.0;"/><path d="M394.5594,853.7969 L394.5594,856.2969 L398.8875,856.2969 L398.8875,855.375 Q398.8875,854.7656 399.1297,854.5 Q399.3719,854.2344 399.7469,854.2344 Q400.1219,854.2344 400.3563,854.5 Q400.5906,854.7656 400.5906,855.375 L400.5906,858 L392.5906,858 Q391.9656,858 391.7078,857.7656 Q391.45,857.5313 391.45,857.1406 Q391.45,856.7656 391.7156,856.5313 Q391.9813,856.2969 392.5906,856.2969 L392.8563,856.2969 L392.8563,849.6406 L392.5906,849.6406 Q391.9656,849.6406 391.7078,849.4063 Q391.45,849.1719 391.45,848.7813 Q391.45,848.4063 391.7078,848.1719 Q391.9656,847.9375 392.5906,847.9375 L400.2156,847.9375 L400.2156,850.5313 Q400.2156,851.1406 399.9891,851.3984 Q399.7625,851.6563 399.3719,851.6563 Q398.9969,851.6563 398.7625,851.3984 Q398.5281,851.1406 398.5281,850.5313 L398.5281,849.6406 L394.5594,849.6406 L394.5594,852.0938 L396.0438,852.0938 Q396.0438,851.4375 396.1688,851.25 Q396.4344,850.8438 396.9031,850.8438 Q397.2781,850.8438 397.5125,851.1016 Q397.7469,851.3594 397.7469,851.9688 L397.7469,853.9375 Q397.7469,854.4844 397.6219,854.6719 Q397.3563,855.0625 396.9031,855.0625 Q396.4344,855.0625 396.1688,854.6563 Q396.0438,854.4688 396.0438,853.7969 L394.5594,853.7969 Z " fill="#000000"/><text fill="#000000" font-family="sans-serif" font-size="12" lengthAdjust="spacing" textLength="73" x="411.3" y="857.9102">Genres_texts</text><line style="stroke:#A80036;stroke-width:1.5;" x1="374.5" x2="493.5" y1="869" y2="869"/><ellipse cx="384.5" cy="880" fill="none" rx="3" ry="3" style="stroke:#038048;stroke-width:1.0;"/><text fill="#000000" font-family="sans-serif" font-size="11" lengthAdjust="spacing" textLength="83" x="393.5" y="884.4189">locale:  String[14]</text><text fill="#000000" font-family="sans-serif" font-size="11" lengthAdjust="spacing" textLength="87" x="393.5" y="898.2549">name:  String[255]</text><text fill="#000000" font-family="sans-serif" font-size="11" lengthAdjust="spacing" textLength="95" x="393.5" y="912.0908">descr:  String[1000]</text><ellipse cx="384.5" cy="921.5078" fill="none" rx="3" ry="3" style="stroke:#038048;stroke-width:1.0;"/><text fill="#000000" font-family="sans-serif" font-size="11" lengthAdjust="spacing" textLength="51" x="393.5" y="925.9268">ID:  Integer</text><line style="stroke:#A80036;stroke-width:1.5;" x1="374.5" x2="493.5" y1="932.3438" y2="932.3438"/><rect codeLine="67" fill="#FEFECE" filter="url(#fcu7tj27mdkks)" height="117.1797" id="TypeCodes" style="stroke:#A80036;stroke-width:1.5;" width="166" x="32" y="385.5"/><ellipse cx="79.25" cy="401.5" fill="#ADD1B2" rx="11" ry="11" style="stroke:#A80036;stroke-width:1.0;"/><path d="M78.1094,402.2969 L78.1094,404.7969 L82.4375,404.7969 L82.4375,403.875 Q82.4375,403.2656 82.6797,403 Q82.9219,402.7344 83.2969,402.7344 Q83.6719,402.7344 83.9063,403 Q84.1406,403.2656 84.1406,403.875 L84.1406,406.5 L76.1406,406.5 Q75.5156,406.5 75.2578,406.2656 Q75,406.0313 75,405.6406 Q75,405.2656 75.2656,405.0313 Q75.5313,404.7969 76.1406,404.7969 L76.4063,404.7969 L76.4063,398.1406 L76.1406,398.1406 Q75.5156,398.1406 75.2578,397.9063 Q75,397.6719 75,397.2813 Q75,396.9063 75.2578,396.6719 Q75.5156,396.4375 76.1406,396.4375 L83.7656,396.4375 L83.7656,399.0313 Q83.7656,399.6406 83.5391,399.8984 Q83.3125,400.1563 82.9219,400.1563 Q82.5469,400.1563 82.3125,399.8984 Q82.0781,399.6406 82.0781,399.0313 L82.0781,398.1406 L78.1094,398.1406 L78.1094,400.5938 L79.5938,400.5938 Q79.5938,399.9375 79.7188,399.75 Q79.9844,399.3438 80.4531,399.3438 Q80.8281,399.3438 81.0625,399.6016 Q81.2969,399.8594 81.2969,400.4688 L81.2969,402.4375 Q81.2969,402.9844 81.1719,403.1719 Q80.9063,403.5625 80.4531,403.5625 Q79.9844,403.5625 79.7188,403.1563 Q79.5938,402.9688 79.5938,402.2969 L78.1094,402.2969 Z " fill="#000000"/><text fill="#000000" font-family="sans-serif" font-size="12" lengthAdjust="spacing" textLength="63" x="99.75" y="406.4102">TypeCodes</text><line style="stroke:#A80036;stroke-width:1.5;" x1="33" x2="197" y1="417.5" y2="417.5"/><polygon fill="none" points="43,424.5,39,430.5,47,430.5" style="stroke:#1963A0;stroke-width:1.0;"/><text fill="#000000" font-family="sans-serif" font-size="11" lengthAdjust="spacing" textLength="132" x="52" y="432.9189">name: localized  String[255]</text><polygon fill="none" points="43,438.3359,39,444.3359,47,444.3359" style="stroke:#1963A0;stroke-width:1.0;"/><text fill="#000000" font-family="sans-serif" font-size="11" lengthAdjust="spacing" textLength="140" x="52" y="446.7549">descr: localized  String[1000]</text><ellipse cx="43" cy="456.1719" fill="none" rx="3" ry="3" style="stroke:#038048;stroke-width:1.0;"/><text fill="#000000" font-family="sans-serif" font-size="11" lengthAdjust="spacing" textLength="79" x="52" y="460.5908">code:  String[14]</text><text fill="#000000" font-family="sans-serif" font-size="11" lengthAdjust="spacing" textLength="91" x="52" y="474.4268">texts:  Composition</text><text fill="#000000" font-family="sans-serif" font-size="11" lengthAdjust="spacing" textLength="108" x="52" y="488.2627">localized:  Association</text><line style="stroke:#A80036;stroke-width:1.5;" x1="33" x2="197" y1="494.6797" y2="494.6797"/><rect codeLine="74" fill="#FEFECE" filter="url(#fcu7tj27mdkks)" height="103.3438" id="TypeCodes_texts" style="stroke:#A80036;stroke-width:1.5;" width="127" x="32.5" y="653"/><ellipse cx="47.5" cy="669" fill="#ADD1B2" rx="11" ry="11" style="stroke:#A80036;stroke-width:1.0;"/><path d="M46.3594,669.7969 L46.3594,672.2969 L50.6875,672.2969 L50.6875,671.375 Q50.6875,670.7656 50.9297,670.5 Q51.1719,670.2344 51.5469,670.2344 Q51.9219,670.2344 52.1563,670.5 Q52.3906,670.7656 52.3906,671.375 L52.3906,674 L44.3906,674 Q43.7656,674 43.5078,673.7656 Q43.25,673.5313 43.25,673.1406 Q43.25,672.7656 43.5156,672.5313 Q43.7813,672.2969 44.3906,672.2969 L44.6563,672.2969 L44.6563,665.6406 L44.3906,665.6406 Q43.7656,665.6406 43.5078,665.4063 Q43.25,665.1719 43.25,664.7813 Q43.25,664.4063 43.5078,664.1719 Q43.7656,663.9375 44.3906,663.9375 L52.0156,663.9375 L52.0156,666.5313 Q52.0156,667.1406 51.7891,667.3984 Q51.5625,667.6563 51.1719,667.6563 Q50.7969,667.6563 50.5625,667.3984 Q50.3281,667.1406 50.3281,666.5313 L50.3281,665.6406 L46.3594,665.6406 L46.3594,668.0938 L47.8438,668.0938 Q47.8438,667.4375 47.9688,667.25 Q48.2344,666.8438 48.7031,666.8438 Q49.0781,666.8438 49.3125,667.1016 Q49.5469,667.3594 49.5469,667.9688 L49.5469,669.9375 Q49.5469,670.4844 49.4219,670.6719 Q49.1563,671.0625 48.7031,671.0625 Q48.2344,671.0625 47.9688,670.6563 Q47.8438,670.4688 47.8438,669.7969 L46.3594,669.7969 Z " fill="#000000"/><text fill="#000000" font-family="sans-serif" font-size="12" lengthAdjust="spacing" textLength="95" x="61.5" y="673.9102">TypeCodes_texts</text><line style="stroke:#A80036;stroke-width:1.5;" x1="33.5" x2="158.5" y1="685" y2="685"/><ellipse cx="43.5" cy="696" fill="none" rx="3" ry="3" style="stroke:#038048;stroke-width:1.0;"/><text fill="#000000" font-family="sans-serif" font-size="11" lengthAdjust="spacing" textLength="83" x="52.5" y="700.4189">locale:  String[14]</text><text fill="#000000" font-family="sans-serif" font-size="11" lengthAdjust="spacing" textLength="87" x="52.5" y="714.2549">name:  String[255]</text><text fill="#000000" font-family="sans-serif" font-size="11" lengthAdjust="spacing" textLength="95" x="52.5" y="728.0908">descr:  String[1000]</text><ellipse cx="43.5" cy="737.5078" fill="none" rx="3" ry="3" style="stroke:#038048;stroke-width:1.0;"/><text fill="#000000" font-family="sans-serif" font-size="11" lengthAdjust="spacing" textLength="79" x="52.5" y="741.9268">code:  String[14]</text><line style="stroke:#A80036;stroke-width:1.5;" x1="33.5" x2="158.5" y1="748.3438" y2="748.3438"/><rect fill="#FEFECE" filter="url(#fcu7tj27mdkks)" height="48" id="Currencies" style="stroke:#A80036;stroke-width:1.5;" width="93" x="552.5" y="680.5"/><ellipse cx="567.5" cy="696.5" fill="#ADD1B2" rx="11" ry="11" style="stroke:#A80036;stroke-width:1.0;"/><path d="M570.2656,692.375 Q570.4219,692.1563 570.6094,692.0469 Q570.7969,691.9375 571.0156,691.9375 Q571.3906,691.9375 571.625,692.1953 Q571.8594,692.4531 571.8594,693.0625 L571.8594,694.5156 Q571.8594,695.125 571.625,695.3906 Q571.3906,695.6563 571.0156,695.6563 Q570.6719,695.6563 570.4688,695.4531 Q570.2656,695.2656 570.1563,694.75 Q570.1094,694.3906 569.9219,694.2031 Q569.5938,693.8281 568.9844,693.6094 Q568.375,693.3906 567.75,693.3906 Q566.9844,693.3906 566.3516,693.7188 Q565.7188,694.0469 565.2266,694.7969 Q564.7344,695.5469 564.7344,696.5781 L564.7344,697.6719 Q564.7344,698.9063 565.625,699.7266 Q566.5156,700.5469 568.1094,700.5469 Q569.0469,700.5469 569.7031,700.2969 Q570.0938,700.1406 570.5156,699.7031 Q570.7813,699.4375 570.9297,699.3594 Q571.0781,699.2813 571.2813,699.2813 Q571.6094,699.2813 571.8672,699.5391 Q572.125,699.7969 572.125,700.1406 Q572.125,700.4844 571.7813,700.8906 Q571.2813,701.4688 570.4844,701.7969 Q569.4063,702.25 568.1094,702.25 Q566.5938,702.25 565.3906,701.625 Q564.4063,701.125 563.7188,700.0547 Q563.0313,698.9844 563.0313,697.7031 L563.0313,696.5469 Q563.0313,695.2188 563.6484,694.0703 Q564.2656,692.9219 565.3594,692.3047 Q566.4531,691.6875 567.6875,691.6875 Q568.4219,691.6875 569.0703,691.8516 Q569.7188,692.0156 570.2656,692.375 Z " fill="#000000"/><text fill="#000000" font-family="sans-serif" font-size="12" lengthAdjust="spacing" textLength="61" x="581.5" y="701.4102">Currencies</text><line style="stroke:#A80036;stroke-width:1.5;" x1="553.5" x2="644.5" y1="712.5" y2="712.5"/><line style="stroke:#A80036;stroke-width:1.5;" x1="553.5" x2="644.5" y1="720.5" y2="720.5"/><path codeLine="80" d="M362.56,262.42 C362.24,279.9 362.17,298.07 362.35,315.86 " fill="none" id="Authors-backto-Books" style="stroke:#A80036;stroke-width:1.0;"/><polygon fill="#FFFFFF" points="362.86,249.2,358.7226,255.1061,362.5832,261.1968,366.7205,255.2907,362.86,249.2" style="stroke:#A80036;stroke-width:1.0;"/><path codeLine="81" d="M388.49,302.73 C388.55,284.64 388.34,266.43 387.85,249.2 " fill="none" id="Books-backto-Authors" style="stroke:#A80036;stroke-width:1.0;"/><polygon fill="#FFFFFF" points="388.39,315.86,392.436,309.8909,388.4823,303.8604,384.4363,309.8294,388.39,315.86" style="stroke:#A80036;stroke-width:1.0;"/><path codeLine="82" d="M407.01,585.25 C410.67,601.29 414.28,617.1 417.61,631.69 " fill="none" id="Books-backto-Genres" style="stroke:#A80036;stroke-width:1.0;"/><polygon fill="#FFFFFF" points="404.07,572.36,401.5005,579.0978,406.7317,584.0611,409.3012,577.3233,404.07,572.36" style="stroke:#A80036;stroke-width:1.0;"/><path codeLine="83" d="M466.61,550.72 C508.14,598.65 553.55,651.05 578.93,680.34 " fill="none" id="Books-backto-Currencies" style="stroke:#A80036;stroke-width:1.0;"/><polygon fill="#FFFFFF" points="458.09,540.89,459.0004,548.0434,465.9537,549.9543,465.0433,542.8009,458.09,540.89" style="stroke:#A80036;stroke-width:1.0;"/><path codeLine="84" d="M297.58,584.39 C286.39,608.86 276.04,632.84 268.17,652.79 " fill="none" id="Books-backto-Books_texts" style="stroke:#A80036;stroke-width:1.0;"/><polygon fill="#FFFFFF" points="303.13,572.36,296.9809,576.1268,298.0929,583.2517,304.242,579.4848,303.13,572.36" style="stroke:#A80036;stroke-width:1.0;"/><path codeLine="85" d="M323.76,584.39 C312.22,608.86 300.26,632.84 289.52,652.79 " fill="none" id="Books-backto-Books_texts-1" style="stroke:#A80036;stroke-width:1.0;"/><polygon fill="#FFFFFF" points="329.38,572.36,323.218,576.1056,324.3054,583.2342,330.4674,579.4886,329.38,572.36" style="stroke:#A80036;stroke-width:1.0;"/><path codeLine="86" d="M115,269.35 C115,309.34 115,352.14 115,385.24 " fill="none" id="Files-backto-TypeCodes" style="stroke:#A80036;stroke-width:1.0;"/><polygon fill="#FFFFFF" points="115,256.19,111,262.19,115,268.19,119,262.19,115,256.19" style="stroke:#A80036;stroke-width:1.0;"/><path codeLine="87" d="M421.28,790.44 C421.14,806.35 421.53,822.51 422.44,836.96 " fill="none" id="Genres-backto-Genres_texts" style="stroke:#A80036;stroke-width:1.0;"/><polygon fill="#FFFFFF" points="421.51,777.17,417.4051,783.0988,421.299,789.1681,425.4039,783.2394,421.51,777.17" style="stroke:#A80036;stroke-width:1.0;"/><path codeLine="88" d="M447.47,790.44 C447.61,806.35 447.2,822.51 446.24,836.96 " fill="none" id="Genres-backto-Genres_texts-1" style="stroke:#A80036;stroke-width:1.0;"/><polygon fill="#FFFFFF" points="447.23,777.17,443.3428,783.2437,447.4541,789.1679,451.3414,783.0942,447.23,777.17" style="stroke:#A80036;stroke-width:1.0;"/><path codeLine="89" d="M98.29,515.79 C93.12,559.25 89.49,613.87 89.36,652.97 " fill="none" id="TypeCodes-backto-TypeCodes_texts" style="stroke:#A80036;stroke-width:1.0;"/><polygon fill="#FFFFFF" points="99.94,502.69,95.2192,508.1411,98.4353,514.5953,103.1561,509.1442,99.94,502.69" style="stroke:#A80036;stroke-width:1.0;"/><path codeLine="90" d="M121.99,515.79 C120.88,559.25 116.46,613.87 110.68,652.97 " fill="none" id="TypeCodes-backto-TypeCodes_texts-1" style="stroke:#A80036;stroke-width:1.0;"/><polygon fill="#FFFFFF" points="122.22,502.69,118.1151,508.6188,122.009,514.6881,126.1139,508.7594,122.22,502.69" style="stroke:#A80036;stroke-width:1.0;"/></g></svg>