<?xml version="1.0" encoding="UTF-8" standalone="no"?><svg xmlns="http://www.w3.org/2000/svg" xmlns:xlink="http://www.w3.org/1999/xlink" contentScriptType="application/ecmascript" contentStyleType="text/css" height="897px" preserveAspectRatio="none" style="width:949px;height:897px;" version="1.1" viewBox="0 0 949 897" width="949px" zoomAndPan="magnify"><defs/><g><text fill="#000000" font-family="sans-serif" font-size="14" lengthAdjust="spacingAndGlyphs" textLength="75" x="28" y="141.5332">__metadata</text><text fill="#000000" font-family="sans-serif" font-size="14" font-weight="bold" lengthAdjust="spacingAndGlyphs" textLength="41" x="126" y="141.5332">Order</text><line style="stroke:#A80036;stroke-width:1.0;" x1="121" x2="121" y1="125" y2="146.6094"/><line style="stroke:#A80036;stroke-width:1.0;" x1="10" x2="286" y1="146.6094" y2="146.6094"/><text fill="#000000" font-family="sans-serif" font-size="14" lengthAdjust="spacingAndGlyphs" textLength="50" x="40.5" y="163.1426">OrderID</text><text fill="#000000" font-family="sans-serif" font-size="14" lengthAdjust="spacingAndGlyphs" textLength="40" x="126" y="163.1426">10248</text><line style="stroke:#A80036;stroke-width:1.0;" x1="121" x2="121" y1="146.6094" y2="168.2188"/><line style="stroke:#A80036;stroke-width:1.0;" x1="10" x2="286" y1="168.2188" y2="168.2188"/><text fill="#000000" font-family="sans-serif" font-size="14" lengthAdjust="spacingAndGlyphs" textLength="74" x="28.5" y="184.752">CustomerID</text><text fill="#000000" font-family="sans-serif" font-size="14" lengthAdjust="spacingAndGlyphs" textLength="39" x="126" y="184.752">VINET</text><line style="stroke:#A80036;stroke-width:1.0;" x1="121" x2="121" y1="168.2188" y2="189.8281"/><line style="stroke:#A80036;stroke-width:1.0;" x1="10" x2="286" y1="189.8281" y2="189.8281"/><text fill="#000000" font-family="sans-serif" font-size="14" lengthAdjust="spacingAndGlyphs" textLength="75" x="28" y="206.3613">EmployeeID</text><text fill="#000000" font-family="sans-serif" font-size="14" lengthAdjust="spacingAndGlyphs" textLength="8" x="126" y="206.3613">5</text><line style="stroke:#A80036;stroke-width:1.0;" x1="121" x2="121" y1="189.8281" y2="211.4375"/><line style="stroke:#A80036;stroke-width:1.0;" x1="10" x2="286" y1="211.4375" y2="211.4375"/><text fill="#000000" font-family="sans-serif" font-size="14" lengthAdjust="spacingAndGlyphs" textLength="67" x="32" y="227.9707">OrderDate</text><text fill="#000000" font-family="sans-serif" font-size="14" lengthAdjust="spacingAndGlyphs" textLength="144" x="126" y="227.9707">/Date(836438400000)/</text><line style="stroke:#A80036;stroke-width:1.0;" x1="121" x2="121" y1="211.4375" y2="233.0469"/><line style="stroke:#A80036;stroke-width:1.0;" x1="10" x2="286" y1="233.0469" y2="233.0469"/><text fill="#000000" font-family="sans-serif" font-size="14" lengthAdjust="spacingAndGlyphs" textLength="88" x="21.5" y="249.5801">RequiredDate</text><text fill="#000000" font-family="sans-serif" font-size="14" lengthAdjust="spacingAndGlyphs" textLength="144" x="126" y="249.5801">/Date(838857600000)/</text><line style="stroke:#A80036;stroke-width:1.0;" x1="121" x2="121" y1="233.0469" y2="254.6563"/><line style="stroke:#A80036;stroke-width:1.0;" x1="10" x2="286" y1="254.6563" y2="254.6563"/><text fill="#000000" font-family="sans-serif" font-size="14" lengthAdjust="spacingAndGlyphs" textLength="82" x="24.5" y="271.1895">ShippedDate</text><text fill="#000000" font-family="sans-serif" font-size="14" lengthAdjust="spacingAndGlyphs" textLength="144" x="126" y="271.1895">/Date(837475200000)/</text><line style="stroke:#A80036;stroke-width:1.0;" x1="121" x2="121" y1="254.6563" y2="276.2656"/><line style="stroke:#A80036;stroke-width:1.0;" x1="10" x2="286" y1="276.2656" y2="276.2656"/><text fill="#000000" font-family="sans-serif" font-size="14" lengthAdjust="spacingAndGlyphs" textLength="48" x="41.5" y="292.7988">ShipVia</text><text fill="#000000" font-family="sans-serif" font-size="14" lengthAdjust="spacingAndGlyphs" textLength="8" x="126" y="292.7988">3</text><line style="stroke:#A80036;stroke-width:1.0;" x1="121" x2="121" y1="276.2656" y2="297.875"/><line style="stroke:#A80036;stroke-width:1.0;" x1="10" x2="286" y1="297.875" y2="297.875"/><text fill="#000000" font-family="sans-serif" font-size="14" lengthAdjust="spacingAndGlyphs" textLength="45" x="43" y="314.4082">Freight</text><text fill="#000000" font-family="sans-serif" font-size="14" lengthAdjust="spacingAndGlyphs" textLength="52" x="126" y="314.4082">32.3800</text><line style="stroke:#A80036;stroke-width:1.0;" x1="121" x2="121" y1="297.875" y2="319.4844"/><line style="stroke:#A80036;stroke-width:1.0;" x1="10" x2="286" y1="319.4844" y2="319.4844"/><text fill="#000000" font-family="sans-serif" font-size="14" lengthAdjust="spacingAndGlyphs" textLength="64" x="33.5" y="336.0176">ShipName</text><text fill="#000000" font-family="sans-serif" font-size="14" lengthAdjust="spacingAndGlyphs" textLength="155" x="126" y="336.0176">Vins et alcools Chevalier</text><line style="stroke:#A80036;stroke-width:1.0;" x1="121" x2="121" y1="319.4844" y2="341.0938"/><line style="stroke:#A80036;stroke-width:1.0;" x1="10" x2="286" y1="341.0938" y2="341.0938"/><text fill="#000000" font-family="sans-serif" font-size="14" lengthAdjust="spacingAndGlyphs" textLength="80" x="25.5" y="357.627">ShipAddress</text><text fill="#000000" font-family="sans-serif" font-size="14" lengthAdjust="spacingAndGlyphs" textLength="119" x="126" y="357.627">59 rue de l'Abbaye</text><line style="stroke:#A80036;stroke-width:1.0;" x1="121" x2="121" y1="341.0938" y2="362.7031"/><line style="stroke:#A80036;stroke-width:1.0;" x1="10" x2="286" y1="362.7031" y2="362.7031"/><text fill="#000000" font-family="sans-serif" font-size="14" lengthAdjust="spacingAndGlyphs" textLength="52" x="39.5" y="379.2363">ShipCity</text><text fill="#000000" font-family="sans-serif" font-size="14" lengthAdjust="spacingAndGlyphs" textLength="39" x="126" y="379.2363">Reims</text><line style="stroke:#A80036;stroke-width:1.0;" x1="121" x2="121" y1="362.7031" y2="384.3125"/><line style="stroke:#A80036;stroke-width:1.0;" x1="10" x2="286" y1="384.3125" y2="384.3125"/><text fill="#000000" font-family="sans-serif" font-size="14" lengthAdjust="spacingAndGlyphs" textLength="73" x="29" y="400.8457">ShipRegion</text><text fill="#000000" font-family="sans-serif" font-size="14" lengthAdjust="spacingAndGlyphs" textLength="8" x="126" y="400.8457">␀</text><line style="stroke:#A80036;stroke-width:1.0;" x1="121" x2="121" y1="384.3125" y2="405.9219"/><line style="stroke:#A80036;stroke-width:1.0;" x1="10" x2="286" y1="405.9219" y2="405.9219"/><text fill="#000000" font-family="sans-serif" font-size="14" lengthAdjust="spacingAndGlyphs" textLength="101" x="15" y="422.4551">ShipPostalCode</text><text fill="#000000" font-family="sans-serif" font-size="14" lengthAdjust="spacingAndGlyphs" textLength="40" x="126" y="422.4551">51100</text><line style="stroke:#A80036;stroke-width:1.0;" x1="121" x2="121" y1="405.9219" y2="427.5313"/><line style="stroke:#A80036;stroke-width:1.0;" x1="10" x2="286" y1="427.5313" y2="427.5313"/><text fill="#000000" font-family="sans-serif" font-size="14" lengthAdjust="spacingAndGlyphs" textLength="78" x="26.5" y="444.0645">ShipCountry</text><text fill="#000000" font-family="sans-serif" font-size="14" lengthAdjust="spacingAndGlyphs" textLength="45" x="126" y="444.0645">France</text><line style="stroke:#A80036;stroke-width:1.0;" x1="121" x2="121" y1="427.5313" y2="449.1406"/><line style="stroke:#A80036;stroke-width:1.0;" x1="10" x2="286" y1="449.1406" y2="449.1406"/><text fill="#000000" font-family="sans-serif" font-size="14" lengthAdjust="spacingAndGlyphs" textLength="61" x="35" y="465.6738">Customer</text><text fill="#000000" font-family="sans-serif" font-size="14" lengthAdjust="spacingAndGlyphs" textLength="0" x="138" y="465.6738"/><line style="stroke:#A80036;stroke-width:1.0;" x1="121" x2="121" y1="449.1406" y2="470.75"/><line style="stroke:#A80036;stroke-width:1.0;" x1="10" x2="286" y1="470.75" y2="470.75"/><text fill="#000000" font-family="sans-serif" font-size="14" lengthAdjust="spacingAndGlyphs" textLength="62" x="34.5" y="487.2832">Employee</text><text fill="#000000" font-family="sans-serif" font-size="14" lengthAdjust="spacingAndGlyphs" textLength="0" x="138" y="487.2832"/><line style="stroke:#A80036;stroke-width:1.0;" x1="121" x2="121" y1="470.75" y2="492.3594"/><line style="stroke:#A80036;stroke-width:1.0;" x1="10" x2="286" y1="492.3594" y2="492.3594"/><text fill="#000000" font-family="sans-serif" font-size="14" lengthAdjust="spacingAndGlyphs" textLength="88" x="21.5" y="508.8926">Order_Details</text><text fill="#000000" font-family="sans-serif" font-size="14" lengthAdjust="spacingAndGlyphs" textLength="0" x="138" y="508.8926"/><line style="stroke:#A80036;stroke-width:1.0;" x1="121" x2="121" y1="492.3594" y2="513.9688"/><line style="stroke:#A80036;stroke-width:1.0;" x1="10" x2="286" y1="513.9688" y2="513.9688"/><text fill="#000000" font-family="sans-serif" font-size="14" lengthAdjust="spacingAndGlyphs" textLength="49" x="41" y="530.502">Shipper</text><text fill="#000000" font-family="sans-serif" font-size="14" lengthAdjust="spacingAndGlyphs" textLength="0" x="138" y="530.502"/><line style="stroke:#A80036;stroke-width:1.0;" x1="121" x2="121" y1="513.9688" y2="535.5781"/><rect fill="none" height="410.5781" rx="5" ry="5" style="stroke:#A80036;stroke-width:1.5;" width="276" x="10" y="125"/><text fill="#000000" font-family="sans-serif" font-size="14" lengthAdjust="spacingAndGlyphs" textLength="75" x="366.5" y="26.5332">__metadata</text><text fill="#000000" font-family="sans-serif" font-size="14" font-weight="bold" lengthAdjust="spacingAndGlyphs" textLength="68" x="490" y="26.5332">Customer</text><line style="stroke:#A80036;stroke-width:1.0;" x1="485" x2="485" y1="10" y2="31.6094"/><line style="stroke:#A80036;stroke-width:1.0;" x1="323" x2="650" y1="31.6094" y2="31.6094"/><text fill="#000000" font-family="sans-serif" font-size="14" lengthAdjust="spacingAndGlyphs" textLength="74" x="367" y="48.1426">CustomerID</text><text fill="#000000" font-family="sans-serif" font-size="14" lengthAdjust="spacingAndGlyphs" textLength="39" x="490" y="48.1426">VINET</text><line style="stroke:#A80036;stroke-width:1.0;" x1="485" x2="485" y1="31.6094" y2="53.2188"/><line style="stroke:#A80036;stroke-width:1.0;" x1="323" x2="650" y1="53.2188" y2="53.2188"/><text fill="#000000" font-family="sans-serif" font-size="14" lengthAdjust="spacingAndGlyphs" textLength="96" x="356" y="69.752">CompanyName</text><text fill="#000000" font-family="sans-serif" font-size="14" lengthAdjust="spacingAndGlyphs" textLength="155" x="490" y="69.752">Vins et alcools Chevalier</text><line style="stroke:#A80036;stroke-width:1.0;" x1="485" x2="485" y1="53.2188" y2="74.8281"/><line style="stroke:#A80036;stroke-width:1.0;" x1="323" x2="650" y1="74.8281" y2="74.8281"/><text fill="#000000" font-family="sans-serif" font-size="14" lengthAdjust="spacingAndGlyphs" textLength="85" x="361.5" y="91.3613">ContactName</text><text fill="#000000" font-family="sans-serif" font-size="14" lengthAdjust="spacingAndGlyphs" textLength="77" x="490" y="91.3613">Paul Henriot</text><line style="stroke:#A80036;stroke-width:1.0;" x1="485" x2="485" y1="74.8281" y2="96.4375"/><line style="stroke:#A80036;stroke-width:1.0;" x1="323" x2="650" y1="96.4375" y2="96.4375"/><text fill="#000000" font-family="sans-serif" font-size="14" lengthAdjust="spacingAndGlyphs" textLength="76" x="366" y="112.9707">ContactTitle</text><text fill="#000000" font-family="sans-serif" font-size="14" lengthAdjust="spacingAndGlyphs" textLength="130" x="490" y="112.9707">Accounting Manager</text><line style="stroke:#A80036;stroke-width:1.0;" x1="485" x2="485" y1="96.4375" y2="118.0469"/><line style="stroke:#A80036;stroke-width:1.0;" x1="323" x2="650" y1="118.0469" y2="118.0469"/><text fill="#000000" font-family="sans-serif" font-size="14" lengthAdjust="spacingAndGlyphs" textLength="52" x="378" y="134.5801">Address</text><text fill="#000000" font-family="sans-serif" font-size="14" lengthAdjust="spacingAndGlyphs" textLength="119" x="490" y="134.5801">59 rue de l'Abbaye</text><line style="stroke:#A80036;stroke-width:1.0;" x1="485" x2="485" y1="118.0469" y2="139.6563"/><line style="stroke:#A80036;stroke-width:1.0;" x1="323" x2="650" y1="139.6563" y2="139.6563"/><text fill="#000000" font-family="sans-serif" font-size="14" lengthAdjust="spacingAndGlyphs" textLength="24" x="392" y="156.1895">City</text><text fill="#000000" font-family="sans-serif" font-size="14" lengthAdjust="spacingAndGlyphs" textLength="39" x="490" y="156.1895">Reims</text><line style="stroke:#A80036;stroke-width:1.0;" x1="485" x2="485" y1="139.6563" y2="161.2656"/><line style="stroke:#A80036;stroke-width:1.0;" x1="323" x2="650" y1="161.2656" y2="161.2656"/><text fill="#000000" font-family="sans-serif" font-size="14" lengthAdjust="spacingAndGlyphs" textLength="45" x="381.5" y="177.7988">Region</text><text fill="#000000" font-family="sans-serif" font-size="14" lengthAdjust="spacingAndGlyphs" textLength="8" x="490" y="177.7988">␀</text><line style="stroke:#A80036;stroke-width:1.0;" x1="485" x2="485" y1="161.2656" y2="182.875"/><line style="stroke:#A80036;stroke-width:1.0;" x1="323" x2="650" y1="182.875" y2="182.875"/><text fill="#000000" font-family="sans-serif" font-size="14" lengthAdjust="spacingAndGlyphs" textLength="73" x="367.5" y="199.4082">PostalCode</text><text fill="#000000" font-family="sans-serif" font-size="14" lengthAdjust="spacingAndGlyphs" textLength="40" x="490" y="199.4082">51100</text><line style="stroke:#A80036;stroke-width:1.0;" x1="485" x2="485" y1="182.875" y2="204.4844"/><line style="stroke:#A80036;stroke-width:1.0;" x1="323" x2="650" y1="204.4844" y2="204.4844"/><text fill="#000000" font-family="sans-serif" font-size="14" lengthAdjust="spacingAndGlyphs" textLength="50" x="379" y="221.0176">Country</text><text fill="#000000" font-family="sans-serif" font-size="14" lengthAdjust="spacingAndGlyphs" textLength="45" x="490" y="221.0176">France</text><line style="stroke:#A80036;stroke-width:1.0;" x1="485" x2="485" y1="204.4844" y2="226.0938"/><line style="stroke:#A80036;stroke-width:1.0;" x1="323" x2="650" y1="226.0938" y2="226.0938"/><text fill="#000000" font-family="sans-serif" font-size="14" lengthAdjust="spacingAndGlyphs" textLength="41" x="383.5" y="242.627">Phone</text><text fill="#000000" font-family="sans-serif" font-size="14" lengthAdjust="spacingAndGlyphs" textLength="76" x="490" y="242.627">26.47.15.10</text><line style="stroke:#A80036;stroke-width:1.0;" x1="485" x2="485" y1="226.0938" y2="247.7031"/><line style="stroke:#A80036;stroke-width:1.0;" x1="323" x2="650" y1="247.7031" y2="247.7031"/><text fill="#000000" font-family="sans-serif" font-size="14" lengthAdjust="spacingAndGlyphs" textLength="23" x="392.5" y="264.2363">Fax</text><text fill="#000000" font-family="sans-serif" font-size="14" lengthAdjust="spacingAndGlyphs" textLength="76" x="490" y="264.2363">26.47.15.11</text><line style="stroke:#A80036;stroke-width:1.0;" x1="485" x2="485" y1="247.7031" y2="269.3125"/><line style="stroke:#A80036;stroke-width:1.0;" x1="323" x2="650" y1="269.3125" y2="269.3125"/><text fill="#000000" font-family="sans-serif" font-size="14" lengthAdjust="spacingAndGlyphs" textLength="44" x="382" y="285.8457">Orders</text><text fill="#000000" font-family="sans-serif" font-size="14" lengthAdjust="spacingAndGlyphs" textLength="0" x="502" y="285.8457"/><line style="stroke:#A80036;stroke-width:1.0;" x1="485" x2="485" y1="269.3125" y2="290.9219"/><line style="stroke:#A80036;stroke-width:1.0;" x1="323" x2="650" y1="290.9219" y2="290.9219"/><text fill="#000000" font-family="sans-serif" font-size="14" lengthAdjust="spacingAndGlyphs" textLength="152" x="328" y="307.4551">CustomerDemographics</text><text fill="#000000" font-family="sans-serif" font-size="14" lengthAdjust="spacingAndGlyphs" textLength="0" x="502" y="307.4551"/><line style="stroke:#A80036;stroke-width:1.0;" x1="485" x2="485" y1="290.9219" y2="312.5313"/><rect fill="none" height="302.5313" rx="5" ry="5" style="stroke:#A80036;stroke-width:1.5;" width="327" x="323" y="10"/><rect fill="none" height="15" rx="5" ry="5" style="stroke:#A80036;stroke-width:1.5;" width="30" x="767" y="260.5"/><rect fill="none" height="15" rx="5" ry="5" style="stroke:#A80036;stroke-width:1.5;" width="30" x="767" y="294.5"/><rect fill="none" height="15" rx="5" ry="5" style="stroke:#A80036;stroke-width:1.5;" width="30" x="474.5" y="455.5"/><text fill="#000000" font-family="sans-serif" font-size="14" lengthAdjust="spacingAndGlyphs" textLength="0" x="491.5" y="506.5332"/><line style="stroke:#A80036;stroke-width:1.0;" x1="474.5" x2="496.5" y1="511.6094" y2="511.6094"/><text fill="#000000" font-family="sans-serif" font-size="14" lengthAdjust="spacingAndGlyphs" textLength="0" x="491.5" y="528.1426"/><line style="stroke:#A80036;stroke-width:1.0;" x1="474.5" x2="496.5" y1="533.2188" y2="533.2188"/><text fill="#000000" font-family="sans-serif" font-size="14" lengthAdjust="spacingAndGlyphs" textLength="0" x="491.5" y="549.752"/><rect fill="none" height="64.8281" rx="5" ry="5" style="stroke:#A80036;stroke-width:1.5;" width="22" x="474.5" y="490"/><text fill="#000000" font-family="sans-serif" font-size="14" lengthAdjust="spacingAndGlyphs" textLength="75" x="692" y="345.5332">__metadata</text><text fill="#000000" font-family="sans-serif" font-size="14" font-weight="bold" lengthAdjust="spacingAndGlyphs" textLength="89" x="777" y="345.5332">Order_Detail</text><line style="stroke:#A80036;stroke-width:1.0;" x1="772" x2="772" y1="329" y2="350.6094"/><line style="stroke:#A80036;stroke-width:1.0;" x1="687" x2="871" y1="350.6094" y2="350.6094"/><text fill="#000000" font-family="sans-serif" font-size="14" lengthAdjust="spacingAndGlyphs" textLength="50" x="704.5" y="367.1426">OrderID</text><text fill="#000000" font-family="sans-serif" font-size="14" lengthAdjust="spacingAndGlyphs" textLength="40" x="777" y="367.1426">10248</text><line style="stroke:#A80036;stroke-width:1.0;" x1="772" x2="772" y1="350.6094" y2="372.2188"/><line style="stroke:#A80036;stroke-width:1.0;" x1="687" x2="871" y1="372.2188" y2="372.2188"/><text fill="#000000" font-family="sans-serif" font-size="14" lengthAdjust="spacingAndGlyphs" textLength="62" x="698.5" y="388.752">ProductID</text><text fill="#000000" font-family="sans-serif" font-size="14" lengthAdjust="spacingAndGlyphs" textLength="16" x="777" y="388.752">11</text><line style="stroke:#A80036;stroke-width:1.0;" x1="772" x2="772" y1="372.2188" y2="393.8281"/><line style="stroke:#A80036;stroke-width:1.0;" x1="687" x2="871" y1="393.8281" y2="393.8281"/><text fill="#000000" font-family="sans-serif" font-size="14" lengthAdjust="spacingAndGlyphs" textLength="56" x="701.5" y="410.3613">UnitPrice</text><text fill="#000000" font-family="sans-serif" font-size="14" lengthAdjust="spacingAndGlyphs" textLength="52" x="777" y="410.3613">14.0000</text><line style="stroke:#A80036;stroke-width:1.0;" x1="772" x2="772" y1="393.8281" y2="415.4375"/><line style="stroke:#A80036;stroke-width:1.0;" x1="687" x2="871" y1="415.4375" y2="415.4375"/><text fill="#000000" font-family="sans-serif" font-size="14" lengthAdjust="spacingAndGlyphs" textLength="53" x="703" y="431.9707">Quantity</text><text fill="#000000" font-family="sans-serif" font-size="14" lengthAdjust="spacingAndGlyphs" textLength="16" x="777" y="431.9707">12</text><line style="stroke:#A80036;stroke-width:1.0;" x1="772" x2="772" y1="415.4375" y2="437.0469"/><line style="stroke:#A80036;stroke-width:1.0;" x1="687" x2="871" y1="437.0469" y2="437.0469"/><text fill="#000000" font-family="sans-serif" font-size="14" lengthAdjust="spacingAndGlyphs" textLength="55" x="702" y="453.5801">Discount</text><text fill="#000000" font-family="sans-serif" font-size="14" lengthAdjust="spacingAndGlyphs" textLength="8" x="777" y="453.5801">0</text><line style="stroke:#A80036;stroke-width:1.0;" x1="772" x2="772" y1="437.0469" y2="458.6563"/><line style="stroke:#A80036;stroke-width:1.0;" x1="687" x2="871" y1="458.6563" y2="458.6563"/><text fill="#000000" font-family="sans-serif" font-size="14" lengthAdjust="spacingAndGlyphs" textLength="37" x="711" y="475.1895">Order</text><text fill="#000000" font-family="sans-serif" font-size="14" lengthAdjust="spacingAndGlyphs" textLength="0" x="789" y="475.1895"/><line style="stroke:#A80036;stroke-width:1.0;" x1="772" x2="772" y1="458.6563" y2="480.2656"/><line style="stroke:#A80036;stroke-width:1.0;" x1="687" x2="871" y1="480.2656" y2="480.2656"/><text fill="#000000" font-family="sans-serif" font-size="14" lengthAdjust="spacingAndGlyphs" textLength="49" x="705" y="496.7988">Product</text><text fill="#000000" font-family="sans-serif" font-size="14" lengthAdjust="spacingAndGlyphs" textLength="0" x="789" y="496.7988"/><line style="stroke:#A80036;stroke-width:1.0;" x1="772" x2="772" y1="480.2656" y2="501.875"/><rect fill="none" height="172.875" rx="5" ry="5" style="stroke:#A80036;stroke-width:1.5;" width="184" x="687" y="329"/><rect fill="none" height="15" rx="5" ry="5" style="stroke:#A80036;stroke-width:1.5;" width="30" x="908" y="455.5"/><rect fill="none" height="15" rx="5" ry="5" style="stroke:#A80036;stroke-width:1.5;" width="30" x="908" y="489.5"/><text fill="#000000" font-family="sans-serif" font-size="14" lengthAdjust="spacingAndGlyphs" textLength="75" x="692" y="536.5332">__metadata</text><text fill="#000000" font-family="sans-serif" font-size="14" font-weight="bold" lengthAdjust="spacingAndGlyphs" textLength="89" x="777" y="536.5332">Order_Detail</text><line style="stroke:#A80036;stroke-width:1.0;" x1="772" x2="772" y1="520" y2="541.6094"/><line style="stroke:#A80036;stroke-width:1.0;" x1="687" x2="871" y1="541.6094" y2="541.6094"/><text fill="#000000" font-family="sans-serif" font-size="14" lengthAdjust="spacingAndGlyphs" textLength="50" x="704.5" y="558.1426">OrderID</text><text fill="#000000" font-family="sans-serif" font-size="14" lengthAdjust="spacingAndGlyphs" textLength="40" x="777" y="558.1426">10248</text><line style="stroke:#A80036;stroke-width:1.0;" x1="772" x2="772" y1="541.6094" y2="563.2188"/><line style="stroke:#A80036;stroke-width:1.0;" x1="687" x2="871" y1="563.2188" y2="563.2188"/><text fill="#000000" font-family="sans-serif" font-size="14" lengthAdjust="spacingAndGlyphs" textLength="62" x="698.5" y="579.752">ProductID</text><text fill="#000000" font-family="sans-serif" font-size="14" lengthAdjust="spacingAndGlyphs" textLength="16" x="777" y="579.752">42</text><line style="stroke:#A80036;stroke-width:1.0;" x1="772" x2="772" y1="563.2188" y2="584.8281"/><line style="stroke:#A80036;stroke-width:1.0;" x1="687" x2="871" y1="584.8281" y2="584.8281"/><text fill="#000000" font-family="sans-serif" font-size="14" lengthAdjust="spacingAndGlyphs" textLength="56" x="701.5" y="601.3613">UnitPrice</text><text fill="#000000" font-family="sans-serif" font-size="14" lengthAdjust="spacingAndGlyphs" textLength="44" x="777" y="601.3613">9.8000</text><line style="stroke:#A80036;stroke-width:1.0;" x1="772" x2="772" y1="584.8281" y2="606.4375"/><line style="stroke:#A80036;stroke-width:1.0;" x1="687" x2="871" y1="606.4375" y2="606.4375"/><text fill="#000000" font-family="sans-serif" font-size="14" lengthAdjust="spacingAndGlyphs" textLength="53" x="703" y="622.9707">Quantity</text><text fill="#000000" font-family="sans-serif" font-size="14" lengthAdjust="spacingAndGlyphs" textLength="16" x="777" y="622.9707">10</text><line style="stroke:#A80036;stroke-width:1.0;" x1="772" x2="772" y1="606.4375" y2="628.0469"/><line style="stroke:#A80036;stroke-width:1.0;" x1="687" x2="871" y1="628.0469" y2="628.0469"/><text fill="#000000" font-family="sans-serif" font-size="14" lengthAdjust="spacingAndGlyphs" textLength="55" x="702" y="644.5801">Discount</text><text fill="#000000" font-family="sans-serif" font-size="14" lengthAdjust="spacingAndGlyphs" textLength="8" x="777" y="644.5801">0</text><line style="stroke:#A80036;stroke-width:1.0;" x1="772" x2="772" y1="628.0469" y2="649.6563"/><line style="stroke:#A80036;stroke-width:1.0;" x1="687" x2="871" y1="649.6563" y2="649.6563"/><text fill="#000000" font-family="sans-serif" font-size="14" lengthAdjust="spacingAndGlyphs" textLength="37" x="711" y="666.1895">Order</text><text fill="#000000" font-family="sans-serif" font-size="14" lengthAdjust="spacingAndGlyphs" textLength="0" x="789" y="666.1895"/><line style="stroke:#A80036;stroke-width:1.0;" x1="772" x2="772" y1="649.6563" y2="671.2656"/><line style="stroke:#A80036;stroke-width:1.0;" x1="687" x2="871" y1="671.2656" y2="671.2656"/><text fill="#000000" font-family="sans-serif" font-size="14" lengthAdjust="spacingAndGlyphs" textLength="49" x="705" y="687.7988">Product</text><text fill="#000000" font-family="sans-serif" font-size="14" lengthAdjust="spacingAndGlyphs" textLength="0" x="789" y="687.7988"/><line style="stroke:#A80036;stroke-width:1.0;" x1="772" x2="772" y1="671.2656" y2="692.875"/><rect fill="none" height="172.875" rx="5" ry="5" style="stroke:#A80036;stroke-width:1.5;" width="184" x="687" y="520"/><rect fill="none" height="15" rx="5" ry="5" style="stroke:#A80036;stroke-width:1.5;" width="30" x="908" y="646.5"/><rect fill="none" height="15" rx="5" ry="5" style="stroke:#A80036;stroke-width:1.5;" width="30" x="908" y="680.5"/><text fill="#000000" font-family="sans-serif" font-size="14" lengthAdjust="spacingAndGlyphs" textLength="75" x="692" y="727.5332">__metadata</text><text fill="#000000" font-family="sans-serif" font-size="14" font-weight="bold" lengthAdjust="spacingAndGlyphs" textLength="89" x="777" y="727.5332">Order_Detail</text><line style="stroke:#A80036;stroke-width:1.0;" x1="772" x2="772" y1="711" y2="732.6094"/><line style="stroke:#A80036;stroke-width:1.0;" x1="687" x2="871" y1="732.6094" y2="732.6094"/><text fill="#000000" font-family="sans-serif" font-size="14" lengthAdjust="spacingAndGlyphs" textLength="50" x="704.5" y="749.1426">OrderID</text><text fill="#000000" font-family="sans-serif" font-size="14" lengthAdjust="spacingAndGlyphs" textLength="40" x="777" y="749.1426">10248</text><line style="stroke:#A80036;stroke-width:1.0;" x1="772" x2="772" y1="732.6094" y2="754.2188"/><line style="stroke:#A80036;stroke-width:1.0;" x1="687" x2="871" y1="754.2188" y2="754.2188"/><text fill="#000000" font-family="sans-serif" font-size="14" lengthAdjust="spacingAndGlyphs" textLength="62" x="698.5" y="770.752">ProductID</text><text fill="#000000" font-family="sans-serif" font-size="14" lengthAdjust="spacingAndGlyphs" textLength="16" x="777" y="770.752">72</text><line style="stroke:#A80036;stroke-width:1.0;" x1="772" x2="772" y1="754.2188" y2="775.8281"/><line style="stroke:#A80036;stroke-width:1.0;" x1="687" x2="871" y1="775.8281" y2="775.8281"/><text fill="#000000" font-family="sans-serif" font-size="14" lengthAdjust="spacingAndGlyphs" textLength="56" x="701.5" y="792.3613">UnitPrice</text><text fill="#000000" font-family="sans-serif" font-size="14" lengthAdjust="spacingAndGlyphs" textLength="52" x="777" y="792.3613">34.8000</text><line style="stroke:#A80036;stroke-width:1.0;" x1="772" x2="772" y1="775.8281" y2="797.4375"/><line style="stroke:#A80036;stroke-width:1.0;" x1="687" x2="871" y1="797.4375" y2="797.4375"/><text fill="#000000" font-family="sans-serif" font-size="14" lengthAdjust="spacingAndGlyphs" textLength="53" x="703" y="813.9707">Quantity</text><text fill="#000000" font-family="sans-serif" font-size="14" lengthAdjust="spacingAndGlyphs" textLength="8" x="777" y="813.9707">5</text><line style="stroke:#A80036;stroke-width:1.0;" x1="772" x2="772" y1="797.4375" y2="819.0469"/><line style="stroke:#A80036;stroke-width:1.0;" x1="687" x2="871" y1="819.0469" y2="819.0469"/><text fill="#000000" font-family="sans-serif" font-size="14" lengthAdjust="spacingAndGlyphs" textLength="55" x="702" y="835.5801">Discount</text><text fill="#000000" font-family="sans-serif" font-size="14" lengthAdjust="spacingAndGlyphs" textLength="8" x="777" y="835.5801">0</text><line style="stroke:#A80036;stroke-width:1.0;" x1="772" x2="772" y1="819.0469" y2="840.6563"/><line style="stroke:#A80036;stroke-width:1.0;" x1="687" x2="871" y1="840.6563" y2="840.6563"/><text fill="#000000" font-family="sans-serif" font-size="14" lengthAdjust="spacingAndGlyphs" textLength="37" x="711" y="857.1895">Order</text><text fill="#000000" font-family="sans-serif" font-size="14" lengthAdjust="spacingAndGlyphs" textLength="0" x="789" y="857.1895"/><line style="stroke:#A80036;stroke-width:1.0;" x1="772" x2="772" y1="840.6563" y2="862.2656"/><line style="stroke:#A80036;stroke-width:1.0;" x1="687" x2="871" y1="862.2656" y2="862.2656"/><text fill="#000000" font-family="sans-serif" font-size="14" lengthAdjust="spacingAndGlyphs" textLength="49" x="705" y="878.7988">Product</text><text fill="#000000" font-family="sans-serif" font-size="14" lengthAdjust="spacingAndGlyphs" textLength="0" x="789" y="878.7988"/><line style="stroke:#A80036;stroke-width:1.0;" x1="772" x2="772" y1="862.2656" y2="883.875"/><rect fill="none" height="172.875" rx="5" ry="5" style="stroke:#A80036;stroke-width:1.5;" width="184" x="687" y="711"/><rect fill="none" height="15" rx="5" ry="5" style="stroke:#A80036;stroke-width:1.5;" width="30" x="908" y="837.5"/><rect fill="none" height="15" rx="5" ry="5" style="stroke:#A80036;stroke-width:1.5;" width="30" x="908" y="871.5"/><rect fill="none" height="15" rx="5" ry="5" style="stroke:#A80036;stroke-width:1.5;" width="30" x="474.5" y="573.5"/><path d="M638,280.5 L651,280.5 C689.7518,280.5 734.8385,274.9374 759.6704,271.3867 " fill="none" style="stroke:#A80036;stroke-width:1.0;stroke-dasharray:3.0,3.0;"/><path d="M760.1168,274.4292 L761.9523,271.0519 L759.224,268.3442 L767.2767,270.2706 L760.1168,274.4292 " fill="#A80036" style="stroke:#A80036;stroke-width:1.0;"/><ellipse cx="638" cy="280.5" fill="#A80036" rx="3" ry="3" style="stroke:#A80036;stroke-width:1.0;"/><path d="M638,302.5 L651,302.5 C689.5813,302.5 734.7297,302.5 759.6183,302.5 " fill="none" style="stroke:#A80036;stroke-width:1.0;stroke-dasharray:3.0,3.0;"/><path d="M759.6183,305.55 L761.9058,302.5 L759.6183,299.45 L767.2433,302.5 L759.6183,305.55 " fill="#A80036" style="stroke:#A80036;stroke-width:1.0;"/><ellipse cx="638" cy="302.5" fill="#A80036" rx="3" ry="3" style="stroke:#A80036;stroke-width:1.0;"/><path d="M274,460.5 L287,460.5 C325.283,460.5 372.6232,391.7123 411.5249,320.1243 " fill="none" style="stroke:#A80036;stroke-width:1.0;stroke-dasharray:3.0,3.0;"/><path d="M414.2987,321.6194 L412.6462,318.044 L408.7511,318.6292 L415.2626,313.1899 L414.2987,321.6194 " fill="#A80036" style="stroke:#A80036;stroke-width:1.0;"/><ellipse cx="274" cy="460.5" fill="#A80036" rx="3" ry="3" style="stroke:#A80036;stroke-width:1.0;"/><path d="M274,481.5 L287,481.5 C321.8794,481.5 424.7537,470.3932 467.2778,465.6289 " fill="none" style="stroke:#A80036;stroke-width:1.0;stroke-dasharray:3.0,3.0;"/><path d="M467.623,468.6937 L469.5764,465.3699 L466.9325,462.564 L474.9399,464.7657 L467.623,468.6937 " fill="#A80036" style="stroke:#A80036;stroke-width:1.0;"/><ellipse cx="274" cy="481.5" fill="#A80036" rx="3" ry="3" style="stroke:#A80036;stroke-width:1.0;"/><path d="M859,469.5 L872,469.5 C881.5459,469.5 892.0864,468.2925 900.808,466.9609 " fill="none" style="stroke:#A80036;stroke-width:1.0;stroke-dasharray:3.0,3.0;"/><path d="M901.2987,469.9279 L903.0333,466.5929 L900.3173,463.9939 L908.2256,465.7342 L901.2987,469.9279 " fill="#A80036" style="stroke:#A80036;stroke-width:1.0;"/><ellipse cx="859" cy="469.5" fill="#A80036" rx="3" ry="3" style="stroke:#A80036;stroke-width:1.0;"/><path d="M859,491.5 L872,491.5 C881.5459,491.5 892.0864,492.7075 900.808,494.0391 " fill="none" style="stroke:#A80036;stroke-width:1.0;stroke-dasharray:3.0,3.0;"/><path d="M900.3173,497.0061 L903.0333,494.4071 L901.2987,491.0721 L908.2256,495.2658 L900.3173,497.0061 " fill="#A80036" style="stroke:#A80036;stroke-width:1.0;"/><ellipse cx="859" cy="491.5" fill="#A80036" rx="3" ry="3" style="stroke:#A80036;stroke-width:1.0;"/><path d="M487,500.5 L500,500.5 C567.6972,500.5 586.3579,500.6075 651,480.5 C660.7364,477.4714 670.6277,473.7434 680.3741,469.6181 " fill="none" style="stroke:#A80036;stroke-width:1.0;stroke-dasharray:3.0,3.0;"/><path d="M681.602,472.4449 L682.4942,468.6971 L679.1462,466.7913 L687.4411,466.5483 L681.602,472.4449 " fill="#A80036" style="stroke:#A80036;stroke-width:1.0;"/><ellipse cx="487" cy="500.5" fill="#A80036" rx="3" ry="3" style="stroke:#A80036;stroke-width:1.0;"/><path d="M859,660.5 L872,660.5 C881.5459,660.5 892.0864,659.2925 900.808,657.9609 " fill="none" style="stroke:#A80036;stroke-width:1.0;stroke-dasharray:3.0,3.0;"/><path d="M901.2987,660.9279 L903.0333,657.5929 L900.3173,654.9939 L908.2256,656.7342 L901.2987,660.9279 " fill="#A80036" style="stroke:#A80036;stroke-width:1.0;"/><ellipse cx="859" cy="660.5" fill="#A80036" rx="3" ry="3" style="stroke:#A80036;stroke-width:1.0;"/><path d="M859,682.5 L872,682.5 C881.5459,682.5 892.0864,683.7075 900.808,685.0391 " fill="none" style="stroke:#A80036;stroke-width:1.0;stroke-dasharray:3.0,3.0;"/><path d="M900.3173,688.0061 L903.0333,685.4071 L901.2987,682.0721 L908.2256,686.2658 L900.3173,688.0061 " fill="#A80036" style="stroke:#A80036;stroke-width:1.0;"/><ellipse cx="859" cy="682.5" fill="#A80036" rx="3" ry="3" style="stroke:#A80036;stroke-width:1.0;"/><path d="M487,521.5 L500,521.5 C561.6797,521.5 627.8279,540.8081 680.1743,561.0195 " fill="none" style="stroke:#A80036;stroke-width:1.0;stroke-dasharray:3.0,3.0;"/><path d="M679.0319,563.9366 L682.3621,561.8763 L681.3167,558.1024 L687.4671,563.8755 L679.0319,563.9366 " fill="#A80036" style="stroke:#A80036;stroke-width:1.0;"/><ellipse cx="487" cy="521.5" fill="#A80036" rx="3" ry="3" style="stroke:#A80036;stroke-width:1.0;"/><path d="M859,851.5 L872,851.5 C881.5459,851.5 892.0864,850.2925 900.808,848.9609 " fill="none" style="stroke:#A80036;stroke-width:1.0;stroke-dasharray:3.0,3.0;"/><path d="M901.2987,851.9279 L903.0333,848.5929 L900.3173,845.9939 L908.2256,847.7342 L901.2987,851.9279 " fill="#A80036" style="stroke:#A80036;stroke-width:1.0;"/><ellipse cx="859" cy="851.5" fill="#A80036" rx="3" ry="3" style="stroke:#A80036;stroke-width:1.0;"/><path d="M859,873.5 L872,873.5 C881.5459,873.5 892.0864,874.7075 900.808,876.0391 " fill="none" style="stroke:#A80036;stroke-width:1.0;stroke-dasharray:3.0,3.0;"/><path d="M900.3173,879.0061 L903.0333,876.4071 L901.2987,873.0721 L908.2256,877.2658 L900.3173,879.0061 " fill="#A80036" style="stroke:#A80036;stroke-width:1.0;"/><ellipse cx="859" cy="873.5" fill="#A80036" rx="3" ry="3" style="stroke:#A80036;stroke-width:1.0;"/><path d="M487,544.5 L500,544.5 C567.6972,544.5 600.2681,519.6761 651,564.5 C698.5011,606.4693 656.0062,647.2084 687,702.5 C687.3429,703.1117 687.6907,703.7224 688.0432,704.332 " fill="none" style="stroke:#A80036;stroke-width:1.0;stroke-dasharray:3.0,3.0;"/><path d="M685.4487,705.9121 L689.2283,706.2779 L690.6377,702.7519 L691.9934,710.8182 L685.4487,705.9121 " fill="#A80036" style="stroke:#A80036;stroke-width:1.0;"/><ellipse cx="487" cy="544.5" fill="#A80036" rx="3" ry="3" style="stroke:#A80036;stroke-width:1.0;"/><path d="M274,503.5 L287,503.5 C353.5089,503.5 431.9575,514.1471 467.2004,519.5009 " fill="none" style="stroke:#A80036;stroke-width:1.0;stroke-dasharray:3.0,3.0;"/><path d="M466.7294,522.5467 L469.4847,519.8541 L467.6713,516.455 L474.815,520.6782 L466.7294,522.5467 " fill="#A80036" style="stroke:#A80036;stroke-width:1.0;"/><ellipse cx="274" cy="503.5" fill="#A80036" rx="3" ry="3" style="stroke:#A80036;stroke-width:1.0;"/><path d="M274,525.5 L287,525.5 C310.2644,525.5 302.1663,553.1468 323,563.5 C370.7452,587.2268 435.8601,585.8728 467.3841,583.4353 " fill="none" style="stroke:#A80036;stroke-width:1.0;stroke-dasharray:3.0,3.0;"/><path d="M467.649,586.4793 L469.6671,583.2366 L467.1192,580.3913 L474.9941,582.773 L467.649,586.4793 " fill="#A80036" style="stroke:#A80036;stroke-width:1.0;"/><ellipse cx="274" cy="525.5" fill="#A80036" rx="3" ry="3" style="stroke:#A80036;stroke-width:1.0;"/></g></svg>