<?xml version="1.0" encoding="UTF-8" standalone="no"?><svg xmlns="http://www.w3.org/2000/svg" xmlns:xlink="http://www.w3.org/1999/xlink" contentScriptType="application/ecmascript" contentStyleType="text/css" height="809px" preserveAspectRatio="none" style="width:899px;height:809px;" version="1.1" viewBox="0 0 899 809" width="899px" zoomAndPan="magnify"><defs/><g><text fill="#000000" font-family="sans-serif" font-size="14" lengthAdjust="spacingAndGlyphs" textLength="50" x="40.5" y="119.5332">OrderID</text><text fill="#000000" font-family="sans-serif" font-size="14" lengthAdjust="spacingAndGlyphs" textLength="40" x="126" y="119.5332">10248</text><line style="stroke:#A80036;stroke-width:1.0;" x1="121" x2="121" y1="103" y2="124.6094"/><line style="stroke:#A80036;stroke-width:1.0;" x1="10" x2="286" y1="124.6094" y2="124.6094"/><text fill="#000000" font-family="sans-serif" font-size="14" lengthAdjust="spacingAndGlyphs" textLength="74" x="28.5" y="141.1426">CustomerID</text><text fill="#000000" font-family="sans-serif" font-size="14" lengthAdjust="spacingAndGlyphs" textLength="39" x="126" y="141.1426">VINET</text><line style="stroke:#A80036;stroke-width:1.0;" x1="121" x2="121" y1="124.6094" y2="146.2188"/><line style="stroke:#A80036;stroke-width:1.0;" x1="10" x2="286" y1="146.2188" y2="146.2188"/><text fill="#000000" font-family="sans-serif" font-size="14" lengthAdjust="spacingAndGlyphs" textLength="75" x="28" y="162.752">EmployeeID</text><text fill="#000000" font-family="sans-serif" font-size="14" lengthAdjust="spacingAndGlyphs" textLength="8" x="126" y="162.752">5</text><line style="stroke:#A80036;stroke-width:1.0;" x1="121" x2="121" y1="146.2188" y2="167.8281"/><line style="stroke:#A80036;stroke-width:1.0;" x1="10" x2="286" y1="167.8281" y2="167.8281"/><text fill="#000000" font-family="sans-serif" font-size="14" lengthAdjust="spacingAndGlyphs" textLength="67" x="32" y="184.3613">OrderDate</text><text fill="#000000" font-family="sans-serif" font-size="14" lengthAdjust="spacingAndGlyphs" textLength="144" x="126" y="184.3613">/Date(836438400000)/</text><line style="stroke:#A80036;stroke-width:1.0;" x1="121" x2="121" y1="167.8281" y2="189.4375"/><line style="stroke:#A80036;stroke-width:1.0;" x1="10" x2="286" y1="189.4375" y2="189.4375"/><text fill="#000000" font-family="sans-serif" font-size="14" lengthAdjust="spacingAndGlyphs" textLength="88" x="21.5" y="205.9707">RequiredDate</text><text fill="#000000" font-family="sans-serif" font-size="14" lengthAdjust="spacingAndGlyphs" textLength="144" x="126" y="205.9707">/Date(838857600000)/</text><line style="stroke:#A80036;stroke-width:1.0;" x1="121" x2="121" y1="189.4375" y2="211.0469"/><line style="stroke:#A80036;stroke-width:1.0;" x1="10" x2="286" y1="211.0469" y2="211.0469"/><text fill="#000000" font-family="sans-serif" font-size="14" lengthAdjust="spacingAndGlyphs" textLength="82" x="24.5" y="227.5801">ShippedDate</text><text fill="#000000" font-family="sans-serif" font-size="14" lengthAdjust="spacingAndGlyphs" textLength="144" x="126" y="227.5801">/Date(837475200000)/</text><line style="stroke:#A80036;stroke-width:1.0;" x1="121" x2="121" y1="211.0469" y2="232.6563"/><line style="stroke:#A80036;stroke-width:1.0;" x1="10" x2="286" y1="232.6563" y2="232.6563"/><text fill="#000000" font-family="sans-serif" font-size="14" lengthAdjust="spacingAndGlyphs" textLength="48" x="41.5" y="249.1895">ShipVia</text><text fill="#000000" font-family="sans-serif" font-size="14" lengthAdjust="spacingAndGlyphs" textLength="8" x="126" y="249.1895">3</text><line style="stroke:#A80036;stroke-width:1.0;" x1="121" x2="121" y1="232.6563" y2="254.2656"/><line style="stroke:#A80036;stroke-width:1.0;" x1="10" x2="286" y1="254.2656" y2="254.2656"/><text fill="#000000" font-family="sans-serif" font-size="14" lengthAdjust="spacingAndGlyphs" textLength="45" x="43" y="270.7988">Freight</text><text fill="#000000" font-family="sans-serif" font-size="14" lengthAdjust="spacingAndGlyphs" textLength="52" x="126" y="270.7988">32.3800</text><line style="stroke:#A80036;stroke-width:1.0;" x1="121" x2="121" y1="254.2656" y2="275.875"/><line style="stroke:#A80036;stroke-width:1.0;" x1="10" x2="286" y1="275.875" y2="275.875"/><text fill="#000000" font-family="sans-serif" font-size="14" lengthAdjust="spacingAndGlyphs" textLength="64" x="33.5" y="292.4082">ShipName</text><text fill="#000000" font-family="sans-serif" font-size="14" lengthAdjust="spacingAndGlyphs" textLength="155" x="126" y="292.4082">Vins et alcools Chevalier</text><line style="stroke:#A80036;stroke-width:1.0;" x1="121" x2="121" y1="275.875" y2="297.4844"/><line style="stroke:#A80036;stroke-width:1.0;" x1="10" x2="286" y1="297.4844" y2="297.4844"/><text fill="#000000" font-family="sans-serif" font-size="14" lengthAdjust="spacingAndGlyphs" textLength="80" x="25.5" y="314.0176">ShipAddress</text><text fill="#000000" font-family="sans-serif" font-size="14" lengthAdjust="spacingAndGlyphs" textLength="119" x="126" y="314.0176">59 rue de l'Abbaye</text><line style="stroke:#A80036;stroke-width:1.0;" x1="121" x2="121" y1="297.4844" y2="319.0938"/><line style="stroke:#A80036;stroke-width:1.0;" x1="10" x2="286" y1="319.0938" y2="319.0938"/><text fill="#000000" font-family="sans-serif" font-size="14" lengthAdjust="spacingAndGlyphs" textLength="52" x="39.5" y="335.627">ShipCity</text><text fill="#000000" font-family="sans-serif" font-size="14" lengthAdjust="spacingAndGlyphs" textLength="39" x="126" y="335.627">Reims</text><line style="stroke:#A80036;stroke-width:1.0;" x1="121" x2="121" y1="319.0938" y2="340.7031"/><line style="stroke:#A80036;stroke-width:1.0;" x1="10" x2="286" y1="340.7031" y2="340.7031"/><text fill="#000000" font-family="sans-serif" font-size="14" lengthAdjust="spacingAndGlyphs" textLength="73" x="29" y="357.2363">ShipRegion</text><text fill="#000000" font-family="sans-serif" font-size="14" lengthAdjust="spacingAndGlyphs" textLength="8" x="126" y="357.2363">␀</text><line style="stroke:#A80036;stroke-width:1.0;" x1="121" x2="121" y1="340.7031" y2="362.3125"/><line style="stroke:#A80036;stroke-width:1.0;" x1="10" x2="286" y1="362.3125" y2="362.3125"/><text fill="#000000" font-family="sans-serif" font-size="14" lengthAdjust="spacingAndGlyphs" textLength="101" x="15" y="378.8457">ShipPostalCode</text><text fill="#000000" font-family="sans-serif" font-size="14" lengthAdjust="spacingAndGlyphs" textLength="40" x="126" y="378.8457">51100</text><line style="stroke:#A80036;stroke-width:1.0;" x1="121" x2="121" y1="362.3125" y2="383.9219"/><line style="stroke:#A80036;stroke-width:1.0;" x1="10" x2="286" y1="383.9219" y2="383.9219"/><text fill="#000000" font-family="sans-serif" font-size="14" lengthAdjust="spacingAndGlyphs" textLength="78" x="26.5" y="400.4551">ShipCountry</text><text fill="#000000" font-family="sans-serif" font-size="14" lengthAdjust="spacingAndGlyphs" textLength="45" x="126" y="400.4551">France</text><line style="stroke:#A80036;stroke-width:1.0;" x1="121" x2="121" y1="383.9219" y2="405.5313"/><line style="stroke:#A80036;stroke-width:1.0;" x1="10" x2="286" y1="405.5313" y2="405.5313"/><text fill="#000000" font-family="sans-serif" font-size="14" lengthAdjust="spacingAndGlyphs" textLength="61" x="35" y="422.0645">Customer</text><text fill="#000000" font-family="sans-serif" font-size="14" lengthAdjust="spacingAndGlyphs" textLength="0" x="138" y="422.0645"/><line style="stroke:#A80036;stroke-width:1.0;" x1="121" x2="121" y1="405.5313" y2="427.1406"/><line style="stroke:#A80036;stroke-width:1.0;" x1="10" x2="286" y1="427.1406" y2="427.1406"/><text fill="#000000" font-family="sans-serif" font-size="14" lengthAdjust="spacingAndGlyphs" textLength="62" x="34.5" y="443.6738">Employee</text><text fill="#000000" font-family="sans-serif" font-size="14" lengthAdjust="spacingAndGlyphs" textLength="0" x="138" y="443.6738"/><line style="stroke:#A80036;stroke-width:1.0;" x1="121" x2="121" y1="427.1406" y2="448.75"/><line style="stroke:#A80036;stroke-width:1.0;" x1="10" x2="286" y1="448.75" y2="448.75"/><text fill="#000000" font-family="sans-serif" font-size="14" lengthAdjust="spacingAndGlyphs" textLength="88" x="21.5" y="465.2832">Order_Details</text><text fill="#000000" font-family="sans-serif" font-size="14" lengthAdjust="spacingAndGlyphs" textLength="0" x="138" y="465.2832"/><line style="stroke:#A80036;stroke-width:1.0;" x1="121" x2="121" y1="448.75" y2="470.3594"/><line style="stroke:#A80036;stroke-width:1.0;" x1="10" x2="286" y1="470.3594" y2="470.3594"/><text fill="#000000" font-family="sans-serif" font-size="14" lengthAdjust="spacingAndGlyphs" textLength="49" x="41" y="486.8926">Shipper</text><text fill="#000000" font-family="sans-serif" font-size="14" lengthAdjust="spacingAndGlyphs" textLength="0" x="138" y="486.8926"/><line style="stroke:#A80036;stroke-width:1.0;" x1="121" x2="121" y1="470.3594" y2="491.9688"/><rect fill="none" height="388.9688" rx="5" ry="5" style="stroke:#A80036;stroke-width:1.5;" width="276" x="10" y="103"/><text fill="#000000" font-family="sans-serif" font-size="14" lengthAdjust="spacingAndGlyphs" textLength="74" x="367" y="26.5332">CustomerID</text><text fill="#000000" font-family="sans-serif" font-size="14" lengthAdjust="spacingAndGlyphs" textLength="39" x="490" y="26.5332">VINET</text><line style="stroke:#A80036;stroke-width:1.0;" x1="485" x2="485" y1="10" y2="31.6094"/><line style="stroke:#A80036;stroke-width:1.0;" x1="323" x2="650" y1="31.6094" y2="31.6094"/><text fill="#000000" font-family="sans-serif" font-size="14" lengthAdjust="spacingAndGlyphs" textLength="96" x="356" y="48.1426">CompanyName</text><text fill="#000000" font-family="sans-serif" font-size="14" lengthAdjust="spacingAndGlyphs" textLength="155" x="490" y="48.1426">Vins et alcools Chevalier</text><line style="stroke:#A80036;stroke-width:1.0;" x1="485" x2="485" y1="31.6094" y2="53.2188"/><line style="stroke:#A80036;stroke-width:1.0;" x1="323" x2="650" y1="53.2188" y2="53.2188"/><text fill="#000000" font-family="sans-serif" font-size="14" lengthAdjust="spacingAndGlyphs" textLength="85" x="361.5" y="69.752">ContactName</text><text fill="#000000" font-family="sans-serif" font-size="14" lengthAdjust="spacingAndGlyphs" textLength="77" x="490" y="69.752">Paul Henriot</text><line style="stroke:#A80036;stroke-width:1.0;" x1="485" x2="485" y1="53.2188" y2="74.8281"/><line style="stroke:#A80036;stroke-width:1.0;" x1="323" x2="650" y1="74.8281" y2="74.8281"/><text fill="#000000" font-family="sans-serif" font-size="14" lengthAdjust="spacingAndGlyphs" textLength="76" x="366" y="91.3613">ContactTitle</text><text fill="#000000" font-family="sans-serif" font-size="14" lengthAdjust="spacingAndGlyphs" textLength="130" x="490" y="91.3613">Accounting Manager</text><line style="stroke:#A80036;stroke-width:1.0;" x1="485" x2="485" y1="74.8281" y2="96.4375"/><line style="stroke:#A80036;stroke-width:1.0;" x1="323" x2="650" y1="96.4375" y2="96.4375"/><text fill="#000000" font-family="sans-serif" font-size="14" lengthAdjust="spacingAndGlyphs" textLength="52" x="378" y="112.9707">Address</text><text fill="#000000" font-family="sans-serif" font-size="14" lengthAdjust="spacingAndGlyphs" textLength="119" x="490" y="112.9707">59 rue de l'Abbaye</text><line style="stroke:#A80036;stroke-width:1.0;" x1="485" x2="485" y1="96.4375" y2="118.0469"/><line style="stroke:#A80036;stroke-width:1.0;" x1="323" x2="650" y1="118.0469" y2="118.0469"/><text fill="#000000" font-family="sans-serif" font-size="14" lengthAdjust="spacingAndGlyphs" textLength="24" x="392" y="134.5801">City</text><text fill="#000000" font-family="sans-serif" font-size="14" lengthAdjust="spacingAndGlyphs" textLength="39" x="490" y="134.5801">Reims</text><line style="stroke:#A80036;stroke-width:1.0;" x1="485" x2="485" y1="118.0469" y2="139.6563"/><line style="stroke:#A80036;stroke-width:1.0;" x1="323" x2="650" y1="139.6563" y2="139.6563"/><text fill="#000000" font-family="sans-serif" font-size="14" lengthAdjust="spacingAndGlyphs" textLength="45" x="381.5" y="156.1895">Region</text><text fill="#000000" font-family="sans-serif" font-size="14" lengthAdjust="spacingAndGlyphs" textLength="8" x="490" y="156.1895">␀</text><line style="stroke:#A80036;stroke-width:1.0;" x1="485" x2="485" y1="139.6563" y2="161.2656"/><line style="stroke:#A80036;stroke-width:1.0;" x1="323" x2="650" y1="161.2656" y2="161.2656"/><text fill="#000000" font-family="sans-serif" font-size="14" lengthAdjust="spacingAndGlyphs" textLength="73" x="367.5" y="177.7988">PostalCode</text><text fill="#000000" font-family="sans-serif" font-size="14" lengthAdjust="spacingAndGlyphs" textLength="40" x="490" y="177.7988">51100</text><line style="stroke:#A80036;stroke-width:1.0;" x1="485" x2="485" y1="161.2656" y2="182.875"/><line style="stroke:#A80036;stroke-width:1.0;" x1="323" x2="650" y1="182.875" y2="182.875"/><text fill="#000000" font-family="sans-serif" font-size="14" lengthAdjust="spacingAndGlyphs" textLength="50" x="379" y="199.4082">Country</text><text fill="#000000" font-family="sans-serif" font-size="14" lengthAdjust="spacingAndGlyphs" textLength="45" x="490" y="199.4082">France</text><line style="stroke:#A80036;stroke-width:1.0;" x1="485" x2="485" y1="182.875" y2="204.4844"/><line style="stroke:#A80036;stroke-width:1.0;" x1="323" x2="650" y1="204.4844" y2="204.4844"/><text fill="#000000" font-family="sans-serif" font-size="14" lengthAdjust="spacingAndGlyphs" textLength="41" x="383.5" y="221.0176">Phone</text><text fill="#000000" font-family="sans-serif" font-size="14" lengthAdjust="spacingAndGlyphs" textLength="76" x="490" y="221.0176">26.47.15.10</text><line style="stroke:#A80036;stroke-width:1.0;" x1="485" x2="485" y1="204.4844" y2="226.0938"/><line style="stroke:#A80036;stroke-width:1.0;" x1="323" x2="650" y1="226.0938" y2="226.0938"/><text fill="#000000" font-family="sans-serif" font-size="14" lengthAdjust="spacingAndGlyphs" textLength="23" x="392.5" y="242.627">Fax</text><text fill="#000000" font-family="sans-serif" font-size="14" lengthAdjust="spacingAndGlyphs" textLength="76" x="490" y="242.627">26.47.15.11</text><line style="stroke:#A80036;stroke-width:1.0;" x1="485" x2="485" y1="226.0938" y2="247.7031"/><line style="stroke:#A80036;stroke-width:1.0;" x1="323" x2="650" y1="247.7031" y2="247.7031"/><text fill="#000000" font-family="sans-serif" font-size="14" lengthAdjust="spacingAndGlyphs" textLength="44" x="382" y="264.2363">Orders</text><text fill="#000000" font-family="sans-serif" font-size="14" lengthAdjust="spacingAndGlyphs" textLength="0" x="502" y="264.2363"/><line style="stroke:#A80036;stroke-width:1.0;" x1="485" x2="485" y1="247.7031" y2="269.3125"/><line style="stroke:#A80036;stroke-width:1.0;" x1="323" x2="650" y1="269.3125" y2="269.3125"/><text fill="#000000" font-family="sans-serif" font-size="14" lengthAdjust="spacingAndGlyphs" textLength="152" x="328" y="285.8457">CustomerDemographics</text><text fill="#000000" font-family="sans-serif" font-size="14" lengthAdjust="spacingAndGlyphs" textLength="0" x="502" y="285.8457"/><line style="stroke:#A80036;stroke-width:1.0;" x1="485" x2="485" y1="269.3125" y2="290.9219"/><rect fill="none" height="280.9219" rx="5" ry="5" style="stroke:#A80036;stroke-width:1.5;" width="327" x="323" y="10"/><rect fill="none" height="15" rx="5" ry="5" style="stroke:#A80036;stroke-width:1.5;" width="30" x="742" y="238.5"/><rect fill="none" height="15" rx="5" ry="5" style="stroke:#A80036;stroke-width:1.5;" width="30" x="742" y="272.5"/><rect fill="none" height="15" rx="5" ry="5" style="stroke:#A80036;stroke-width:1.5;" width="30" x="474.5" y="411.5"/><text fill="#000000" font-family="sans-serif" font-size="14" lengthAdjust="spacingAndGlyphs" textLength="0" x="491.5" y="462.5332"/><line style="stroke:#A80036;stroke-width:1.0;" x1="474.5" x2="496.5" y1="467.6094" y2="467.6094"/><text fill="#000000" font-family="sans-serif" font-size="14" lengthAdjust="spacingAndGlyphs" textLength="0" x="491.5" y="484.1426"/><line style="stroke:#A80036;stroke-width:1.0;" x1="474.5" x2="496.5" y1="489.2188" y2="489.2188"/><text fill="#000000" font-family="sans-serif" font-size="14" lengthAdjust="spacingAndGlyphs" textLength="0" x="491.5" y="505.752"/><rect fill="none" height="64.8281" rx="5" ry="5" style="stroke:#A80036;stroke-width:1.5;" width="22" x="474.5" y="446"/><text fill="#000000" font-family="sans-serif" font-size="14" lengthAdjust="spacingAndGlyphs" textLength="50" x="698" y="323.5332">OrderID</text><text fill="#000000" font-family="sans-serif" font-size="14" lengthAdjust="spacingAndGlyphs" textLength="40" x="764" y="323.5332">10248</text><line style="stroke:#A80036;stroke-width:1.0;" x1="759" x2="759" y1="307" y2="328.6094"/><line style="stroke:#A80036;stroke-width:1.0;" x1="687" x2="821" y1="328.6094" y2="328.6094"/><text fill="#000000" font-family="sans-serif" font-size="14" lengthAdjust="spacingAndGlyphs" textLength="62" x="692" y="345.1426">ProductID</text><text fill="#000000" font-family="sans-serif" font-size="14" lengthAdjust="spacingAndGlyphs" textLength="16" x="764" y="345.1426">11</text><line style="stroke:#A80036;stroke-width:1.0;" x1="759" x2="759" y1="328.6094" y2="350.2188"/><line style="stroke:#A80036;stroke-width:1.0;" x1="687" x2="821" y1="350.2188" y2="350.2188"/><text fill="#000000" font-family="sans-serif" font-size="14" lengthAdjust="spacingAndGlyphs" textLength="56" x="695" y="366.752">UnitPrice</text><text fill="#000000" font-family="sans-serif" font-size="14" lengthAdjust="spacingAndGlyphs" textLength="52" x="764" y="366.752">14.0000</text><line style="stroke:#A80036;stroke-width:1.0;" x1="759" x2="759" y1="350.2188" y2="371.8281"/><line style="stroke:#A80036;stroke-width:1.0;" x1="687" x2="821" y1="371.8281" y2="371.8281"/><text fill="#000000" font-family="sans-serif" font-size="14" lengthAdjust="spacingAndGlyphs" textLength="53" x="696.5" y="388.3613">Quantity</text><text fill="#000000" font-family="sans-serif" font-size="14" lengthAdjust="spacingAndGlyphs" textLength="16" x="764" y="388.3613">12</text><line style="stroke:#A80036;stroke-width:1.0;" x1="759" x2="759" y1="371.8281" y2="393.4375"/><line style="stroke:#A80036;stroke-width:1.0;" x1="687" x2="821" y1="393.4375" y2="393.4375"/><text fill="#000000" font-family="sans-serif" font-size="14" lengthAdjust="spacingAndGlyphs" textLength="55" x="695.5" y="409.9707">Discount</text><text fill="#000000" font-family="sans-serif" font-size="14" lengthAdjust="spacingAndGlyphs" textLength="8" x="764" y="409.9707">0</text><line style="stroke:#A80036;stroke-width:1.0;" x1="759" x2="759" y1="393.4375" y2="415.0469"/><line style="stroke:#A80036;stroke-width:1.0;" x1="687" x2="821" y1="415.0469" y2="415.0469"/><text fill="#000000" font-family="sans-serif" font-size="14" lengthAdjust="spacingAndGlyphs" textLength="37" x="704.5" y="431.5801">Order</text><text fill="#000000" font-family="sans-serif" font-size="14" lengthAdjust="spacingAndGlyphs" textLength="0" x="776" y="431.5801"/><line style="stroke:#A80036;stroke-width:1.0;" x1="759" x2="759" y1="415.0469" y2="436.6563"/><line style="stroke:#A80036;stroke-width:1.0;" x1="687" x2="821" y1="436.6563" y2="436.6563"/><text fill="#000000" font-family="sans-serif" font-size="14" lengthAdjust="spacingAndGlyphs" textLength="49" x="698.5" y="453.1895">Product</text><text fill="#000000" font-family="sans-serif" font-size="14" lengthAdjust="spacingAndGlyphs" textLength="0" x="776" y="453.1895"/><line style="stroke:#A80036;stroke-width:1.0;" x1="759" x2="759" y1="436.6563" y2="458.2656"/><rect fill="none" height="151.2656" rx="5" ry="5" style="stroke:#A80036;stroke-width:1.5;" width="134" x="687" y="307"/><rect fill="none" height="15" rx="5" ry="5" style="stroke:#A80036;stroke-width:1.5;" width="30" x="858" y="411.5"/><rect fill="none" height="15" rx="5" ry="5" style="stroke:#A80036;stroke-width:1.5;" width="30" x="858" y="445.5"/><text fill="#000000" font-family="sans-serif" font-size="14" lengthAdjust="spacingAndGlyphs" textLength="50" x="702" y="492.5332">OrderID</text><text fill="#000000" font-family="sans-serif" font-size="14" lengthAdjust="spacingAndGlyphs" textLength="40" x="768" y="492.5332">10248</text><line style="stroke:#A80036;stroke-width:1.0;" x1="763" x2="763" y1="476" y2="497.6094"/><line style="stroke:#A80036;stroke-width:1.0;" x1="691" x2="817" y1="497.6094" y2="497.6094"/><text fill="#000000" font-family="sans-serif" font-size="14" lengthAdjust="spacingAndGlyphs" textLength="62" x="696" y="514.1426">ProductID</text><text fill="#000000" font-family="sans-serif" font-size="14" lengthAdjust="spacingAndGlyphs" textLength="16" x="768" y="514.1426">42</text><line style="stroke:#A80036;stroke-width:1.0;" x1="763" x2="763" y1="497.6094" y2="519.2188"/><line style="stroke:#A80036;stroke-width:1.0;" x1="691" x2="817" y1="519.2188" y2="519.2188"/><text fill="#000000" font-family="sans-serif" font-size="14" lengthAdjust="spacingAndGlyphs" textLength="56" x="699" y="535.752">UnitPrice</text><text fill="#000000" font-family="sans-serif" font-size="14" lengthAdjust="spacingAndGlyphs" textLength="44" x="768" y="535.752">9.8000</text><line style="stroke:#A80036;stroke-width:1.0;" x1="763" x2="763" y1="519.2188" y2="540.8281"/><line style="stroke:#A80036;stroke-width:1.0;" x1="691" x2="817" y1="540.8281" y2="540.8281"/><text fill="#000000" font-family="sans-serif" font-size="14" lengthAdjust="spacingAndGlyphs" textLength="53" x="700.5" y="557.3613">Quantity</text><text fill="#000000" font-family="sans-serif" font-size="14" lengthAdjust="spacingAndGlyphs" textLength="16" x="768" y="557.3613">10</text><line style="stroke:#A80036;stroke-width:1.0;" x1="763" x2="763" y1="540.8281" y2="562.4375"/><line style="stroke:#A80036;stroke-width:1.0;" x1="691" x2="817" y1="562.4375" y2="562.4375"/><text fill="#000000" font-family="sans-serif" font-size="14" lengthAdjust="spacingAndGlyphs" textLength="55" x="699.5" y="578.9707">Discount</text><text fill="#000000" font-family="sans-serif" font-size="14" lengthAdjust="spacingAndGlyphs" textLength="8" x="768" y="578.9707">0</text><line style="stroke:#A80036;stroke-width:1.0;" x1="763" x2="763" y1="562.4375" y2="584.0469"/><line style="stroke:#A80036;stroke-width:1.0;" x1="691" x2="817" y1="584.0469" y2="584.0469"/><text fill="#000000" font-family="sans-serif" font-size="14" lengthAdjust="spacingAndGlyphs" textLength="37" x="708.5" y="600.5801">Order</text><text fill="#000000" font-family="sans-serif" font-size="14" lengthAdjust="spacingAndGlyphs" textLength="0" x="780" y="600.5801"/><line style="stroke:#A80036;stroke-width:1.0;" x1="763" x2="763" y1="584.0469" y2="605.6563"/><line style="stroke:#A80036;stroke-width:1.0;" x1="691" x2="817" y1="605.6563" y2="605.6563"/><text fill="#000000" font-family="sans-serif" font-size="14" lengthAdjust="spacingAndGlyphs" textLength="49" x="702.5" y="622.1895">Product</text><text fill="#000000" font-family="sans-serif" font-size="14" lengthAdjust="spacingAndGlyphs" textLength="0" x="780" y="622.1895"/><line style="stroke:#A80036;stroke-width:1.0;" x1="763" x2="763" y1="605.6563" y2="627.2656"/><rect fill="none" height="151.2656" rx="5" ry="5" style="stroke:#A80036;stroke-width:1.5;" width="126" x="691" y="476"/><rect fill="none" height="15" rx="5" ry="5" style="stroke:#A80036;stroke-width:1.5;" width="30" x="858" y="580.5"/><rect fill="none" height="15" rx="5" ry="5" style="stroke:#A80036;stroke-width:1.5;" width="30" x="858" y="614.5"/><text fill="#000000" font-family="sans-serif" font-size="14" lengthAdjust="spacingAndGlyphs" textLength="50" x="698" y="661.5332">OrderID</text><text fill="#000000" font-family="sans-serif" font-size="14" lengthAdjust="spacingAndGlyphs" textLength="40" x="764" y="661.5332">10248</text><line style="stroke:#A80036;stroke-width:1.0;" x1="759" x2="759" y1="645" y2="666.6094"/><line style="stroke:#A80036;stroke-width:1.0;" x1="687" x2="821" y1="666.6094" y2="666.6094"/><text fill="#000000" font-family="sans-serif" font-size="14" lengthAdjust="spacingAndGlyphs" textLength="62" x="692" y="683.1426">ProductID</text><text fill="#000000" font-family="sans-serif" font-size="14" lengthAdjust="spacingAndGlyphs" textLength="16" x="764" y="683.1426">72</text><line style="stroke:#A80036;stroke-width:1.0;" x1="759" x2="759" y1="666.6094" y2="688.2188"/><line style="stroke:#A80036;stroke-width:1.0;" x1="687" x2="821" y1="688.2188" y2="688.2188"/><text fill="#000000" font-family="sans-serif" font-size="14" lengthAdjust="spacingAndGlyphs" textLength="56" x="695" y="704.752">UnitPrice</text><text fill="#000000" font-family="sans-serif" font-size="14" lengthAdjust="spacingAndGlyphs" textLength="52" x="764" y="704.752">34.8000</text><line style="stroke:#A80036;stroke-width:1.0;" x1="759" x2="759" y1="688.2188" y2="709.8281"/><line style="stroke:#A80036;stroke-width:1.0;" x1="687" x2="821" y1="709.8281" y2="709.8281"/><text fill="#000000" font-family="sans-serif" font-size="14" lengthAdjust="spacingAndGlyphs" textLength="53" x="696.5" y="726.3613">Quantity</text><text fill="#000000" font-family="sans-serif" font-size="14" lengthAdjust="spacingAndGlyphs" textLength="8" x="764" y="726.3613">5</text><line style="stroke:#A80036;stroke-width:1.0;" x1="759" x2="759" y1="709.8281" y2="731.4375"/><line style="stroke:#A80036;stroke-width:1.0;" x1="687" x2="821" y1="731.4375" y2="731.4375"/><text fill="#000000" font-family="sans-serif" font-size="14" lengthAdjust="spacingAndGlyphs" textLength="55" x="695.5" y="747.9707">Discount</text><text fill="#000000" font-family="sans-serif" font-size="14" lengthAdjust="spacingAndGlyphs" textLength="8" x="764" y="747.9707">0</text><line style="stroke:#A80036;stroke-width:1.0;" x1="759" x2="759" y1="731.4375" y2="753.0469"/><line style="stroke:#A80036;stroke-width:1.0;" x1="687" x2="821" y1="753.0469" y2="753.0469"/><text fill="#000000" font-family="sans-serif" font-size="14" lengthAdjust="spacingAndGlyphs" textLength="37" x="704.5" y="769.5801">Order</text><text fill="#000000" font-family="sans-serif" font-size="14" lengthAdjust="spacingAndGlyphs" textLength="0" x="776" y="769.5801"/><line style="stroke:#A80036;stroke-width:1.0;" x1="759" x2="759" y1="753.0469" y2="774.6563"/><line style="stroke:#A80036;stroke-width:1.0;" x1="687" x2="821" y1="774.6563" y2="774.6563"/><text fill="#000000" font-family="sans-serif" font-size="14" lengthAdjust="spacingAndGlyphs" textLength="49" x="698.5" y="791.1895">Product</text><text fill="#000000" font-family="sans-serif" font-size="14" lengthAdjust="spacingAndGlyphs" textLength="0" x="776" y="791.1895"/><line style="stroke:#A80036;stroke-width:1.0;" x1="759" x2="759" y1="774.6563" y2="796.2656"/><rect fill="none" height="151.2656" rx="5" ry="5" style="stroke:#A80036;stroke-width:1.5;" width="134" x="687" y="645"/><rect fill="none" height="15" rx="5" ry="5" style="stroke:#A80036;stroke-width:1.5;" width="30" x="858" y="749.5"/><rect fill="none" height="15" rx="5" ry="5" style="stroke:#A80036;stroke-width:1.5;" width="30" x="858" y="783.5"/><rect fill="none" height="15" rx="5" ry="5" style="stroke:#A80036;stroke-width:1.5;" width="30" x="474.5" y="529.5"/><path d="M638,258.5 L651,258.5 C680.5779,258.5 714.6332,253.5098 735.0911,249.9654 " fill="none" style="stroke:#A80036;stroke-width:1.0;stroke-dasharray:3.0,3.0;"/><path d="M735.6191,252.9197 L737.3069,249.5694 L734.5631,247.011 L742.477,248.6454 L735.6191,252.9197 " fill="#A80036" style="stroke:#A80036;stroke-width:1.0;"/><ellipse cx="638" cy="258.5" fill="#A80036" rx="3" ry="3" style="stroke:#A80036;stroke-width:1.0;"/><path d="M638,280.5 L651,280.5 C680.2473,280.5 714.1889,280.5 734.7419,280.5 " fill="none" style="stroke:#A80036;stroke-width:1.0;stroke-dasharray:3.0,3.0;"/><path d="M734.7419,283.5742 L737.0476,280.5 L734.7419,277.4258 L742.4275,280.5 L734.7419,283.5742 " fill="#A80036" style="stroke:#A80036;stroke-width:1.0;"/><ellipse cx="638" cy="280.5" fill="#A80036" rx="3" ry="3" style="stroke:#A80036;stroke-width:1.0;"/><path d="M274,416.5 L287,416.5 C321.2223,416.5 366.4811,359.3356 405.1894,298.007 " fill="none" style="stroke:#A80036;stroke-width:1.0;stroke-dasharray:3.0,3.0;"/><path d="M407.8766,299.6887 L406.4507,295.9916 L402.5022,296.3252 L409.3937,291.289 L407.8766,299.6887 " fill="#A80036" style="stroke:#A80036;stroke-width:1.0;"/><ellipse cx="274" cy="416.5" fill="#A80036" rx="3" ry="3" style="stroke:#A80036;stroke-width:1.0;"/><path d="M274,437.5 L287,437.5 C321.8794,437.5 424.7537,426.3932 467.2778,421.6289 " fill="none" style="stroke:#A80036;stroke-width:1.0;stroke-dasharray:3.0,3.0;"/><path d="M467.623,424.6937 L469.5764,421.3699 L466.9325,418.564 L474.9399,420.7657 L467.623,424.6937 " fill="#A80036" style="stroke:#A80036;stroke-width:1.0;"/><ellipse cx="274" cy="437.5" fill="#A80036" rx="3" ry="3" style="stroke:#A80036;stroke-width:1.0;"/><path d="M809,425.5 L822,425.5 C831.5459,425.5 842.0864,424.2925 850.808,422.9609 " fill="none" style="stroke:#A80036;stroke-width:1.0;stroke-dasharray:3.0,3.0;"/><path d="M851.2987,425.9279 L853.0333,422.5929 L850.3173,419.9939 L858.2256,421.7342 L851.2987,425.9279 " fill="#A80036" style="stroke:#A80036;stroke-width:1.0;"/><ellipse cx="809" cy="425.5" fill="#A80036" rx="3" ry="3" style="stroke:#A80036;stroke-width:1.0;"/><path d="M809,447.5 L822,447.5 C831.5459,447.5 842.0864,448.7075 850.808,450.0391 " fill="none" style="stroke:#A80036;stroke-width:1.0;stroke-dasharray:3.0,3.0;"/><path d="M850.3173,453.0061 L853.0333,450.4071 L851.2987,447.0721 L858.2256,451.2658 L850.3173,453.0061 " fill="#A80036" style="stroke:#A80036;stroke-width:1.0;"/><ellipse cx="809" cy="447.5" fill="#A80036" rx="3" ry="3" style="stroke:#A80036;stroke-width:1.0;"/><path d="M487,456.5 L500,456.5 C567.6972,456.5 586.4943,457.0408 651,436.5 C660.7931,433.3816 670.7604,429.3566 680.4422,424.9113 " fill="none" style="stroke:#A80036;stroke-width:1.0;stroke-dasharray:3.0,3.0;"/><path d="M681.7639,427.7084 L682.54,423.92 L679.1205,422.1142 L687.435,421.6071 L681.7639,427.7084 " fill="#A80036" style="stroke:#A80036;stroke-width:1.0;"/><ellipse cx="487" cy="456.5" fill="#A80036" rx="3" ry="3" style="stroke:#A80036;stroke-width:1.0;"/><path d="M805.5,594.5 L818.5,594.5 C829.2261,594.5 841.1348,593.1748 850.7454,591.7699 " fill="none" style="stroke:#A80036;stroke-width:1.0;stroke-dasharray:3.0,3.0;"/><path d="M851.214,594.7523 L852.9822,591.4185 L850.2769,588.7875 L858.2014,590.5985 L851.214,594.7523 " fill="#A80036" style="stroke:#A80036;stroke-width:1.0;"/><ellipse cx="805.5" cy="594.5" fill="#A80036" rx="3" ry="3" style="stroke:#A80036;stroke-width:1.0;"/><path d="M805.5,616.5 L818.5,616.5 C829.2261,616.5 841.1348,617.8252 850.7454,619.2301 " fill="none" style="stroke:#A80036;stroke-width:1.0;stroke-dasharray:3.0,3.0;"/><path d="M850.2769,622.2125 L852.9822,619.5815 L851.214,616.2477 L858.2014,620.4015 L850.2769,622.2125 " fill="#A80036" style="stroke:#A80036;stroke-width:1.0;"/><ellipse cx="805.5" cy="616.5" fill="#A80036" rx="3" ry="3" style="stroke:#A80036;stroke-width:1.0;"/><path d="M487,477.5 L500,477.5 C564.2363,477.5 634.0925,499.6659 684.1758,519.7349 " fill="none" style="stroke:#A80036;stroke-width:1.0;stroke-dasharray:3.0,3.0;"/><path d="M682.9987,522.632 L686.3487,520.6178 L685.353,516.8377 L691.4187,522.6778 L682.9987,522.632 " fill="#A80036" style="stroke:#A80036;stroke-width:1.0;"/><ellipse cx="487" cy="477.5" fill="#A80036" rx="3" ry="3" style="stroke:#A80036;stroke-width:1.0;"/><path d="M809,763.5 L822,763.5 C831.5459,763.5 842.0864,762.2925 850.808,760.9609 " fill="none" style="stroke:#A80036;stroke-width:1.0;stroke-dasharray:3.0,3.0;"/><path d="M851.2987,763.9279 L853.0333,760.5929 L850.3173,757.9939 L858.2256,759.7342 L851.2987,763.9279 " fill="#A80036" style="stroke:#A80036;stroke-width:1.0;"/><ellipse cx="809" cy="763.5" fill="#A80036" rx="3" ry="3" style="stroke:#A80036;stroke-width:1.0;"/><path d="M809,785.5 L822,785.5 C831.5459,785.5 842.0864,786.7075 850.808,788.0391 " fill="none" style="stroke:#A80036;stroke-width:1.0;stroke-dasharray:3.0,3.0;"/><path d="M850.3173,791.0061 L853.0333,788.4071 L851.2987,785.0721 L858.2256,789.2658 L850.3173,791.0061 " fill="#A80036" style="stroke:#A80036;stroke-width:1.0;"/><ellipse cx="809" cy="785.5" fill="#A80036" rx="3" ry="3" style="stroke:#A80036;stroke-width:1.0;"/><path d="M487,500.5 L500,500.5 C567.6972,500.5 599.2563,476.8479 651,520.5 C692.26,555.3079 661.8201,588.7512 687,636.5 C687.3226,637.1118 687.6499,637.7236 687.9817,638.3352 " fill="none" style="stroke:#A80036;stroke-width:1.0;stroke-dasharray:3.0,3.0;"/><path d="M685.3656,639.8215 L689.0964,640.2973 L690.5978,636.8489 L691.6975,644.8755 L685.3656,639.8215 " fill="#A80036" style="stroke:#A80036;stroke-width:1.0;"/><ellipse cx="487" cy="500.5" fill="#A80036" rx="3" ry="3" style="stroke:#A80036;stroke-width:1.0;"/><path d="M274,459.5 L287,459.5 C353.5089,459.5 431.9575,470.1471 467.2004,475.5009 " fill="none" style="stroke:#A80036;stroke-width:1.0;stroke-dasharray:3.0,3.0;"/><path d="M466.7294,478.5467 L469.4847,475.8541 L467.6713,472.455 L474.815,476.6782 L466.7294,478.5467 " fill="#A80036" style="stroke:#A80036;stroke-width:1.0;"/><ellipse cx="274" cy="459.5" fill="#A80036" rx="3" ry="3" style="stroke:#A80036;stroke-width:1.0;"/><path d="M274,481.5 L287,481.5 C310.2644,481.5 302.1663,509.1468 323,519.5 C370.7452,543.2268 435.8601,541.8728 467.3841,539.4353 " fill="none" style="stroke:#A80036;stroke-width:1.0;stroke-dasharray:3.0,3.0;"/><path d="M467.649,542.4793 L469.6671,539.2366 L467.1192,536.3913 L474.9941,538.773 L467.649,542.4793 " fill="#A80036" style="stroke:#A80036;stroke-width:1.0;"/><ellipse cx="274" cy="481.5" fill="#A80036" rx="3" ry="3" style="stroke:#A80036;stroke-width:1.0;"/></g></svg>