<?xml version="1.0" encoding="UTF-8" standalone="no"?><svg xmlns="http://www.w3.org/2000/svg" xmlns:xlink="http://www.w3.org/1999/xlink" contentScriptType="application/ecmascript" contentStyleType="text/css" height="631px" preserveAspectRatio="none" style="width:960px;height:631px;" version="1.1" viewBox="0 0 960 631" width="960px" zoomAndPan="magnify"><defs/><g><text fill="#000000" font-family="sans-serif" font-size="14" lengthAdjust="spacingAndGlyphs" textLength="50" x="40.5" y="26.5332">OrderID</text><text fill="#000000" font-family="sans-serif" font-size="14" lengthAdjust="spacingAndGlyphs" textLength="40" x="126" y="26.5332">10248</text><line style="stroke:#A80036;stroke-width:1.0;" x1="121" x2="121" y1="10" y2="31.6094"/><line style="stroke:#A80036;stroke-width:1.0;" x1="10" x2="286" y1="31.6094" y2="31.6094"/><text fill="#000000" font-family="sans-serif" font-size="14" lengthAdjust="spacingAndGlyphs" textLength="74" x="28.5" y="48.1426">CustomerID</text><text fill="#000000" font-family="sans-serif" font-size="14" lengthAdjust="spacingAndGlyphs" textLength="39" x="126" y="48.1426">VINET</text><line style="stroke:#A80036;stroke-width:1.0;" x1="121" x2="121" y1="31.6094" y2="53.2188"/><line style="stroke:#A80036;stroke-width:1.0;" x1="10" x2="286" y1="53.2188" y2="53.2188"/><text fill="#000000" font-family="sans-serif" font-size="14" lengthAdjust="spacingAndGlyphs" textLength="75" x="28" y="69.752">EmployeeID</text><text fill="#000000" font-family="sans-serif" font-size="14" lengthAdjust="spacingAndGlyphs" textLength="8" x="126" y="69.752">5</text><line style="stroke:#A80036;stroke-width:1.0;" x1="121" x2="121" y1="53.2188" y2="74.8281"/><line style="stroke:#A80036;stroke-width:1.0;" x1="10" x2="286" y1="74.8281" y2="74.8281"/><text fill="#000000" font-family="sans-serif" font-size="14" lengthAdjust="spacingAndGlyphs" textLength="67" x="32" y="91.3613">OrderDate</text><text fill="#000000" font-family="sans-serif" font-size="14" lengthAdjust="spacingAndGlyphs" textLength="144" x="126" y="91.3613">/Date(836438400000)/</text><line style="stroke:#A80036;stroke-width:1.0;" x1="121" x2="121" y1="74.8281" y2="96.4375"/><line style="stroke:#A80036;stroke-width:1.0;" x1="10" x2="286" y1="96.4375" y2="96.4375"/><text fill="#000000" font-family="sans-serif" font-size="14" lengthAdjust="spacingAndGlyphs" textLength="88" x="21.5" y="112.9707">RequiredDate</text><text fill="#000000" font-family="sans-serif" font-size="14" lengthAdjust="spacingAndGlyphs" textLength="144" x="126" y="112.9707">/Date(838857600000)/</text><line style="stroke:#A80036;stroke-width:1.0;" x1="121" x2="121" y1="96.4375" y2="118.0469"/><line style="stroke:#A80036;stroke-width:1.0;" x1="10" x2="286" y1="118.0469" y2="118.0469"/><text fill="#000000" font-family="sans-serif" font-size="14" lengthAdjust="spacingAndGlyphs" textLength="82" x="24.5" y="134.5801">ShippedDate</text><text fill="#000000" font-family="sans-serif" font-size="14" lengthAdjust="spacingAndGlyphs" textLength="144" x="126" y="134.5801">/Date(837475200000)/</text><line style="stroke:#A80036;stroke-width:1.0;" x1="121" x2="121" y1="118.0469" y2="139.6563"/><line style="stroke:#A80036;stroke-width:1.0;" x1="10" x2="286" y1="139.6563" y2="139.6563"/><text fill="#000000" font-family="sans-serif" font-size="14" lengthAdjust="spacingAndGlyphs" textLength="48" x="41.5" y="156.1895">ShipVia</text><text fill="#000000" font-family="sans-serif" font-size="14" lengthAdjust="spacingAndGlyphs" textLength="8" x="126" y="156.1895">3</text><line style="stroke:#A80036;stroke-width:1.0;" x1="121" x2="121" y1="139.6563" y2="161.2656"/><line style="stroke:#A80036;stroke-width:1.0;" x1="10" x2="286" y1="161.2656" y2="161.2656"/><text fill="#000000" font-family="sans-serif" font-size="14" lengthAdjust="spacingAndGlyphs" textLength="45" x="43" y="177.7988">Freight</text><text fill="#000000" font-family="sans-serif" font-size="14" lengthAdjust="spacingAndGlyphs" textLength="52" x="126" y="177.7988">32.3800</text><line style="stroke:#A80036;stroke-width:1.0;" x1="121" x2="121" y1="161.2656" y2="182.875"/><line style="stroke:#A80036;stroke-width:1.0;" x1="10" x2="286" y1="182.875" y2="182.875"/><text fill="#000000" font-family="sans-serif" font-size="14" lengthAdjust="spacingAndGlyphs" textLength="64" x="33.5" y="199.4082">ShipName</text><text fill="#000000" font-family="sans-serif" font-size="14" lengthAdjust="spacingAndGlyphs" textLength="155" x="126" y="199.4082">Vins et alcools Chevalier</text><line style="stroke:#A80036;stroke-width:1.0;" x1="121" x2="121" y1="182.875" y2="204.4844"/><line style="stroke:#A80036;stroke-width:1.0;" x1="10" x2="286" y1="204.4844" y2="204.4844"/><text fill="#000000" font-family="sans-serif" font-size="14" lengthAdjust="spacingAndGlyphs" textLength="80" x="25.5" y="221.0176">ShipAddress</text><text fill="#000000" font-family="sans-serif" font-size="14" lengthAdjust="spacingAndGlyphs" textLength="119" x="126" y="221.0176">59 rue de l'Abbaye</text><line style="stroke:#A80036;stroke-width:1.0;" x1="121" x2="121" y1="204.4844" y2="226.0938"/><line style="stroke:#A80036;stroke-width:1.0;" x1="10" x2="286" y1="226.0938" y2="226.0938"/><text fill="#000000" font-family="sans-serif" font-size="14" lengthAdjust="spacingAndGlyphs" textLength="52" x="39.5" y="242.627">ShipCity</text><text fill="#000000" font-family="sans-serif" font-size="14" lengthAdjust="spacingAndGlyphs" textLength="39" x="126" y="242.627">Reims</text><line style="stroke:#A80036;stroke-width:1.0;" x1="121" x2="121" y1="226.0938" y2="247.7031"/><line style="stroke:#A80036;stroke-width:1.0;" x1="10" x2="286" y1="247.7031" y2="247.7031"/><text fill="#000000" font-family="sans-serif" font-size="14" lengthAdjust="spacingAndGlyphs" textLength="73" x="29" y="264.2363">ShipRegion</text><text fill="#000000" font-family="sans-serif" font-size="14" lengthAdjust="spacingAndGlyphs" textLength="8" x="126" y="264.2363">␀</text><line style="stroke:#A80036;stroke-width:1.0;" x1="121" x2="121" y1="247.7031" y2="269.3125"/><line style="stroke:#A80036;stroke-width:1.0;" x1="10" x2="286" y1="269.3125" y2="269.3125"/><text fill="#000000" font-family="sans-serif" font-size="14" lengthAdjust="spacingAndGlyphs" textLength="101" x="15" y="285.8457">ShipPostalCode</text><text fill="#000000" font-family="sans-serif" font-size="14" lengthAdjust="spacingAndGlyphs" textLength="40" x="126" y="285.8457">51100</text><line style="stroke:#A80036;stroke-width:1.0;" x1="121" x2="121" y1="269.3125" y2="290.9219"/><line style="stroke:#A80036;stroke-width:1.0;" x1="10" x2="286" y1="290.9219" y2="290.9219"/><text fill="#000000" font-family="sans-serif" font-size="14" lengthAdjust="spacingAndGlyphs" textLength="78" x="26.5" y="307.4551">ShipCountry</text><text fill="#000000" font-family="sans-serif" font-size="14" lengthAdjust="spacingAndGlyphs" textLength="45" x="126" y="307.4551">France</text><line style="stroke:#A80036;stroke-width:1.0;" x1="121" x2="121" y1="290.9219" y2="312.5313"/><line style="stroke:#A80036;stroke-width:1.0;" x1="10" x2="286" y1="312.5313" y2="312.5313"/><text fill="#000000" font-family="sans-serif" font-size="14" lengthAdjust="spacingAndGlyphs" textLength="61" x="35" y="329.0645">Customer</text><text fill="#000000" font-family="sans-serif" font-size="14" lengthAdjust="spacingAndGlyphs" textLength="0" x="138" y="329.0645"/><line style="stroke:#A80036;stroke-width:1.0;" x1="121" x2="121" y1="312.5313" y2="334.1406"/><line style="stroke:#A80036;stroke-width:1.0;" x1="10" x2="286" y1="334.1406" y2="334.1406"/><text fill="#000000" font-family="sans-serif" font-size="14" lengthAdjust="spacingAndGlyphs" textLength="62" x="34.5" y="350.6738">Employee</text><text fill="#000000" font-family="sans-serif" font-size="14" lengthAdjust="spacingAndGlyphs" textLength="0" x="138" y="350.6738"/><line style="stroke:#A80036;stroke-width:1.0;" x1="121" x2="121" y1="334.1406" y2="355.75"/><line style="stroke:#A80036;stroke-width:1.0;" x1="10" x2="286" y1="355.75" y2="355.75"/><text fill="#000000" font-family="sans-serif" font-size="14" lengthAdjust="spacingAndGlyphs" textLength="88" x="21.5" y="372.2832">Order_Details</text><text fill="#000000" font-family="sans-serif" font-size="14" lengthAdjust="spacingAndGlyphs" textLength="0" x="138" y="372.2832"/><line style="stroke:#A80036;stroke-width:1.0;" x1="121" x2="121" y1="355.75" y2="377.3594"/><line style="stroke:#A80036;stroke-width:1.0;" x1="10" x2="286" y1="377.3594" y2="377.3594"/><text fill="#000000" font-family="sans-serif" font-size="14" lengthAdjust="spacingAndGlyphs" textLength="49" x="41" y="393.8926">Shipper</text><text fill="#000000" font-family="sans-serif" font-size="14" lengthAdjust="spacingAndGlyphs" textLength="0" x="138" y="393.8926"/><line style="stroke:#A80036;stroke-width:1.0;" x1="121" x2="121" y1="377.3594" y2="398.9688"/><rect fill="none" height="388.9688" rx="5" ry="5" style="stroke:#A80036;stroke-width:1.5;" width="276" x="10" y="10"/><text fill="#000000" font-family="sans-serif" font-size="14" lengthAdjust="spacingAndGlyphs" textLength="74" x="367" y="46.5332">CustomerID</text><text fill="#000000" font-family="sans-serif" font-size="14" lengthAdjust="spacingAndGlyphs" textLength="39" x="490" y="46.5332">VINET</text><line style="stroke:#A80036;stroke-width:1.0;" x1="485" x2="485" y1="30" y2="51.6094"/><line style="stroke:#A80036;stroke-width:1.0;" x1="323" x2="650" y1="51.6094" y2="51.6094"/><text fill="#000000" font-family="sans-serif" font-size="14" lengthAdjust="spacingAndGlyphs" textLength="96" x="356" y="68.1426">CompanyName</text><text fill="#000000" font-family="sans-serif" font-size="14" lengthAdjust="spacingAndGlyphs" textLength="155" x="490" y="68.1426">Vins et alcools Chevalier</text><line style="stroke:#A80036;stroke-width:1.0;" x1="485" x2="485" y1="51.6094" y2="73.2188"/><line style="stroke:#A80036;stroke-width:1.0;" x1="323" x2="650" y1="73.2188" y2="73.2188"/><text fill="#000000" font-family="sans-serif" font-size="14" lengthAdjust="spacingAndGlyphs" textLength="85" x="361.5" y="89.752">ContactName</text><text fill="#000000" font-family="sans-serif" font-size="14" lengthAdjust="spacingAndGlyphs" textLength="77" x="490" y="89.752">Paul Henriot</text><line style="stroke:#A80036;stroke-width:1.0;" x1="485" x2="485" y1="73.2188" y2="94.8281"/><line style="stroke:#A80036;stroke-width:1.0;" x1="323" x2="650" y1="94.8281" y2="94.8281"/><text fill="#000000" font-family="sans-serif" font-size="14" lengthAdjust="spacingAndGlyphs" textLength="76" x="366" y="111.3613">ContactTitle</text><text fill="#000000" font-family="sans-serif" font-size="14" lengthAdjust="spacingAndGlyphs" textLength="130" x="490" y="111.3613">Accounting Manager</text><line style="stroke:#A80036;stroke-width:1.0;" x1="485" x2="485" y1="94.8281" y2="116.4375"/><line style="stroke:#A80036;stroke-width:1.0;" x1="323" x2="650" y1="116.4375" y2="116.4375"/><text fill="#000000" font-family="sans-serif" font-size="14" lengthAdjust="spacingAndGlyphs" textLength="52" x="378" y="132.9707">Address</text><text fill="#000000" font-family="sans-serif" font-size="14" lengthAdjust="spacingAndGlyphs" textLength="119" x="490" y="132.9707">59 rue de l'Abbaye</text><line style="stroke:#A80036;stroke-width:1.0;" x1="485" x2="485" y1="116.4375" y2="138.0469"/><line style="stroke:#A80036;stroke-width:1.0;" x1="323" x2="650" y1="138.0469" y2="138.0469"/><text fill="#000000" font-family="sans-serif" font-size="14" lengthAdjust="spacingAndGlyphs" textLength="24" x="392" y="154.5801">City</text><text fill="#000000" font-family="sans-serif" font-size="14" lengthAdjust="spacingAndGlyphs" textLength="39" x="490" y="154.5801">Reims</text><line style="stroke:#A80036;stroke-width:1.0;" x1="485" x2="485" y1="138.0469" y2="159.6563"/><line style="stroke:#A80036;stroke-width:1.0;" x1="323" x2="650" y1="159.6563" y2="159.6563"/><text fill="#000000" font-family="sans-serif" font-size="14" lengthAdjust="spacingAndGlyphs" textLength="45" x="381.5" y="176.1895">Region</text><text fill="#000000" font-family="sans-serif" font-size="14" lengthAdjust="spacingAndGlyphs" textLength="8" x="490" y="176.1895">␀</text><line style="stroke:#A80036;stroke-width:1.0;" x1="485" x2="485" y1="159.6563" y2="181.2656"/><line style="stroke:#A80036;stroke-width:1.0;" x1="323" x2="650" y1="181.2656" y2="181.2656"/><text fill="#000000" font-family="sans-serif" font-size="14" lengthAdjust="spacingAndGlyphs" textLength="73" x="367.5" y="197.7988">PostalCode</text><text fill="#000000" font-family="sans-serif" font-size="14" lengthAdjust="spacingAndGlyphs" textLength="40" x="490" y="197.7988">51100</text><line style="stroke:#A80036;stroke-width:1.0;" x1="485" x2="485" y1="181.2656" y2="202.875"/><line style="stroke:#A80036;stroke-width:1.0;" x1="323" x2="650" y1="202.875" y2="202.875"/><text fill="#000000" font-family="sans-serif" font-size="14" lengthAdjust="spacingAndGlyphs" textLength="50" x="379" y="219.4082">Country</text><text fill="#000000" font-family="sans-serif" font-size="14" lengthAdjust="spacingAndGlyphs" textLength="45" x="490" y="219.4082">France</text><line style="stroke:#A80036;stroke-width:1.0;" x1="485" x2="485" y1="202.875" y2="224.4844"/><line style="stroke:#A80036;stroke-width:1.0;" x1="323" x2="650" y1="224.4844" y2="224.4844"/><text fill="#000000" font-family="sans-serif" font-size="14" lengthAdjust="spacingAndGlyphs" textLength="41" x="383.5" y="241.0176">Phone</text><text fill="#000000" font-family="sans-serif" font-size="14" lengthAdjust="spacingAndGlyphs" textLength="76" x="490" y="241.0176">26.47.15.10</text><line style="stroke:#A80036;stroke-width:1.0;" x1="485" x2="485" y1="224.4844" y2="246.0938"/><line style="stroke:#A80036;stroke-width:1.0;" x1="323" x2="650" y1="246.0938" y2="246.0938"/><text fill="#000000" font-family="sans-serif" font-size="14" lengthAdjust="spacingAndGlyphs" textLength="23" x="392.5" y="262.627">Fax</text><text fill="#000000" font-family="sans-serif" font-size="14" lengthAdjust="spacingAndGlyphs" textLength="76" x="490" y="262.627">26.47.15.11</text><line style="stroke:#A80036;stroke-width:1.0;" x1="485" x2="485" y1="246.0938" y2="267.7031"/><line style="stroke:#A80036;stroke-width:1.0;" x1="323" x2="650" y1="267.7031" y2="267.7031"/><text fill="#000000" font-family="sans-serif" font-size="14" lengthAdjust="spacingAndGlyphs" textLength="44" x="382" y="284.2363">Orders</text><text fill="#000000" font-family="sans-serif" font-size="14" lengthAdjust="spacingAndGlyphs" textLength="0" x="502" y="284.2363"/><line style="stroke:#A80036;stroke-width:1.0;" x1="485" x2="485" y1="267.7031" y2="289.3125"/><line style="stroke:#A80036;stroke-width:1.0;" x1="323" x2="650" y1="289.3125" y2="289.3125"/><text fill="#000000" font-family="sans-serif" font-size="14" lengthAdjust="spacingAndGlyphs" textLength="152" x="328" y="305.8457">CustomerDemographics</text><text fill="#000000" font-family="sans-serif" font-size="14" lengthAdjust="spacingAndGlyphs" textLength="0" x="502" y="305.8457"/><line style="stroke:#A80036;stroke-width:1.0;" x1="485" x2="485" y1="289.3125" y2="310.9219"/><rect fill="none" height="280.9219" rx="5" ry="5" style="stroke:#A80036;stroke-width:1.5;" width="327" x="323" y="30"/><rect fill="none" height="15" rx="5" ry="5" style="stroke:#A80036;stroke-width:1.5;" width="30" x="687" y="264.5"/><rect fill="none" height="15" rx="5" ry="5" style="stroke:#A80036;stroke-width:1.5;" width="30" x="687" y="298.5"/><rect fill="none" height="15" rx="5" ry="5" style="stroke:#A80036;stroke-width:1.5;" width="30" x="474.5" y="329.5"/><text fill="#000000" font-family="sans-serif" font-size="14" lengthAdjust="spacingAndGlyphs" textLength="42" x="454.5" y="380.0332">results</text><text fill="#000000" font-family="sans-serif" font-size="14" lengthAdjust="spacingAndGlyphs" textLength="0" x="518.5" y="380.0332"/><line style="stroke:#A80036;stroke-width:1.0;" x1="501.5" x2="501.5" y1="363.5" y2="385.1094"/><rect fill="none" height="21.6094" rx="5" ry="5" style="stroke:#A80036;stroke-width:1.5;" width="74" x="449.5" y="363.5"/><text fill="#000000" font-family="sans-serif" font-size="14" lengthAdjust="spacingAndGlyphs" textLength="0" x="704" y="358.5332"/><line style="stroke:#A80036;stroke-width:1.0;" x1="687" x2="709" y1="363.6094" y2="363.6094"/><text fill="#000000" font-family="sans-serif" font-size="14" lengthAdjust="spacingAndGlyphs" textLength="0" x="704" y="380.1426"/><line style="stroke:#A80036;stroke-width:1.0;" x1="687" x2="709" y1="385.2188" y2="385.2188"/><text fill="#000000" font-family="sans-serif" font-size="14" lengthAdjust="spacingAndGlyphs" textLength="0" x="704" y="401.752"/><rect fill="none" height="64.8281" rx="5" ry="5" style="stroke:#A80036;stroke-width:1.5;" width="22" x="687" y="342"/><text fill="#000000" font-family="sans-serif" font-size="14" lengthAdjust="spacingAndGlyphs" textLength="50" x="759" y="145.5332">OrderID</text><text fill="#000000" font-family="sans-serif" font-size="14" lengthAdjust="spacingAndGlyphs" textLength="40" x="825" y="145.5332">10248</text><line style="stroke:#A80036;stroke-width:1.0;" x1="820" x2="820" y1="129" y2="150.6094"/><line style="stroke:#A80036;stroke-width:1.0;" x1="748" x2="882" y1="150.6094" y2="150.6094"/><text fill="#000000" font-family="sans-serif" font-size="14" lengthAdjust="spacingAndGlyphs" textLength="62" x="753" y="167.1426">ProductID</text><text fill="#000000" font-family="sans-serif" font-size="14" lengthAdjust="spacingAndGlyphs" textLength="16" x="825" y="167.1426">11</text><line style="stroke:#A80036;stroke-width:1.0;" x1="820" x2="820" y1="150.6094" y2="172.2188"/><line style="stroke:#A80036;stroke-width:1.0;" x1="748" x2="882" y1="172.2188" y2="172.2188"/><text fill="#000000" font-family="sans-serif" font-size="14" lengthAdjust="spacingAndGlyphs" textLength="56" x="756" y="188.752">UnitPrice</text><text fill="#000000" font-family="sans-serif" font-size="14" lengthAdjust="spacingAndGlyphs" textLength="52" x="825" y="188.752">14.0000</text><line style="stroke:#A80036;stroke-width:1.0;" x1="820" x2="820" y1="172.2188" y2="193.8281"/><line style="stroke:#A80036;stroke-width:1.0;" x1="748" x2="882" y1="193.8281" y2="193.8281"/><text fill="#000000" font-family="sans-serif" font-size="14" lengthAdjust="spacingAndGlyphs" textLength="53" x="757.5" y="210.3613">Quantity</text><text fill="#000000" font-family="sans-serif" font-size="14" lengthAdjust="spacingAndGlyphs" textLength="16" x="825" y="210.3613">12</text><line style="stroke:#A80036;stroke-width:1.0;" x1="820" x2="820" y1="193.8281" y2="215.4375"/><line style="stroke:#A80036;stroke-width:1.0;" x1="748" x2="882" y1="215.4375" y2="215.4375"/><text fill="#000000" font-family="sans-serif" font-size="14" lengthAdjust="spacingAndGlyphs" textLength="55" x="756.5" y="231.9707">Discount</text><text fill="#000000" font-family="sans-serif" font-size="14" lengthAdjust="spacingAndGlyphs" textLength="8" x="825" y="231.9707">0</text><line style="stroke:#A80036;stroke-width:1.0;" x1="820" x2="820" y1="215.4375" y2="237.0469"/><line style="stroke:#A80036;stroke-width:1.0;" x1="748" x2="882" y1="237.0469" y2="237.0469"/><text fill="#000000" font-family="sans-serif" font-size="14" lengthAdjust="spacingAndGlyphs" textLength="37" x="765.5" y="253.5801">Order</text><text fill="#000000" font-family="sans-serif" font-size="14" lengthAdjust="spacingAndGlyphs" textLength="0" x="837" y="253.5801"/><line style="stroke:#A80036;stroke-width:1.0;" x1="820" x2="820" y1="237.0469" y2="258.6563"/><line style="stroke:#A80036;stroke-width:1.0;" x1="748" x2="882" y1="258.6563" y2="258.6563"/><text fill="#000000" font-family="sans-serif" font-size="14" lengthAdjust="spacingAndGlyphs" textLength="49" x="759.5" y="275.1895">Product</text><text fill="#000000" font-family="sans-serif" font-size="14" lengthAdjust="spacingAndGlyphs" textLength="0" x="837" y="275.1895"/><line style="stroke:#A80036;stroke-width:1.0;" x1="820" x2="820" y1="258.6563" y2="280.2656"/><rect fill="none" height="151.2656" rx="5" ry="5" style="stroke:#A80036;stroke-width:1.5;" width="134" x="748" y="129"/><rect fill="none" height="15" rx="5" ry="5" style="stroke:#A80036;stroke-width:1.5;" width="30" x="919" y="233.5"/><rect fill="none" height="15" rx="5" ry="5" style="stroke:#A80036;stroke-width:1.5;" width="30" x="919" y="267.5"/><text fill="#000000" font-family="sans-serif" font-size="14" lengthAdjust="spacingAndGlyphs" textLength="50" x="763" y="314.5332">OrderID</text><text fill="#000000" font-family="sans-serif" font-size="14" lengthAdjust="spacingAndGlyphs" textLength="40" x="829" y="314.5332">10248</text><line style="stroke:#A80036;stroke-width:1.0;" x1="824" x2="824" y1="298" y2="319.6094"/><line style="stroke:#A80036;stroke-width:1.0;" x1="752" x2="878" y1="319.6094" y2="319.6094"/><text fill="#000000" font-family="sans-serif" font-size="14" lengthAdjust="spacingAndGlyphs" textLength="62" x="757" y="336.1426">ProductID</text><text fill="#000000" font-family="sans-serif" font-size="14" lengthAdjust="spacingAndGlyphs" textLength="16" x="829" y="336.1426">42</text><line style="stroke:#A80036;stroke-width:1.0;" x1="824" x2="824" y1="319.6094" y2="341.2188"/><line style="stroke:#A80036;stroke-width:1.0;" x1="752" x2="878" y1="341.2188" y2="341.2188"/><text fill="#000000" font-family="sans-serif" font-size="14" lengthAdjust="spacingAndGlyphs" textLength="56" x="760" y="357.752">UnitPrice</text><text fill="#000000" font-family="sans-serif" font-size="14" lengthAdjust="spacingAndGlyphs" textLength="44" x="829" y="357.752">9.8000</text><line style="stroke:#A80036;stroke-width:1.0;" x1="824" x2="824" y1="341.2188" y2="362.8281"/><line style="stroke:#A80036;stroke-width:1.0;" x1="752" x2="878" y1="362.8281" y2="362.8281"/><text fill="#000000" font-family="sans-serif" font-size="14" lengthAdjust="spacingAndGlyphs" textLength="53" x="761.5" y="379.3613">Quantity</text><text fill="#000000" font-family="sans-serif" font-size="14" lengthAdjust="spacingAndGlyphs" textLength="16" x="829" y="379.3613">10</text><line style="stroke:#A80036;stroke-width:1.0;" x1="824" x2="824" y1="362.8281" y2="384.4375"/><line style="stroke:#A80036;stroke-width:1.0;" x1="752" x2="878" y1="384.4375" y2="384.4375"/><text fill="#000000" font-family="sans-serif" font-size="14" lengthAdjust="spacingAndGlyphs" textLength="55" x="760.5" y="400.9707">Discount</text><text fill="#000000" font-family="sans-serif" font-size="14" lengthAdjust="spacingAndGlyphs" textLength="8" x="829" y="400.9707">0</text><line style="stroke:#A80036;stroke-width:1.0;" x1="824" x2="824" y1="384.4375" y2="406.0469"/><line style="stroke:#A80036;stroke-width:1.0;" x1="752" x2="878" y1="406.0469" y2="406.0469"/><text fill="#000000" font-family="sans-serif" font-size="14" lengthAdjust="spacingAndGlyphs" textLength="37" x="769.5" y="422.5801">Order</text><text fill="#000000" font-family="sans-serif" font-size="14" lengthAdjust="spacingAndGlyphs" textLength="0" x="841" y="422.5801"/><line style="stroke:#A80036;stroke-width:1.0;" x1="824" x2="824" y1="406.0469" y2="427.6563"/><line style="stroke:#A80036;stroke-width:1.0;" x1="752" x2="878" y1="427.6563" y2="427.6563"/><text fill="#000000" font-family="sans-serif" font-size="14" lengthAdjust="spacingAndGlyphs" textLength="49" x="763.5" y="444.1895">Product</text><text fill="#000000" font-family="sans-serif" font-size="14" lengthAdjust="spacingAndGlyphs" textLength="0" x="841" y="444.1895"/><line style="stroke:#A80036;stroke-width:1.0;" x1="824" x2="824" y1="427.6563" y2="449.2656"/><rect fill="none" height="151.2656" rx="5" ry="5" style="stroke:#A80036;stroke-width:1.5;" width="126" x="752" y="298"/><rect fill="none" height="15" rx="5" ry="5" style="stroke:#A80036;stroke-width:1.5;" width="30" x="919" y="402.5"/><rect fill="none" height="15" rx="5" ry="5" style="stroke:#A80036;stroke-width:1.5;" width="30" x="919" y="436.5"/><text fill="#000000" font-family="sans-serif" font-size="14" lengthAdjust="spacingAndGlyphs" textLength="50" x="759" y="483.5332">OrderID</text><text fill="#000000" font-family="sans-serif" font-size="14" lengthAdjust="spacingAndGlyphs" textLength="40" x="825" y="483.5332">10248</text><line style="stroke:#A80036;stroke-width:1.0;" x1="820" x2="820" y1="467" y2="488.6094"/><line style="stroke:#A80036;stroke-width:1.0;" x1="748" x2="882" y1="488.6094" y2="488.6094"/><text fill="#000000" font-family="sans-serif" font-size="14" lengthAdjust="spacingAndGlyphs" textLength="62" x="753" y="505.1426">ProductID</text><text fill="#000000" font-family="sans-serif" font-size="14" lengthAdjust="spacingAndGlyphs" textLength="16" x="825" y="505.1426">72</text><line style="stroke:#A80036;stroke-width:1.0;" x1="820" x2="820" y1="488.6094" y2="510.2188"/><line style="stroke:#A80036;stroke-width:1.0;" x1="748" x2="882" y1="510.2188" y2="510.2188"/><text fill="#000000" font-family="sans-serif" font-size="14" lengthAdjust="spacingAndGlyphs" textLength="56" x="756" y="526.752">UnitPrice</text><text fill="#000000" font-family="sans-serif" font-size="14" lengthAdjust="spacingAndGlyphs" textLength="52" x="825" y="526.752">34.8000</text><line style="stroke:#A80036;stroke-width:1.0;" x1="820" x2="820" y1="510.2188" y2="531.8281"/><line style="stroke:#A80036;stroke-width:1.0;" x1="748" x2="882" y1="531.8281" y2="531.8281"/><text fill="#000000" font-family="sans-serif" font-size="14" lengthAdjust="spacingAndGlyphs" textLength="53" x="757.5" y="548.3613">Quantity</text><text fill="#000000" font-family="sans-serif" font-size="14" lengthAdjust="spacingAndGlyphs" textLength="8" x="825" y="548.3613">5</text><line style="stroke:#A80036;stroke-width:1.0;" x1="820" x2="820" y1="531.8281" y2="553.4375"/><line style="stroke:#A80036;stroke-width:1.0;" x1="748" x2="882" y1="553.4375" y2="553.4375"/><text fill="#000000" font-family="sans-serif" font-size="14" lengthAdjust="spacingAndGlyphs" textLength="55" x="756.5" y="569.9707">Discount</text><text fill="#000000" font-family="sans-serif" font-size="14" lengthAdjust="spacingAndGlyphs" textLength="8" x="825" y="569.9707">0</text><line style="stroke:#A80036;stroke-width:1.0;" x1="820" x2="820" y1="553.4375" y2="575.0469"/><line style="stroke:#A80036;stroke-width:1.0;" x1="748" x2="882" y1="575.0469" y2="575.0469"/><text fill="#000000" font-family="sans-serif" font-size="14" lengthAdjust="spacingAndGlyphs" textLength="37" x="765.5" y="591.5801">Order</text><text fill="#000000" font-family="sans-serif" font-size="14" lengthAdjust="spacingAndGlyphs" textLength="0" x="837" y="591.5801"/><line style="stroke:#A80036;stroke-width:1.0;" x1="820" x2="820" y1="575.0469" y2="596.6563"/><line style="stroke:#A80036;stroke-width:1.0;" x1="748" x2="882" y1="596.6563" y2="596.6563"/><text fill="#000000" font-family="sans-serif" font-size="14" lengthAdjust="spacingAndGlyphs" textLength="49" x="759.5" y="613.1895">Product</text><text fill="#000000" font-family="sans-serif" font-size="14" lengthAdjust="spacingAndGlyphs" textLength="0" x="837" y="613.1895"/><line style="stroke:#A80036;stroke-width:1.0;" x1="820" x2="820" y1="596.6563" y2="618.2656"/><rect fill="none" height="151.2656" rx="5" ry="5" style="stroke:#A80036;stroke-width:1.5;" width="134" x="748" y="467"/><rect fill="none" height="15" rx="5" ry="5" style="stroke:#A80036;stroke-width:1.5;" width="30" x="919" y="571.5"/><rect fill="none" height="15" rx="5" ry="5" style="stroke:#A80036;stroke-width:1.5;" width="30" x="919" y="605.5"/><rect fill="none" height="15" rx="5" ry="5" style="stroke:#A80036;stroke-width:1.5;" width="30" x="474.5" y="403.5"/><path d="M638,278.5 L651,278.5 C660.5459,278.5 671.0864,277.2925 679.808,275.9609 " fill="none" style="stroke:#A80036;stroke-width:1.0;stroke-dasharray:3.0,3.0;"/><path d="M680.2987,278.9279 L682.0333,275.5929 L679.3173,272.9939 L687.2256,274.7342 L680.2987,278.9279 " fill="#A80036" style="stroke:#A80036;stroke-width:1.0;"/><ellipse cx="638" cy="278.5" fill="#A80036" rx="3" ry="3" style="stroke:#A80036;stroke-width:1.0;"/><path d="M638,300.5 L651,300.5 C660.5459,300.5 671.0864,301.7075 679.808,303.0391 " fill="none" style="stroke:#A80036;stroke-width:1.0;stroke-dasharray:3.0,3.0;"/><path d="M679.3173,306.0061 L682.0333,303.4071 L680.2987,300.0721 L687.2256,304.2658 L679.3173,306.0061 " fill="#A80036" style="stroke:#A80036;stroke-width:1.0;"/><ellipse cx="638" cy="300.5" fill="#A80036" rx="3" ry="3" style="stroke:#A80036;stroke-width:1.0;"/><path d="M274,323.5 L287,323.5 C303.9117,323.5 320.2691,319.9842 335.8514,314.0185 " fill="none" style="stroke:#A80036;stroke-width:1.0;stroke-dasharray:3.0,3.0;"/><path d="M337.0153,316.8602 L337.9827,313.1457 L334.6876,311.1769 L342.9556,311.109 L337.0153,316.8602 " fill="#A80036" style="stroke:#A80036;stroke-width:1.0;"/><ellipse cx="274" cy="323.5" fill="#A80036" rx="3" ry="3" style="stroke:#A80036;stroke-width:1.0;"/><path d="M274,344.5 L287,344.5 C353.2488,344.5 431.8267,340.5774 467.151,338.6049 " fill="none" style="stroke:#A80036;stroke-width:1.0;stroke-dasharray:3.0,3.0;"/><path d="M467.3245,341.6582 L469.4409,338.4748 L466.9775,335.5517 L474.7841,338.1712 L467.3245,341.6582 " fill="#A80036" style="stroke:#A80036;stroke-width:1.0;"/><ellipse cx="274" cy="344.5" fill="#A80036" rx="3" ry="3" style="stroke:#A80036;stroke-width:1.0;"/><path d="M870,247.5 L883,247.5 C892.5459,247.5 903.0864,246.2925 911.808,244.9609 " fill="none" style="stroke:#A80036;stroke-width:1.0;stroke-dasharray:3.0,3.0;"/><path d="M912.2987,247.9279 L914.0333,244.5929 L911.3173,241.9939 L919.2256,243.7342 L912.2987,247.9279 " fill="#A80036" style="stroke:#A80036;stroke-width:1.0;"/><ellipse cx="870" cy="247.5" fill="#A80036" rx="3" ry="3" style="stroke:#A80036;stroke-width:1.0;"/><path d="M870,269.5 L883,269.5 C892.5459,269.5 903.0864,270.7075 911.808,272.0391 " fill="none" style="stroke:#A80036;stroke-width:1.0;stroke-dasharray:3.0,3.0;"/><path d="M911.3173,275.0061 L914.0333,272.4071 L912.2987,269.0721 L919.2256,273.2658 L911.3173,275.0061 " fill="#A80036" style="stroke:#A80036;stroke-width:1.0;"/><ellipse cx="870" cy="269.5" fill="#A80036" rx="3" ry="3" style="stroke:#A80036;stroke-width:1.0;"/><path d="M699.5,353.5 L699.5,340.5 C699.5,338.4071 720.0802,313.7466 743.8283,285.9868 " fill="none" style="stroke:#A80036;stroke-width:1.0;stroke-dasharray:3.0,3.0;"/><path d="M746.2138,288.0306 L745.3612,284.1977 L741.4429,283.9431 L748.9378,280.0231 L746.2138,288.0306 " fill="#A80036" style="stroke:#A80036;stroke-width:1.0;"/><ellipse cx="699.5" cy="353.5" fill="#A80036" rx="3" ry="3" style="stroke:#A80036;stroke-width:1.0;"/><path d="M866.5,416.5 L879.5,416.5 C890.2261,416.5 902.1348,415.1748 911.7454,413.7699 " fill="none" style="stroke:#A80036;stroke-width:1.0;stroke-dasharray:3.0,3.0;"/><path d="M912.214,416.7523 L913.9822,413.4185 L911.2769,410.7875 L919.2014,412.5985 L912.214,416.7523 " fill="#A80036" style="stroke:#A80036;stroke-width:1.0;"/><ellipse cx="866.5" cy="416.5" fill="#A80036" rx="3" ry="3" style="stroke:#A80036;stroke-width:1.0;"/><path d="M866.5,438.5 L879.5,438.5 C890.2261,438.5 902.1348,439.8252 911.7454,441.2301 " fill="none" style="stroke:#A80036;stroke-width:1.0;stroke-dasharray:3.0,3.0;"/><path d="M911.2769,444.2125 L913.9822,441.5815 L912.214,438.2477 L919.2014,442.4015 L911.2769,444.2125 " fill="#A80036" style="stroke:#A80036;stroke-width:1.0;"/><ellipse cx="866.5" cy="438.5" fill="#A80036" rx="3" ry="3" style="stroke:#A80036;stroke-width:1.0;"/><path d="M699,373.5 L712,373.5 C722.627,373.5 733.8738,373.5 744.8729,373.5 " fill="none" style="stroke:#A80036;stroke-width:1.0;stroke-dasharray:3.0,3.0;"/><path d="M744.8729,376.5258 L747.1423,373.5 L744.8729,370.4742 L752.4375,373.5 L744.8729,376.5258 " fill="#A80036" style="stroke:#A80036;stroke-width:1.0;"/><ellipse cx="699" cy="373.5" fill="#A80036" rx="3" ry="3" style="stroke:#A80036;stroke-width:1.0;"/><path d="M870,585.5 L883,585.5 C892.5459,585.5 903.0864,584.2925 911.808,582.9609 " fill="none" style="stroke:#A80036;stroke-width:1.0;stroke-dasharray:3.0,3.0;"/><path d="M912.2987,585.9279 L914.0333,582.5929 L911.3173,579.9939 L919.2256,581.7342 L912.2987,585.9279 " fill="#A80036" style="stroke:#A80036;stroke-width:1.0;"/><ellipse cx="870" cy="585.5" fill="#A80036" rx="3" ry="3" style="stroke:#A80036;stroke-width:1.0;"/><path d="M870,607.5 L883,607.5 C892.5459,607.5 903.0864,608.7075 911.808,610.0391 " fill="none" style="stroke:#A80036;stroke-width:1.0;stroke-dasharray:3.0,3.0;"/><path d="M911.3173,613.0061 L914.0333,610.4071 L912.2987,607.0721 L919.2256,611.2658 L911.3173,613.0061 " fill="#A80036" style="stroke:#A80036;stroke-width:1.0;"/><ellipse cx="870" cy="607.5" fill="#A80036" rx="3" ry="3" style="stroke:#A80036;stroke-width:1.0;"/><path d="M699.5,395.5 L699.5,408.5 C699.5,441.1384 719.3898,469.8055 742.6259,492.1596 " fill="none" style="stroke:#A80036;stroke-width:1.0;stroke-dasharray:3.0,3.0;"/><path d="M740.5246,494.4173 L744.3193,493.7356 L744.7273,489.9018 L748.2704,497.4129 L740.5246,494.4173 " fill="#A80036" style="stroke:#A80036;stroke-width:1.0;"/><ellipse cx="699.5" cy="395.5" fill="#A80036" rx="3" ry="3" style="stroke:#A80036;stroke-width:1.0;"/><path d="M512,374.5 L525,374.5 C581.1308,374.5 647.4762,374.5 679.4235,374.5 " fill="none" style="stroke:#A80036;stroke-width:1.0;stroke-dasharray:3.0,3.0;"/><path d="M679.4235,377.5835 L681.7361,374.5 L679.4235,371.4165 L687.1322,374.5 L679.4235,377.5835 " fill="#A80036" style="stroke:#A80036;stroke-width:1.0;"/><ellipse cx="512" cy="374.5" fill="#A80036" rx="3" ry="3" style="stroke:#A80036;stroke-width:1.0;"/><path d="M274,366.5 L287,366.5 C340.4346,366.5 401.8748,369.4154 442.1825,371.7262 " fill="none" style="stroke:#A80036;stroke-width:1.0;stroke-dasharray:3.0,3.0;"/><path d="M442.0071,374.7351 L444.4391,371.8577 L442.3578,368.7173 L449.7047,372.1646 L442.0071,374.7351 " fill="#A80036" style="stroke:#A80036;stroke-width:1.0;"/><ellipse cx="274" cy="366.5" fill="#A80036" rx="3" ry="3" style="stroke:#A80036;stroke-width:1.0;"/><path d="M274,388.5 L287,388.5 C303.2207,388.5 306.9259,392.3243 323,394.5 C375.0594,401.5463 436.8163,407.2718 467.2004,409.9162 " fill="none" style="stroke:#A80036;stroke-width:1.0;stroke-dasharray:3.0,3.0;"/><path d="M466.9354,412.9977 L469.5116,410.115 L467.4655,406.8347 L474.9043,410.5789 L466.9354,412.9977 " fill="#A80036" style="stroke:#A80036;stroke-width:1.0;"/><ellipse cx="274" cy="388.5" fill="#A80036" rx="3" ry="3" style="stroke:#A80036;stroke-width:1.0;"/></g></svg>