<?xml version="1.0" encoding="UTF-8" standalone="no"?><svg xmlns="http://www.w3.org/2000/svg" xmlns:xlink="http://www.w3.org/1999/xlink" contentScriptType="application/ecmascript" contentStyleType="text/css" height="1639px" preserveAspectRatio="none" style="width:1059px;height:1639px;" version="1.1" viewBox="0 0 1059 1639" width="1059px" zoomAndPan="magnify"><defs><filter height="300%" id="f1e80lfbfcrzsz" width="300%" x="-1" y="-1"><feGaussianBlur result="blurOut" stdDeviation="2.0"/><feColorMatrix in="blurOut" result="blurOut2" type="matrix" values="0 0 0 0 0 0 0 0 0 0 0 0 0 0 0 0 0 0 .4 0"/><feOffset dx="4.0" dy="4.0" in="blurOut2" result="blurOut3"/><feBlend in="SourceGraphic" in2="blurOut3" mode="normal"/></filter></defs><g><text fill="#000000" font-family="sans-serif" font-size="20" font-weight="bold" lengthAdjust="spacing" textLength="230" x="414" y="32.7617">Central Hub Deployment</text><rect fill="#ADD8E6" height="1588.4453" style="stroke:#A80036;stroke-width:1.0;" width="206" x="169.5" y="45.1563"/><text fill="#000000" font-family="sans-serif" font-size="13" font-weight="bold" lengthAdjust="spacing" textLength="107" x="219" y="58.6514">Front-End Server</text><text fill="#000000" font-family="sans-serif" font-size="13" font-weight="bold" lengthAdjust="spacing" textLength="200" x="172.5" y="75.0029">NW AS ABAP 7.5 SP1 [GWD100]</text><rect fill="#FFFFE0" height="1588.4453" style="stroke:#A80036;stroke-width:1.0;" width="546" x="483.5" y="45.1563"/><text fill="#000000" font-family="sans-serif" font-size="13" font-weight="bold" lengthAdjust="spacing" textLength="105" x="704" y="58.6514">Back-End Server</text><text fill="#000000" font-family="sans-serif" font-size="13" font-weight="bold" lengthAdjust="spacing" textLength="208" x="652.5" y="75.0029">NW AS ABAP 7.31 SP18 [ERP000]</text><text fill="#000000" font-family="sans-serif" font-size="13" font-weight="bold" lengthAdjust="spacing" textLength="120" x="696.5" y="91.3545">SAP ERP 6.0 EHP 6</text><text fill="#000000" font-family="sans-serif" font-size="13" font-weight="bold" lengthAdjust="spacing" textLength="145" x="684" y="107.7061">SAP Gateway 2.0 SP12</text><rect fill="#FFFFFF" filter="url(#f1e80lfbfcrzsz)" height="95.4063" style="stroke:#000000;stroke-width:2.0;" width="242" x="20" y="421.9844"/><rect fill="#FFFFFF" filter="url(#f1e80lfbfcrzsz)" height="997.6016" style="stroke:#000000;stroke-width:2.0;" width="1035.5" x="10" y="531.3906"/><rect fill="#FFFFFF" filter="url(#f1e80lfbfcrzsz)" height="139.7578" style="stroke:#000000;stroke-width:2.0;" width="570.5" x="20" y="556.7422"/><rect fill="#FFFFFF" filter="url(#f1e80lfbfcrzsz)" height="261.1641" style="stroke:#000000;stroke-width:2.0;" width="1015.5" x="20" y="710.5"/><rect fill="#FFFFFF" filter="url(#f1e80lfbfcrzsz)" height="261.1641" style="stroke:#000000;stroke-width:2.0;" width="1015.5" x="20" y="985.6641"/><rect fill="#FFFFFF" filter="url(#f1e80lfbfcrzsz)" height="261.1641" style="stroke:#000000;stroke-width:2.0;" width="1015.5" x="20" y="1260.8281"/><line style="stroke:#D67A65;stroke-width:1.0;stroke-dasharray:5.0,5.0;" x1="47" x2="47" y1="178.1719" y2="1545.9922"/><line style="stroke:#D67A65;stroke-width:1.0;stroke-dasharray:5.0,5.0;" x1="217" x2="217" y1="178.1719" y2="1545.9922"/><line style="stroke:#D67A65;stroke-width:1.0;stroke-dasharray:5.0,5.0;" x1="312" x2="312" y1="178.1719" y2="1545.9922"/><line style="stroke:#D67A65;stroke-width:1.0;stroke-dasharray:5.0,5.0;" x1="533.5" x2="533.5" y1="178.1719" y2="1545.9922"/><line style="stroke:#D67A65;stroke-width:1.0;stroke-dasharray:5.0,5.0;" x1="806.5" x2="806.5" y1="178.1719" y2="1545.9922"/><line style="stroke:#D67A65;stroke-width:1.0;stroke-dasharray:5.0,5.0;" x1="991.5" x2="991.5" y1="178.1719" y2="1545.9922"/><text fill="#000000" font-family="sans-serif" font-size="14" lengthAdjust="spacing" textLength="29" x="30" y="175.0957">User</text><ellipse cx="47.5" cy="103.5625" fill="#FEFECE" filter="url(#f1e80lfbfcrzsz)" rx="8" ry="8" style="stroke:#A80036;stroke-width:2.0;"/><path d="M47.5,111.5625 L47.5,138.5625 M34.5,119.5625 L60.5,119.5625 M47.5,138.5625 L34.5,153.5625 M47.5,138.5625 L60.5,153.5625 " fill="none" filter="url(#f1e80lfbfcrzsz)" style="stroke:#A80036;stroke-width:2.0;"/><text fill="#000000" font-family="sans-serif" font-size="14" lengthAdjust="spacing" textLength="29" x="30" y="1559.5254">User</text><ellipse cx="47.5" cy="1572.6016" fill="#FEFECE" filter="url(#f1e80lfbfcrzsz)" rx="8" ry="8" style="stroke:#A80036;stroke-width:2.0;"/><path d="M47.5,1580.6016 L47.5,1607.6016 M34.5,1588.6016 L60.5,1588.6016 M47.5,1607.6016 L34.5,1622.6016 M47.5,1607.6016 L60.5,1622.6016 " fill="none" filter="url(#f1e80lfbfcrzsz)" style="stroke:#A80036;stroke-width:2.0;"/><rect fill="#FEFECE" filter="url(#f1e80lfbfcrzsz)" height="31.6094" style="stroke:#A80036;stroke-width:1.5;" width="62" x="186" y="137.5625"/><rect fill="#FEFECE" filter="url(#f1e80lfbfcrzsz)" height="31.6094" style="stroke:#A80036;stroke-width:1.5;" width="62" x="182" y="141.5625"/><text fill="#000000" font-family="sans-serif" font-size="14" lengthAdjust="spacing" textLength="48" x="189" y="163.0957">UI5_UI5</text><rect fill="#FEFECE" filter="url(#f1e80lfbfcrzsz)" height="31.6094" style="stroke:#A80036;stroke-width:1.5;" width="62" x="186" y="1544.9922"/><rect fill="#FEFECE" filter="url(#f1e80lfbfcrzsz)" height="31.6094" style="stroke:#A80036;stroke-width:1.5;" width="62" x="182" y="1548.9922"/><text fill="#000000" font-family="sans-serif" font-size="14" lengthAdjust="spacing" textLength="48" x="189" y="1570.5254">UI5_UI5</text><text fill="#000000" font-family="sans-serif" font-size="14" lengthAdjust="spacing" textLength="95" x="262" y="175.0957">Model Provider</text><path d="M292,132.5625 L292,156.5625 M292,144.5625 L309,144.5625 " fill="none" filter="url(#f1e80lfbfcrzsz)" style="stroke:#A80036;stroke-width:2.0;"/><ellipse cx="321" cy="144.5625" fill="#FEFECE" filter="url(#f1e80lfbfcrzsz)" rx="12" ry="12" style="stroke:#A80036;stroke-width:2.0;"/><text fill="#000000" font-family="sans-serif" font-size="14" lengthAdjust="spacing" textLength="95" x="262" y="1559.5254">Model Provider</text><path d="M292,1566.6016 L292,1590.6016 M292,1578.6016 L309,1578.6016 " fill="none" filter="url(#f1e80lfbfcrzsz)" style="stroke:#A80036;stroke-width:2.0;"/><ellipse cx="321" cy="1578.6016" fill="#FEFECE" filter="url(#f1e80lfbfcrzsz)" rx="12" ry="12" style="stroke:#A80036;stroke-width:2.0;"/><text fill="#000000" font-family="sans-serif" font-size="14" lengthAdjust="spacing" textLength="87" x="487.5" y="175.0957">Data Provider</text><path d="M513.5,132.5625 L513.5,156.5625 M513.5,144.5625 L530.5,144.5625 " fill="none" filter="url(#f1e80lfbfcrzsz)" style="stroke:#A80036;stroke-width:2.0;"/><ellipse cx="542.5" cy="144.5625" fill="#FEFECE" filter="url(#f1e80lfbfcrzsz)" rx="12" ry="12" style="stroke:#A80036;stroke-width:2.0;"/><text fill="#000000" font-family="sans-serif" font-size="14" lengthAdjust="spacing" textLength="87" x="487.5" y="1559.5254">Data Provider</text><path d="M513.5,1566.6016 L513.5,1590.6016 M513.5,1578.6016 L530.5,1578.6016 " fill="none" filter="url(#f1e80lfbfcrzsz)" style="stroke:#A80036;stroke-width:2.0;"/><ellipse cx="542.5" cy="1578.6016" fill="#FEFECE" filter="url(#f1e80lfbfcrzsz)" rx="12" ry="12" style="stroke:#A80036;stroke-width:2.0;"/><text fill="#000000" font-family="sans-serif" font-size="14" lengthAdjust="spacing" textLength="139" x="734.5" y="175.0957">Business Logic (BAPI)</text><ellipse cx="807" cy="144.5625" fill="#FEFECE" filter="url(#f1e80lfbfcrzsz)" rx="12" ry="12" style="stroke:#A80036;stroke-width:2.0;"/><polygon fill="#A80036" points="803,132.5625,809,127.5625,807,132.5625,809,137.5625,803,132.5625" style="stroke:#A80036;stroke-width:1.0;"/><text fill="#000000" font-family="sans-serif" font-size="14" lengthAdjust="spacing" textLength="139" x="734.5" y="1559.5254">Business Logic (BAPI)</text><ellipse cx="807" cy="1578.6016" fill="#FEFECE" filter="url(#f1e80lfbfcrzsz)" rx="12" ry="12" style="stroke:#A80036;stroke-width:2.0;"/><polygon fill="#A80036" points="803,1566.6016,809,1561.6016,807,1566.6016,809,1571.6016,803,1566.6016" style="stroke:#A80036;stroke-width:1.0;"/><text fill="#000000" font-family="sans-serif" font-size="14" lengthAdjust="spacing" textLength="61" x="958.5" y="175.0957">Database</text><path d="M974,124.5625 C974,114.5625 992,114.5625 992,114.5625 C992,114.5625 1010,114.5625 1010,124.5625 L1010,150.5625 C1010,160.5625 992,160.5625 992,160.5625 C992,160.5625 974,160.5625 974,150.5625 L974,124.5625 " fill="#FEFECE" filter="url(#f1e80lfbfcrzsz)" style="stroke:#000000;stroke-width:1.5;"/><path d="M974,124.5625 C974,134.5625 992,134.5625 992,134.5625 C992,134.5625 1010,134.5625 1010,124.5625 " fill="none" style="stroke:#000000;stroke-width:1.5;"/><text fill="#000000" font-family="sans-serif" font-size="14" lengthAdjust="spacing" textLength="61" x="958.5" y="1559.5254">Database</text><path d="M974,1572.6016 C974,1562.6016 992,1562.6016 992,1562.6016 C992,1562.6016 1010,1562.6016 1010,1572.6016 L1010,1598.6016 C1010,1608.6016 992,1608.6016 992,1608.6016 C992,1608.6016 974,1608.6016 974,1598.6016 L974,1572.6016 " fill="#FEFECE" filter="url(#f1e80lfbfcrzsz)" style="stroke:#000000;stroke-width:1.5;"/><path d="M974,1572.6016 C974,1582.6016 992,1582.6016 992,1582.6016 C992,1582.6016 1010,1582.6016 1010,1572.6016 " fill="none" style="stroke:#000000;stroke-width:1.5;"/><path d="M141,193.1719 L141,235.1719 L289,235.1719 L289,203.1719 L279,193.1719 L141,193.1719 " fill="#FBFB77" filter="url(#f1e80lfbfcrzsz)" style="stroke:#A80036;stroke-width:1.0;"/><path d="M279,193.1719 L279,203.1719 L289,203.1719 L279,193.1719 " fill="#FBFB77" style="stroke:#A80036;stroke-width:1.0;"/><text fill="#000000" font-family="sans-serif" font-size="13" lengthAdjust="spacing" textLength="127" x="147" y="211.667">ZAPP_GW (Package)</text><text fill="#000000" font-family="sans-serif" font-size="13" lengthAdjust="spacing" textLength="98" x="147" y="228.0186">ZGUI5 (UI5 BSP)</text><path d="M428,249.875 L428,308.875 L636,308.875 L636,259.875 L626,249.875 L428,249.875 " fill="#FBFB77" filter="url(#f1e80lfbfcrzsz)" style="stroke:#A80036;stroke-width:1.0;"/><path d="M626,249.875 L626,259.875 L636,259.875 L626,249.875 " fill="#FBFB77" style="stroke:#A80036;stroke-width:1.0;"/><text fill="#000000" font-family="sans-serif" font-size="13" lengthAdjust="spacing" textLength="127" x="434" y="268.3701">ZAPP_GW (Package)</text><text fill="#000000" font-family="sans-serif" font-size="13" lengthAdjust="spacing" textLength="132" x="434" y="284.7217">ZAPP (SEGW Project)</text><text fill="#000000" font-family="sans-serif" font-size="13" lengthAdjust="spacing" textLength="187" x="434" y="301.0732">ZCL_ZAPP_DPC_EXT (Classes)</text><path d="M727,322.9297 L727,364.9297 L883,364.9297 L883,332.9297 L873,322.9297 L727,322.9297 " fill="#FBFB77" filter="url(#f1e80lfbfcrzsz)" style="stroke:#A80036;stroke-width:1.0;"/><path d="M873,322.9297 L873,332.9297 L883,332.9297 L873,322.9297 " fill="#FBFB77" style="stroke:#A80036;stroke-width:1.0;"/><text fill="#000000" font-family="sans-serif" font-size="13" lengthAdjust="spacing" textLength="97" x="733" y="341.4248">ZAPP (Package)</text><text fill="#000000" font-family="sans-serif" font-size="13" lengthAdjust="spacing" textLength="135" x="733" y="357.7764">ZAPP (Function Group)</text><path d="M931,379.6328 L931,405.6328 L1049,405.6328 L1049,389.6328 L1039,379.6328 L931,379.6328 " fill="#FBFB77" filter="url(#f1e80lfbfcrzsz)" style="stroke:#A80036;stroke-width:1.0;"/><path d="M1039,379.6328 L1039,389.6328 L1049,389.6328 L1039,379.6328 " fill="#FBFB77" style="stroke:#A80036;stroke-width:1.0;"/><text fill="#000000" font-family="sans-serif" font-size="13" lengthAdjust="spacing" textLength="97" x="937" y="398.1279">ZRW_CR (Table)</text><path d="M20,421.9844 L78,421.9844 L78,429.9844 L68,439.9844 L20,439.9844 L20,421.9844 " fill="#EEEEEE" style="stroke:#000000;stroke-width:1.0;"/><rect fill="none" height="95.4063" style="stroke:#000000;stroke-width:2.0;" width="242" x="20" y="421.9844"/><text fill="#000000" font-family="sans-serif" font-size="13" font-weight="bold" lengthAdjust="spacing" textLength="13" x="35" y="436.4795">UI</text><polygon fill="#262F38" points="205,475.0391,215,479.0391,205,483.0391,209,479.0391" style="stroke:#262F38;stroke-width:1.0;"/><line style="stroke:#262F38;stroke-width:1.0;" x1="47.5" x2="211" y1="479.0391" y2="479.0391"/><text fill="#000000" font-family="sans-serif" font-size="13" lengthAdjust="spacing" textLength="98" x="54.5" y="457.8311">GET app request</text><text fill="#000000" font-family="sans-serif" font-size="13" lengthAdjust="spacing" textLength="133" x="58.5" y="474.1826">(index.html, *.css, *.js)</text><polygon fill="#262F38" points="58.5,505.3906,48.5,509.3906,58.5,513.3906,54.5,509.3906" style="stroke:#262F38;stroke-width:1.0;"/><line style="stroke:#262F38;stroke-width:1.0;" x1="52.5" x2="216" y1="509.3906" y2="509.3906"/><text fill="#000000" font-family="sans-serif" font-size="13" lengthAdjust="spacing" textLength="91" x="64.5" y="504.5342">MIME response</text><path d="M10,531.3906 L104,531.3906 L104,539.3906 L94,549.3906 L10,549.3906 L10,531.3906 " fill="#EEEEEE" style="stroke:#000000;stroke-width:1.0;"/><rect fill="none" height="997.6016" style="stroke:#000000;stroke-width:2.0;" width="1035.5" x="10" y="531.3906"/><text fill="#000000" font-family="sans-serif" font-size="13" font-weight="bold" lengthAdjust="spacing" textLength="45" x="25" y="545.8857">ODATA</text><text fill="#000000" font-family="sans-serif" font-size="11" font-weight="bold" lengthAdjust="spacing" textLength="171" x="119" y="544.8096">[/sap/opu/odata/sap/ZAPP_SRV]</text><path d="M20,556.7422 L158,556.7422 L158,564.7422 L148,574.7422 L20,574.7422 L20,556.7422 " fill="#EEEEEE" style="stroke:#000000;stroke-width:1.0;"/><rect fill="none" height="139.7578" style="stroke:#000000;stroke-width:2.0;" width="570.5" x="20" y="556.7422"/><text fill="#000000" font-family="sans-serif" font-size="13" font-weight="bold" lengthAdjust="spacing" textLength="89" x="35" y="571.2373">GET Metadata</text><text fill="#000000" font-family="sans-serif" font-size="11" font-weight="bold" lengthAdjust="spacing" textLength="71" x="173" y="570.1611">[./$metadata]</text><polygon fill="#262F38" points="300.5,593.4453,310.5,597.4453,300.5,601.4453,304.5,597.4453" style="stroke:#262F38;stroke-width:1.0;"/><line style="stroke:#262F38;stroke-width:1.0;" x1="47.5" x2="306.5" y1="597.4453" y2="597.4453"/><text fill="#000000" font-family="sans-serif" font-size="13" lengthAdjust="spacing" textLength="73" x="54.5" y="592.5889">GET request</text><polygon fill="#262F38" points="522,623.7969,532,627.7969,522,631.7969,526,627.7969" style="stroke:#262F38;stroke-width:1.0;"/><line style="stroke:#262F38;stroke-width:1.0;" x1="312.5" x2="528" y1="627.7969" y2="627.7969"/><text fill="#000000" font-family="sans-serif" font-size="13" lengthAdjust="spacing" textLength="120" x="319.5" y="622.9404">get service metadata</text><polygon fill="#262F38" points="323.5,654.1484,313.5,658.1484,323.5,662.1484,319.5,658.1484" style="stroke:#262F38;stroke-width:1.0;"/><line style="stroke:#262F38;stroke-width:1.0;" x1="317.5" x2="533" y1="658.1484" y2="658.1484"/><text fill="#000000" font-family="sans-serif" font-size="13" lengthAdjust="spacing" textLength="91" x="329.5" y="653.292">metadata return</text><polygon fill="#262F38" points="58.5,684.5,48.5,688.5,58.5,692.5,54.5,688.5" style="stroke:#262F38;stroke-width:1.0;"/><line style="stroke:#262F38;stroke-width:1.0;" x1="52.5" x2="311.5" y1="688.5" y2="688.5"/><text fill="#000000" font-family="sans-serif" font-size="13" lengthAdjust="spacing" textLength="82" x="64.5" y="683.6436">XML response</text><path d="M20,710.5 L169,710.5 L169,718.5 L159,728.5 L20,728.5 L20,710.5 " fill="#EEEEEE" style="stroke:#000000;stroke-width:1.0;"/><rect fill="none" height="261.1641" style="stroke:#000000;stroke-width:2.0;" width="1015.5" x="20" y="710.5"/><text fill="#000000" font-family="sans-serif" font-size="13" font-weight="bold" lengthAdjust="spacing" textLength="100" x="35" y="724.9951">GET ChangeSet</text><text fill="#000000" font-family="sans-serif" font-size="11" font-weight="bold" lengthAdjust="spacing" textLength="74" x="184" y="723.9189">[./ChangeSet]</text><polygon fill="#262F38" points="300.5,747.2031,310.5,751.2031,300.5,755.2031,304.5,751.2031" style="stroke:#262F38;stroke-width:1.0;"/><line style="stroke:#262F38;stroke-width:1.0;" x1="47.5" x2="306.5" y1="751.2031" y2="751.2031"/><text fill="#000000" font-family="sans-serif" font-size="13" lengthAdjust="spacing" textLength="73" x="54.5" y="746.3467">GET request</text><polygon fill="#262F38" points="522,777.5547,532,781.5547,522,785.5547,526,781.5547" style="stroke:#262F38;stroke-width:1.0;"/><line style="stroke:#262F38;stroke-width:1.0;" x1="312.5" x2="528" y1="781.5547" y2="781.5547"/><text fill="#000000" font-family="sans-serif" font-size="13" lengthAdjust="spacing" textLength="189" x="319.5" y="776.6982">CHANGESET_GET_ENTITYSET</text><polygon fill="#262F38" points="795,807.9063,805,811.9063,795,815.9063,799,811.9063" style="stroke:#262F38;stroke-width:1.0;"/><line style="stroke:#262F38;stroke-width:1.0;" x1="534" x2="801" y1="811.9063" y2="811.9063"/><text fill="#000000" font-family="sans-serif" font-size="13" lengthAdjust="spacing" textLength="239" x="541" y="807.0498">call function Z_CHANGE_LIST_ZENTRAL</text><polygon fill="#262F38" points="980,838.2578,990,842.2578,980,846.2578,984,842.2578" style="stroke:#262F38;stroke-width:1.0;"/><line style="stroke:#262F38;stroke-width:1.0;" x1="807" x2="986" y1="842.2578" y2="842.2578"/><text fill="#000000" font-family="sans-serif" font-size="13" lengthAdjust="spacing" textLength="159" x="814" y="837.4014">SELECT * FROM ZRW_CR</text><polygon fill="#262F38" points="818,868.6094,808,872.6094,818,876.6094,814,872.6094" style="stroke:#262F38;stroke-width:1.0;"/><line style="stroke:#262F38;stroke-width:1.0;" x1="812" x2="991" y1="872.6094" y2="872.6094"/><text fill="#000000" font-family="sans-serif" font-size="13" lengthAdjust="spacing" textLength="82" x="824" y="867.7529">data response</text><polygon fill="#262F38" points="545,898.9609,535,902.9609,545,906.9609,541,902.9609" style="stroke:#262F38;stroke-width:1.0;"/><line style="stroke:#262F38;stroke-width:1.0;" x1="539" x2="806" y1="902.9609" y2="902.9609"/><text fill="#000000" font-family="sans-serif" font-size="13" lengthAdjust="spacing" textLength="82" x="551" y="898.1045">function return</text><polygon fill="#262F38" points="323.5,929.3125,313.5,933.3125,323.5,937.3125,319.5,933.3125" style="stroke:#262F38;stroke-width:1.0;"/><line style="stroke:#262F38;stroke-width:1.0;" x1="317.5" x2="533" y1="933.3125" y2="933.3125"/><text fill="#000000" font-family="sans-serif" font-size="13" lengthAdjust="spacing" textLength="120" x="329.5" y="928.4561">deep structure return</text><polygon fill="#262F38" points="300.5,959.6641,310.5,963.6641,300.5,967.6641,304.5,963.6641" style="stroke:#262F38;stroke-width:1.0;"/><line style="stroke:#262F38;stroke-width:1.0;" x1="47.5" x2="306.5" y1="963.6641" y2="963.6641"/><text fill="#000000" font-family="sans-serif" font-size="13" lengthAdjust="spacing" textLength="91" x="54.5" y="958.8076">JSON response</text><path d="M20,985.6641 L148,985.6641 L148,993.6641 L138,1003.6641 L20,1003.6641 L20,985.6641 " fill="#EEEEEE" style="stroke:#000000;stroke-width:1.0;"/><rect fill="none" height="261.1641" style="stroke:#000000;stroke-width:2.0;" width="1015.5" x="20" y="985.6641"/><text fill="#000000" font-family="sans-serif" font-size="13" font-weight="bold" lengthAdjust="spacing" textLength="79" x="35" y="1000.1592">GET Change</text><text fill="#000000" font-family="sans-serif" font-size="11" font-weight="bold" lengthAdjust="spacing" textLength="220" x="163" y="999.083">[./ChangeSet('1234')?$expand=to_Items]</text><polygon fill="#262F38" points="300.5,1022.3672,310.5,1026.3672,300.5,1030.3672,304.5,1026.3672" style="stroke:#262F38;stroke-width:1.0;"/><line style="stroke:#262F38;stroke-width:1.0;" x1="47.5" x2="306.5" y1="1026.3672" y2="1026.3672"/><text fill="#000000" font-family="sans-serif" font-size="13" lengthAdjust="spacing" textLength="73" x="54.5" y="1021.5107">GET request</text><polygon fill="#262F38" points="522,1052.7188,532,1056.7188,522,1060.7188,526,1056.7188" style="stroke:#262F38;stroke-width:1.0;"/><line style="stroke:#262F38;stroke-width:1.0;" x1="312.5" x2="528" y1="1056.7188" y2="1056.7188"/><text fill="#000000" font-family="sans-serif" font-size="13" lengthAdjust="spacing" textLength="154" x="319.5" y="1051.8623">GET_EXPANDED_ENTITY</text><polygon fill="#262F38" points="795,1083.0703,805,1087.0703,795,1091.0703,799,1087.0703" style="stroke:#262F38;stroke-width:1.0;"/><line style="stroke:#262F38;stroke-width:1.0;" x1="534" x2="801" y1="1087.0703" y2="1087.0703"/><text fill="#000000" font-family="sans-serif" font-size="13" lengthAdjust="spacing" textLength="185" x="541" y="1082.2139">call function Z_CHANGE_READ</text><polygon fill="#262F38" points="980,1113.4219,990,1117.4219,980,1121.4219,984,1117.4219" style="stroke:#262F38;stroke-width:1.0;"/><line style="stroke:#262F38;stroke-width:1.0;" x1="807" x2="986" y1="1117.4219" y2="1117.4219"/><text fill="#000000" font-family="sans-serif" font-size="13" lengthAdjust="spacing" textLength="159" x="814" y="1112.5654">SELECT * FROM ZRW_CR</text><polygon fill="#262F38" points="818,1143.7734,808,1147.7734,818,1151.7734,814,1147.7734" style="stroke:#262F38;stroke-width:1.0;"/><line style="stroke:#262F38;stroke-width:1.0;" x1="812" x2="991" y1="1147.7734" y2="1147.7734"/><text fill="#000000" font-family="sans-serif" font-size="13" lengthAdjust="spacing" textLength="82" x="824" y="1142.917">data response</text><polygon fill="#262F38" points="545,1174.125,535,1178.125,545,1182.125,541,1178.125" style="stroke:#262F38;stroke-width:1.0;"/><line style="stroke:#262F38;stroke-width:1.0;" x1="539" x2="806" y1="1178.125" y2="1178.125"/><text fill="#000000" font-family="sans-serif" font-size="13" lengthAdjust="spacing" textLength="82" x="551" y="1173.2686">function return</text><polygon fill="#262F38" points="323.5,1204.4766,313.5,1208.4766,323.5,1212.4766,319.5,1208.4766" style="stroke:#262F38;stroke-width:1.0;"/><line style="stroke:#262F38;stroke-width:1.0;" x1="317.5" x2="533" y1="1208.4766" y2="1208.4766"/><text fill="#000000" font-family="sans-serif" font-size="13" lengthAdjust="spacing" textLength="120" x="329.5" y="1203.6201">deep structure return</text><polygon fill="#262F38" points="300.5,1234.8281,310.5,1238.8281,300.5,1242.8281,304.5,1238.8281" style="stroke:#262F38;stroke-width:1.0;"/><line style="stroke:#262F38;stroke-width:1.0;" x1="47.5" x2="306.5" y1="1238.8281" y2="1238.8281"/><text fill="#000000" font-family="sans-serif" font-size="13" lengthAdjust="spacing" textLength="91" x="54.5" y="1233.9717">JSON response</text><path d="M20,1260.8281 L158,1260.8281 L158,1268.8281 L148,1278.8281 L20,1278.8281 L20,1260.8281 " fill="#EEEEEE" style="stroke:#000000;stroke-width:1.0;"/><rect fill="none" height="261.1641" style="stroke:#000000;stroke-width:2.0;" width="1015.5" x="20" y="1260.8281"/><text fill="#000000" font-family="sans-serif" font-size="13" font-weight="bold" lengthAdjust="spacing" textLength="89" x="35" y="1275.3232">POST Change</text><text fill="#000000" font-family="sans-serif" font-size="11" font-weight="bold" lengthAdjust="spacing" textLength="74" x="173" y="1274.2471">[./ChangeSet]</text><polygon fill="#262F38" points="300.5,1297.5313,310.5,1301.5313,300.5,1305.5313,304.5,1301.5313" style="stroke:#262F38;stroke-width:1.0;"/><line style="stroke:#262F38;stroke-width:1.0;" x1="47.5" x2="306.5" y1="1301.5313" y2="1301.5313"/><text fill="#000000" font-family="sans-serif" font-size="13" lengthAdjust="spacing" textLength="82" x="54.5" y="1296.6748">POST request</text><polygon fill="#262F38" points="522,1327.8828,532,1331.8828,522,1335.8828,526,1331.8828" style="stroke:#262F38;stroke-width:1.0;"/><line style="stroke:#262F38;stroke-width:1.0;" x1="312.5" x2="528" y1="1331.8828" y2="1331.8828"/><text fill="#000000" font-family="sans-serif" font-size="13" lengthAdjust="spacing" textLength="146" x="319.5" y="1327.0264">CREATE_DEEP_ENTITY</text><polygon fill="#262F38" points="795,1358.2344,805,1362.2344,795,1366.2344,799,1362.2344" style="stroke:#262F38;stroke-width:1.0;"/><line style="stroke:#262F38;stroke-width:1.0;" x1="534" x2="801" y1="1362.2344" y2="1362.2344"/><text fill="#000000" font-family="sans-serif" font-size="13" lengthAdjust="spacing" textLength="249" x="541" y="1357.3779">call function Z_CHANGE_SAVE_ZENTRAL</text><polygon fill="#262F38" points="980,1388.5859,990,1392.5859,980,1396.5859,984,1392.5859" style="stroke:#262F38;stroke-width:1.0;"/><line style="stroke:#262F38;stroke-width:1.0;" x1="807" x2="986" y1="1392.5859" y2="1392.5859"/><text fill="#000000" font-family="sans-serif" font-size="13" lengthAdjust="spacing" textLength="161" x="814" y="1387.7295">UPDATE * FROM ZRW_CR</text><polygon fill="#262F38" points="818,1418.9375,808,1422.9375,818,1426.9375,814,1422.9375" style="stroke:#262F38;stroke-width:1.0;"/><line style="stroke:#262F38;stroke-width:1.0;" x1="812" x2="991" y1="1422.9375" y2="1422.9375"/><text fill="#000000" font-family="sans-serif" font-size="13" lengthAdjust="spacing" textLength="82" x="824" y="1418.0811">data response</text><polygon fill="#262F38" points="545,1449.2891,535,1453.2891,545,1457.2891,541,1453.2891" style="stroke:#262F38;stroke-width:1.0;"/><line style="stroke:#262F38;stroke-width:1.0;" x1="539" x2="806" y1="1453.2891" y2="1453.2891"/><text fill="#000000" font-family="sans-serif" font-size="13" lengthAdjust="spacing" textLength="82" x="551" y="1448.4326">function return</text><polygon fill="#262F38" points="323.5,1479.6406,313.5,1483.6406,323.5,1487.6406,319.5,1483.6406" style="stroke:#262F38;stroke-width:1.0;"/><line style="stroke:#262F38;stroke-width:1.0;" x1="317.5" x2="533" y1="1483.6406" y2="1483.6406"/><text fill="#000000" font-family="sans-serif" font-size="13" lengthAdjust="spacing" textLength="120" x="329.5" y="1478.7842">deep structure return</text><polygon fill="#262F38" points="300.5,1509.9922,310.5,1513.9922,300.5,1517.9922,304.5,1513.9922" style="stroke:#262F38;stroke-width:1.0;"/><line style="stroke:#262F38;stroke-width:1.0;" x1="47.5" x2="306.5" y1="1513.9922" y2="1513.9922"/><text fill="#000000" font-family="sans-serif" font-size="13" lengthAdjust="spacing" textLength="91" x="54.5" y="1509.1357">JSON response</text></g></svg>