<?xml version="1.0" encoding="UTF-8" standalone="no"?><svg xmlns="http://www.w3.org/2000/svg" xmlns:xlink="http://www.w3.org/1999/xlink" contentScriptType="application/ecmascript" contentStyleType="text/css" height="177px" preserveAspectRatio="none" style="width:61px;height:177px;" version="1.1" viewBox="0 0 61 177" width="61px" zoomAndPan="magnify"><defs><filter height="300%" id="f1xrsiyqwk990y" width="300%" x="-1" y="-1"><feGaussianBlur result="blurOut" stdDeviation="2.0"/><feColorMatrix in="blurOut" result="blurOut2" type="matrix" values="0 0 0 0 0 0 0 0 0 0 0 0 0 0 0 0 0 0 .4 0"/><feOffset dx="4.0" dy="4.0" in="blurOut2" result="blurOut3"/><feBlend in="SourceGraphic" in2="blurOut3" mode="normal"/></filter></defs><g><!--MD5=[a46ee5ce0ceb0380cf446a08a056dce4]
class A--><rect fill="#FEFECE" filter="url(#f1xrsiyqwk990y)" height="48" id="A" style="stroke:#A80036;stroke-width:1.5;" width="39" x="7.5" y="7"/><ellipse cx="22.5" cy="23" fill="#ADD1B2" rx="11" ry="11" style="stroke:#A80036;stroke-width:1.0;"/><path d="M25.2656,18.875 Q25.4219,18.6563 25.6094,18.5469 Q25.7969,18.4375 26.0156,18.4375 Q26.3906,18.4375 26.625,18.6953 Q26.8594,18.9531 26.8594,19.5625 L26.8594,21.0156 Q26.8594,21.625 26.625,21.8906 Q26.3906,22.1563 26.0156,22.1563 Q25.6719,22.1563 25.4688,21.9531 Q25.2656,21.7656 25.1563,21.25 Q25.1094,20.8906 24.9219,20.7031 Q24.5938,20.3281 23.9844,20.1094 Q23.375,19.8906 22.75,19.8906 Q21.9844,19.8906 21.3516,20.2188 Q20.7188,20.5469 20.2266,21.2969 Q19.7344,22.0469 19.7344,23.0781 L19.7344,24.1719 Q19.7344,25.4063 20.625,26.2266 Q21.5156,27.0469 23.1094,27.0469 Q24.0469,27.0469 24.7031,26.7969 Q25.0938,26.6406 25.5156,26.2031 Q25.7813,25.9375 25.9297,25.8594 Q26.0781,25.7813 26.2813,25.7813 Q26.6094,25.7813 26.8672,26.0391 Q27.125,26.2969 27.125,26.6406 Q27.125,26.9844 26.7813,27.3906 Q26.2813,27.9688 25.4844,28.2969 Q24.4063,28.75 23.1094,28.75 Q21.5938,28.75 20.3906,28.125 Q19.4063,27.625 18.7188,26.5547 Q18.0313,25.4844 18.0313,24.2031 L18.0313,23.0469 Q18.0313,21.7188 18.6484,20.5703 Q19.2656,19.4219 20.3594,18.8047 Q21.4531,18.1875 22.6875,18.1875 Q23.4219,18.1875 24.0703,18.3516 Q24.7188,18.5156 25.2656,18.875 Z " fill="#000000"/><text fill="#000000" font-family="sans-serif" font-size="12" lengthAdjust="spacing" textLength="7" x="36.5" y="27.9102">A</text><line style="stroke:#A80036;stroke-width:1.5;" x1="8.5" x2="45.5" y1="39" y2="39"/><line style="stroke:#A80036;stroke-width:1.5;" x1="8.5" x2="45.5" y1="47" y2="47"/><!--MD5=[69c451c751c414e37549b782190fef46]
class B--><rect fill="#FEFECE" filter="url(#f1xrsiyqwk990y)" height="48" id="B" style="stroke:#A80036;stroke-width:1.5;" width="40" x="7" y="115"/><ellipse cx="22" cy="131" fill="#ADD1B2" rx="11" ry="11" style="stroke:#A80036;stroke-width:1.0;"/><path d="M24.7656,126.875 Q24.9219,126.6563 25.1094,126.5469 Q25.2969,126.4375 25.5156,126.4375 Q25.8906,126.4375 26.125,126.6953 Q26.3594,126.9531 26.3594,127.5625 L26.3594,129.0156 Q26.3594,129.625 26.125,129.8906 Q25.8906,130.1563 25.5156,130.1563 Q25.1719,130.1563 24.9688,129.9531 Q24.7656,129.7656 24.6563,129.25 Q24.6094,128.8906 24.4219,128.7031 Q24.0938,128.3281 23.4844,128.1094 Q22.875,127.8906 22.25,127.8906 Q21.4844,127.8906 20.8516,128.2188 Q20.2188,128.5469 19.7266,129.2969 Q19.2344,130.0469 19.2344,131.0781 L19.2344,132.1719 Q19.2344,133.4063 20.125,134.2266 Q21.0156,135.0469 22.6094,135.0469 Q23.5469,135.0469 24.2031,134.7969 Q24.5938,134.6406 25.0156,134.2031 Q25.2813,133.9375 25.4297,133.8594 Q25.5781,133.7813 25.7813,133.7813 Q26.1094,133.7813 26.3672,134.0391 Q26.625,134.2969 26.625,134.6406 Q26.625,134.9844 26.2813,135.3906 Q25.7813,135.9688 24.9844,136.2969 Q23.9063,136.75 22.6094,136.75 Q21.0938,136.75 19.8906,136.125 Q18.9063,135.625 18.2188,134.5547 Q17.5313,133.4844 17.5313,132.2031 L17.5313,131.0469 Q17.5313,129.7188 18.1484,128.5703 Q18.7656,127.4219 19.8594,126.8047 Q20.9531,126.1875 22.1875,126.1875 Q22.9219,126.1875 23.5703,126.3516 Q24.2188,126.5156 24.7656,126.875 Z " fill="#000000"/><text fill="#000000" font-family="sans-serif" font-size="12" lengthAdjust="spacing" textLength="8" x="36" y="135.9102">B</text><line style="stroke:#A80036;stroke-width:1.5;" x1="8" x2="46" y1="147" y2="147"/><line style="stroke:#A80036;stroke-width:1.5;" x1="8" x2="46" y1="155" y2="155"/><!--MD5=[81500ff05264bba268bb228b65a49ed8]
reverse link A to B--><path codeLine="1" d="M27,75.02 C27,88.58 27,103.04 27,114.68 " fill="none" id="A-backto-B" style="stroke:#A80036;stroke-width:1.0;"/><polygon fill="none" points="20,75,27,55,34,75,20,75" style="stroke:#A80036;stroke-width:1.0;"/><!--MD5=[5c18a80bba9a6f40034cf08a29376ba5]
@startuml
A <|- - B
@enduml

PlantUML version 1.2021.00(Sun Jan 10 11:25:05 CET 2021)
(GPL source distribution)
Java Runtime: Java(TM) SE Runtime Environment
JVM: Java HotSpot(TM) 64-Bit Server VM
Default Encoding: Cp1252
Language: de
Country: DE
--></g></svg>